<svg width="1920" height="1080" viewBox="0 0 1920 1080" fill="none" xmlns="http://www.w3.org/2000/svg">
<rect width="1920" height="1080" fill="white"/>
<g clip-path="url(#clip0)">
<path d="M1061.42 642.102C1058.76 624.205 1058.06 606.072 1059.32 588.024L1061.42 558.153C1049.88 581.105 1052.49 611.313 1061.42 642.102V642.102Z" fill="#A2A2A2"/>
<path d="M1070.42 647.099C1069.14 636.419 1068.8 625.648 1069.41 614.909L1070.42 597.129C1064.86 610.791 1066.12 628.772 1070.42 647.099Z" fill="#A1A1A1"/>
<path d="M1110.42 669.088V679.082C1110.42 679.876 1110.1 680.636 1109.54 681.197C1108.98 681.759 1108.21 682.076 1107.42 682.08H1102.42C1102.29 682.08 1102.16 682.105 1102.04 682.155C1101.92 682.205 1101.81 682.279 1101.71 682.372C1101.62 682.465 1101.55 682.575 1101.5 682.696C1101.45 682.818 1101.42 682.948 1101.42 683.079V765.03C1101.42 765.824 1101.1 766.584 1100.54 767.145C1099.98 767.707 1099.22 768.024 1098.42 768.028H1037.42C1036.63 768.027 1035.87 767.711 1035.3 767.149C1034.74 766.587 1034.42 765.825 1034.42 765.03V683.079C1034.42 682.815 1034.32 682.561 1034.13 682.374C1033.94 682.186 1033.69 682.081 1033.42 682.08H1027.42C1026.63 682.079 1025.87 681.763 1025.3 681.201C1024.74 680.639 1024.43 679.877 1024.42 679.082V669.088C1024.42 668.694 1024.5 668.304 1024.65 667.94C1024.8 667.576 1025.02 667.245 1025.3 666.967C1025.58 666.688 1025.91 666.467 1026.28 666.317C1026.64 666.166 1027.03 666.089 1027.42 666.09H1107.42C1108.22 666.092 1108.98 666.409 1109.54 666.971C1110.1 667.532 1110.42 668.294 1110.42 669.088V669.088Z" fill="#FF0000"/>
<path d="M1101.42 728.297C1079 737.569 1056.34 737.671 1033.42 728.297V707.174C1055.48 699.769 1079.36 699.769 1101.42 707.174V728.297Z" fill="#810303"/>
<path d="M1101.51 684.179H1034.51V687.177H1101.51V684.179Z" fill="#E6E6E6"/>
<path d="M779.457 392.229C799.557 392.229 815.851 375.944 815.851 355.855C815.851 335.767 799.557 319.482 779.457 319.482C759.357 319.482 743.063 335.767 743.063 355.855C743.063 375.944 759.357 392.229 779.457 392.229Z" fill="#2F2E41"/>
<path d="M789.597 320.483C795.895 320.484 802.085 322.118 807.563 325.226C813.04 328.334 817.617 332.809 820.845 338.214C824.074 343.619 825.843 349.769 825.982 356.063C826.12 362.356 824.622 368.578 821.634 374.119C824.789 370.174 827.088 365.614 828.382 360.732C829.677 355.85 829.94 350.751 829.155 345.762C828.369 340.772 826.552 336.001 823.819 331.752C821.087 327.503 817.498 323.87 813.283 321.084C809.068 318.298 804.318 316.419 799.336 315.569C794.355 314.719 789.251 314.915 784.349 316.146C779.448 317.376 774.856 319.613 770.868 322.715C766.879 325.817 763.581 329.715 761.183 334.161C764.585 329.892 768.907 326.446 773.826 324.077C778.746 321.709 784.136 320.481 789.597 320.483V320.483Z" fill="#2F2E41"/>
<path d="M711.45 355.778C770.493 355.778 818.357 307.941 818.357 248.931C818.357 189.921 770.493 142.083 711.45 142.083C652.407 142.083 604.543 189.921 604.543 248.931C604.543 307.941 652.407 355.778 711.45 355.778Z" fill="#303030"/>
<path d="M627.546 182.637C645.967 161.932 671.716 149.189 699.359 147.099C727.002 145.009 754.377 153.734 775.705 171.434C774.831 170.603 773.966 169.766 773.057 168.959C751.865 150.146 724.064 140.514 695.767 142.182C667.471 143.851 640.996 156.682 622.163 177.855C603.33 199.028 593.682 226.809 595.338 255.09C596.995 283.372 609.822 309.838 630.999 328.669C631.907 329.476 632.841 330.237 633.768 331.007C613.682 311.911 601.806 285.762 600.645 258.079C599.484 230.397 609.129 203.346 627.546 182.637Z" fill="#2F2E41"/>
<path d="M710.544 354.873C748.572 354.873 779.399 324.062 779.399 286.056C779.399 248.049 748.572 217.239 710.544 217.239C672.516 217.239 641.689 248.049 641.689 286.056C641.689 324.062 672.516 354.873 710.544 354.873Z" fill="#FFB8B8"/>
<path d="M745.718 373.555L672.033 376.865C672.033 376.865 678.183 414.95 638.32 418.572C598.456 422.194 562.217 411.328 547.721 438.493C533.225 465.658 539.473 562.384 539.473 562.384C539.473 562.384 566.653 660.177 588.397 674.664C610.14 689.152 800.398 669.232 800.398 669.232L880.022 568.749L877.325 491.256C875.917 450.79 838.951 420.408 799.136 427.897C798.354 428.044 797.567 428.202 796.774 428.372C796.774 428.372 788.027 421.838 764.029 409.845C749.353 402.511 745.718 373.555 745.718 373.555Z" fill="#FF0000"/>
<path d="M585.773 416.761C585.773 416.761 603.285 448.52 596.038 493.794C588.79 539.069 619.2 634.823 619.2 634.823L640.944 629.39C640.944 629.39 626.448 535.219 630.072 513.488C633.696 491.756 634.696 427.627 616.576 416.761C598.457 405.896 585.773 416.761 585.773 416.761Z" fill="#2F2E41"/>
<path d="M795.5 433.413L803.116 633.917L817.612 642.972C817.612 642.972 838.45 422.939 827.578 422.939H805.456C804.147 422.939 802.851 423.196 801.641 423.697C800.432 424.198 799.333 424.932 798.407 425.857C797.481 426.783 796.747 427.881 796.246 429.09C795.745 430.299 795.487 431.595 795.487 432.903C795.487 433.073 795.491 433.243 795.5 433.413Z" fill="#2F2E41"/>
<path d="M629.166 630.296C634.17 630.296 638.226 626.242 638.226 621.241C638.226 616.24 634.17 612.186 629.166 612.186C624.162 612.186 620.106 616.24 620.106 621.241C620.106 626.242 624.162 630.296 629.166 630.296Z" fill="#6C63FF"/>
<path d="M810.364 639.35C815.368 639.35 819.424 635.296 819.424 630.296C819.424 625.295 815.368 621.241 810.364 621.241C805.36 621.241 801.304 625.295 801.304 630.296C801.304 635.296 805.36 639.35 810.364 639.35Z" fill="#6C63FF"/>
<path d="M651.655 200.034V268.851H667.601L687.895 247.119L685.177 268.851H755.662L751.313 247.119L760.011 268.851H771.245V200.034H651.655Z" fill="#303030"/>
<path d="M640.783 281.528C643.785 281.528 646.219 277.069 646.219 271.568C646.219 266.067 643.785 261.608 640.783 261.608C637.781 261.608 635.347 266.067 635.347 271.568C635.347 277.069 637.781 281.528 640.783 281.528Z" fill="#FFB8B8"/>
<path d="M780.305 281.528C783.307 281.528 785.741 277.069 785.741 271.568C785.741 266.067 783.307 261.608 780.305 261.608C777.303 261.608 774.869 266.067 774.869 271.568C774.869 277.069 777.303 281.528 780.305 281.528Z" fill="#FFB8B8"/>
<path d="M931.119 750.077V756.143C931.123 757.808 930.814 759.459 930.21 761.01C929.941 761.702 929.617 762.37 929.24 763.009C928.048 765.008 926.357 766.664 924.332 767.813C922.307 768.962 920.019 769.566 917.69 769.565H471.164C468.836 769.566 466.547 768.962 464.522 767.813C462.498 766.664 460.806 765.008 459.615 763.009C459.238 762.37 458.913 761.702 458.645 761.01C458.04 759.459 457.731 757.808 457.735 756.143V750.077C457.734 748.315 458.081 746.57 458.755 744.942C459.43 743.313 460.418 741.834 461.665 740.588C462.911 739.341 464.391 738.352 466.019 737.678C467.648 737.003 469.394 736.655 471.157 736.655H496.903V733.827C496.903 733.753 496.917 733.681 496.945 733.613C496.973 733.545 497.014 733.483 497.066 733.431C497.118 733.379 497.179 733.338 497.247 733.31C497.315 733.282 497.387 733.267 497.461 733.267H510.892C511.04 733.267 511.183 733.325 511.288 733.43C511.393 733.535 511.452 733.677 511.452 733.825V736.655H519.841V733.827C519.841 733.753 519.856 733.681 519.884 733.613C519.912 733.545 519.953 733.483 520.005 733.431C520.056 733.379 520.118 733.338 520.186 733.31C520.254 733.282 520.326 733.267 520.4 733.267H533.831C533.979 733.267 534.121 733.325 534.226 733.43C534.331 733.535 534.39 733.677 534.391 733.825V736.655H542.79V733.827C542.79 733.753 542.804 733.681 542.832 733.613C542.86 733.545 542.902 733.483 542.953 733.431C543.005 733.379 543.067 733.338 543.135 733.31C543.202 733.282 543.275 733.267 543.348 733.267H556.78C556.928 733.267 557.07 733.325 557.175 733.43C557.28 733.535 557.339 733.677 557.339 733.825V736.655H565.729V733.827C565.729 733.753 565.743 733.681 565.771 733.613C565.799 733.545 565.84 733.483 565.892 733.431C565.944 733.379 566.006 733.338 566.073 733.31C566.141 733.282 566.214 733.267 566.287 733.267H579.718C579.867 733.267 580.009 733.325 580.114 733.43C580.219 733.535 580.278 733.677 580.278 733.825V736.655H588.668V733.827C588.668 733.753 588.682 733.681 588.71 733.613C588.738 733.545 588.779 733.483 588.831 733.431C588.883 733.379 588.944 733.338 589.012 733.31C589.08 733.282 589.153 733.267 589.226 733.267H602.657C602.805 733.267 602.948 733.326 603.053 733.43C603.158 733.535 603.217 733.677 603.217 733.825V736.655H611.617V733.827C611.616 733.753 611.631 733.681 611.659 733.613C611.687 733.545 611.728 733.483 611.78 733.431C611.831 733.379 611.893 733.338 611.961 733.31C612.029 733.282 612.101 733.267 612.175 733.267H625.606C625.754 733.267 625.896 733.326 626.001 733.43C626.106 733.535 626.165 733.677 626.166 733.825V736.655H634.555V733.827C634.555 733.753 634.57 733.681 634.598 733.613C634.625 733.545 634.667 733.483 634.718 733.431C634.77 733.379 634.832 733.338 634.9 733.31C634.967 733.282 635.04 733.267 635.113 733.267H740.31C740.383 733.267 740.456 733.281 740.524 733.309C740.592 733.337 740.653 733.378 740.705 733.43C740.757 733.482 740.799 733.543 740.827 733.611C740.855 733.679 740.87 733.752 740.87 733.825V736.655H749.269V733.827C749.269 733.753 749.283 733.681 749.311 733.613C749.339 733.545 749.38 733.483 749.432 733.431C749.484 733.38 749.546 733.338 749.613 733.31C749.681 733.282 749.754 733.267 749.827 733.267H763.258C763.407 733.269 763.548 733.328 763.653 733.433C763.758 733.537 763.817 733.679 763.818 733.827V736.655H772.208V733.827C772.208 733.753 772.222 733.681 772.25 733.613C772.278 733.545 772.319 733.483 772.371 733.431C772.423 733.38 772.484 733.338 772.552 733.31C772.62 733.282 772.693 733.267 772.766 733.267H786.197C786.271 733.267 786.343 733.281 786.411 733.309C786.479 733.337 786.541 733.378 786.593 733.43C786.645 733.482 786.686 733.543 786.714 733.611C786.742 733.679 786.757 733.752 786.757 733.825V736.655H795.147V733.827C795.147 733.753 795.161 733.681 795.189 733.613C795.217 733.545 795.258 733.483 795.31 733.431C795.362 733.38 795.423 733.338 795.491 733.31C795.559 733.282 795.631 733.267 795.705 733.267H809.136C809.209 733.267 809.282 733.281 809.35 733.309C809.418 733.337 809.48 733.378 809.532 733.43C809.584 733.482 809.625 733.543 809.653 733.611C809.681 733.679 809.696 733.752 809.696 733.825V736.655H818.095V733.827C818.095 733.753 818.11 733.681 818.138 733.613C818.166 733.545 818.207 733.483 818.259 733.431C818.31 733.38 818.372 733.338 818.44 733.31C818.508 733.282 818.58 733.267 818.654 733.267H832.085C832.232 733.269 832.372 733.329 832.475 733.434C832.578 733.539 832.635 733.68 832.635 733.827V736.655H841.034V733.827C841.034 733.753 841.048 733.681 841.076 733.613C841.104 733.545 841.146 733.483 841.197 733.431C841.249 733.38 841.311 733.338 841.379 733.31C841.446 733.282 841.519 733.267 841.592 733.267H855.024C855.097 733.267 855.17 733.281 855.237 733.309C855.305 733.337 855.367 733.378 855.419 733.43C855.471 733.482 855.512 733.544 855.541 733.611C855.569 733.679 855.583 733.752 855.583 733.825V736.655H863.973V733.827C863.973 733.753 863.987 733.681 864.015 733.613C864.043 733.545 864.084 733.484 864.136 733.432C864.188 733.38 864.249 733.338 864.317 733.31C864.385 733.282 864.458 733.267 864.531 733.267H877.962C878.036 733.267 878.108 733.281 878.176 733.309C878.244 733.337 878.306 733.378 878.358 733.43C878.41 733.482 878.451 733.544 878.479 733.611C878.508 733.679 878.522 733.752 878.522 733.825V736.655H917.69C921.251 736.654 924.666 738.067 927.185 740.583C929.703 743.098 931.118 746.511 931.119 750.07L931.119 750.077Z" fill="#3F3D56"/>
<path d="M895.164 494.598H486.142C484.664 494.598 483.2 494.889 481.834 495.454C480.468 496.02 479.227 496.848 478.182 497.893C477.136 498.938 476.307 500.179 475.741 501.544C475.175 502.909 474.884 504.372 474.884 505.85V733.623C474.884 736.607 476.07 739.469 478.182 741.579C480.293 743.689 483.156 744.874 486.142 744.875H895.164C898.15 744.874 901.013 743.689 903.125 741.579C905.236 739.469 906.422 736.607 906.422 733.623V505.85C906.422 502.865 905.236 500.003 903.125 497.893C901.013 495.783 898.15 494.598 895.164 494.598Z" fill="#3F3D56"/>
<path d="M690.981 599.104C704.787 599.104 715.979 587.918 715.979 574.119C715.979 560.32 704.787 549.134 690.981 549.134C677.174 549.134 665.982 560.32 665.982 574.119C665.982 587.918 677.174 599.104 690.981 599.104Z" fill="#6C63FF"/>
<path d="M845.735 409.057L971.935 281.931H1031.51V279.932H971.1L970.807 280.229L844.313 407.652L845.735 409.057Z" fill="#3F3D56"/>
<path d="M1086.47 250.995H1055.51V220.058H1086.47V250.995ZM1057.51 248.996H1084.47V222.057H1057.51L1057.51 248.996Z" fill="#3F3D56"/>
<path d="M1086.47 337.807H1055.51V306.871H1086.47V337.807ZM1057.51 335.809H1084.47V308.87H1057.51L1057.51 335.809Z" fill="#3F3D56"/>
<path d="M1237.86 673.309C1238.79 705.24 1220.12 716.941 1196.69 717.625C1196.15 717.641 1195.61 717.651 1195.07 717.654C1193.98 717.663 1192.91 717.645 1191.84 717.6C1170.65 716.721 1153.88 705.481 1153.02 675.785C1152.12 645.054 1190.28 605.125 1193.15 602.172L1193.15 602.169C1193.26 602.056 1193.32 602 1193.32 602C1193.32 602 1236.92 641.381 1237.86 673.309Z" fill="#D0CDE1"/>
<path d="M1177.95 737.64V771.619H1211.95V737.64H1177.95ZM1210.47 770.14H1179.42V739.119H1210.47V770.14Z" fill="#3F3D56"/>
<path d="M1195.65 736.781L1210.53 714.663L1195.68 739.161L1195.71 741.649C1194.62 741.658 1193.55 741.64 1192.48 741.595L1193.22 709.603L1193.2 709.356L1193.23 709.308L1193.3 706.285L1177 682.637L1193.28 704.022L1193.34 704.662L1193.89 680.49L1179.82 655.972L1193.93 676.244L1193.79 626.167L1193.79 626L1193.79 626.164L1194.73 665.631L1207.55 649.6L1194.77 669.031L1195.05 690.652L1206.85 669.551L1195.09 693.831L1195.25 705.853L1212.41 676.46L1195.3 710.047L1195.65 736.781Z" fill="#3F3D56"/>
<path d="M1209.95 737.638H1181.95V765.621H1209.95V737.638Z" fill="#D0CDE1"/>
<path d="M1250.5 229.739H1104.29V242.761H1250.5V229.739Z" fill="#6C63FF"/>
<path d="M1299 768.001H328V770H1299V768.001Z" fill="#3F3D56"/>
<path d="M1250.5 316.552H1104.29V329.574H1250.5V316.552Z" fill="#6C63FF"/>
<path d="M1250.5 273.145H1104.29V286.167H1250.5V273.145Z" fill="#6C63FF"/>
<path d="M1086.47 294.401H1055.51V263.465H1086.47V294.401ZM1057.51 292.402H1084.47V265.464H1057.51L1057.51 292.402Z" fill="#3F3D56"/>
</g>
<g clip-path="url(#clip1)">
<path d="M1160 765H201V767H1160V765Z" fill="#3F3D56"/>
<path d="M323.905 737H292V764.991H323.905V737Z" fill="#D0CDE1"/>
<path d="M289.044 733.793V767.782H327.786V733.793H289.044ZM326.099 766.302H290.719V735.272H326.099V766.302Z" fill="#3F3D56"/>
<path d="M363.77 324.039C413.699 324.039 454.175 288.529 454.175 244.724C454.175 200.92 413.699 165.409 363.77 165.409C313.841 165.409 273.365 200.92 273.365 244.724C273.365 288.529 313.841 324.039 363.77 324.039Z" fill="#6C63FF"/>
<path d="M395.275 150.472C387.089 149.558 378.804 149.558 370.619 150.472C352.382 152.572 335.216 159.219 321.155 169.622C307.095 180.025 296.732 193.749 291.295 209.165C288.823 216.19 287.422 223.472 287.131 230.82C287.09 231.841 287.063 232.875 287.063 233.909C287.088 256.212 297.198 277.596 315.175 293.367C333.151 309.138 357.524 318.008 382.947 318.03C384.988 318.03 387.029 317.97 389.042 317.862C393.769 317.602 398.467 317.031 403.096 316.156C425.204 311.985 444.92 301.094 458.763 285.406C472.605 269.719 479.684 250.245 478.748 230.423C477.813 210.601 468.923 191.706 453.649 177.077C438.375 162.448 417.7 153.025 395.275 150.472H395.275ZM412.958 311.277H412.945C405.222 313.588 397.185 314.991 389.042 315.446C387.028 315.567 384.988 315.627 382.947 315.627C358.252 315.6 334.578 306.982 317.117 291.663C299.655 276.343 289.832 255.573 289.802 233.909C289.802 232.875 289.83 231.841 289.871 230.82C290.812 209.706 301.027 189.731 318.375 175.075C335.724 160.419 358.862 152.218 382.947 152.19C405.014 152.191 426.364 159.066 443.193 171.588C460.022 184.111 471.237 201.468 474.841 220.569C478.444 239.669 474.201 259.271 462.868 275.883C451.535 292.495 433.848 305.038 412.958 311.277H412.958Z" fill="#3F3D56"/>
<path d="M384.316 156.997H381.577V173.822H384.316V156.997Z" fill="#3F3D56"/>
<path d="M321.926 178.674L319.989 180.374L333.549 192.27L335.486 190.571L321.926 178.674Z" fill="#3F3D56"/>
<path d="M295.281 232.707V235.11H314.458V232.707H295.281Z" fill="#3F3D56"/>
<path d="M319.989 287.443L321.926 289.143L335.486 277.246L333.549 275.547L319.989 287.443Z" fill="#3F3D56"/>
<path d="M430.407 190.571L432.344 192.27L445.904 180.374L443.967 178.674L430.407 190.571Z" fill="#3F3D56"/>
<path d="M451.435 232.707V235.11H470.612V232.707H451.435Z" fill="#3F3D56"/>
<path d="M432.344 275.547L430.407 277.246L443.967 289.143L445.904 287.443L432.344 275.547Z" fill="#3F3D56"/>
<path d="M384.316 293.995H381.577V310.82H384.316V293.995Z" fill="#3F3D56"/>
<path d="M387.056 229.102C385.87 228.322 384.428 227.9 382.947 227.9C381.465 227.9 380.023 228.322 378.837 229.102C378.026 229.642 377.357 230.331 376.879 231.12C376.272 232.137 376.009 233.284 376.122 234.427C376.235 235.57 376.718 236.661 377.515 237.571C378.312 238.481 379.39 239.171 380.62 239.561C381.85 239.95 383.181 240.023 384.457 239.77C385.732 239.517 386.899 238.949 387.818 238.133C388.737 237.317 389.371 236.287 389.644 235.165C389.918 234.043 389.819 232.876 389.36 231.801C388.902 230.727 388.102 229.79 387.056 229.102H387.056ZM382.947 237.514C381.858 237.511 380.814 237.13 380.044 236.455C379.274 235.779 378.84 234.864 378.837 233.909C378.843 233.179 379.095 232.468 379.563 231.866C379.965 231.356 380.509 230.945 381.144 230.674C381.779 230.402 382.484 230.28 383.189 230.317C383.894 230.354 384.576 230.55 385.169 230.887C385.763 231.223 386.247 231.688 386.576 232.237C386.904 232.785 387.066 233.399 387.045 234.018C387.024 234.638 386.822 235.242 386.457 235.773C386.092 236.303 385.577 236.742 384.962 237.047C384.347 237.352 383.653 237.513 382.947 237.514V237.514Z" fill="#3F3D56"/>
<path d="M395.275 129.357H370.619V150.988H395.275V129.357Z" fill="#3F3D56"/>
<path d="M382.947 132.962C401.103 132.962 415.821 128.389 415.821 122.748C415.821 117.106 401.103 112.533 382.947 112.533C364.79 112.533 350.072 117.106 350.072 122.748C350.072 128.389 364.79 132.962 382.947 132.962Z" fill="#3F3D56"/>
<path d="M387.056 188.242H378.837V229.102H387.056V188.242Z" fill="#3F3D56"/>
<path d="M513.517 314.369H256V316.772H513.517V314.369Z" fill="#3F3D56"/>
<path d="M357.252 672.165C358.315 704.105 337.043 715.81 310.348 716.494C309.728 716.51 309.111 716.52 308.496 716.523C307.258 716.532 306.032 716.514 304.818 716.469C280.675 715.59 261.564 704.346 260.576 674.642C259.552 643.903 303.042 603.962 306.305 601.008L306.311 601.005C306.435 600.893 306.498 600.836 306.498 600.836C306.498 600.836 356.189 640.228 357.252 672.165Z" fill="#D0CDE1"/>
<path d="M309.293 734.641L326.251 712.517L309.328 737.021L309.363 739.511C308.125 739.519 306.899 739.501 305.685 739.457L306.526 707.455L306.503 707.208L306.534 707.161L306.615 704.137L288.044 680.482L306.593 701.874L306.659 702.513L307.294 678.334L291.254 653.81L307.34 674.087L307.172 623.996L307.172 623.829L307.178 623.993L308.242 663.471L322.861 647.435L308.29 666.872L308.609 688.5L322.062 667.392L308.659 691.679L308.836 703.705L328.399 674.303L308.896 707.9L309.293 734.641Z" fill="#3F3D56"/>
</g>
<defs>
<clipPath id="clip0">
<rect width="971" height="628" fill="white" transform="translate(328 142)"/>
</clipPath>
<clipPath id="clip1">
<rect width="910" height="689" fill="white" transform="translate(256 94)"/>
</clipPath>
</defs>
</svg>
