<svg width="1637" height="1080" viewBox="0 0 1637 1080" fill="none" xmlns="http://www.w3.org/2000/svg">
<path d="M1637 532.5C1637 964.663 1217.49 1315 700 1315C182.509 1315 -237 964.663 -237 532.5C-237 100.337 182.509 -250 700 -250C1217.49 -250 1637 100.337 1637 532.5Z" fill="url(#paint0_linear)"/>
<g clip-path="url(#clip0)">
<path d="M1000.42 616.102C997.76 598.205 997.058 580.072 998.324 562.024L1000.42 532.153C988.877 555.105 991.485 585.313 1000.42 616.102V616.102Z" fill="#A2A2A2"/>
<path d="M1009.42 621.099C1008.14 610.419 1007.8 599.648 1008.41 588.909L1009.42 571.129C1003.86 584.791 1005.12 602.772 1009.42 621.099Z" fill="#A1A1A1"/>
<path d="M1049.42 643.088V653.082C1049.42 653.876 1049.1 654.636 1048.54 655.197C1047.98 655.759 1047.21 656.076 1046.42 656.08H1041.42C1041.29 656.08 1041.16 656.105 1041.04 656.155C1040.92 656.205 1040.81 656.279 1040.71 656.372C1040.62 656.465 1040.55 656.575 1040.5 656.696C1040.45 656.818 1040.42 656.948 1040.42 657.079V739.03C1040.42 739.824 1040.1 740.584 1039.54 741.145C1038.98 741.707 1038.22 742.024 1037.42 742.028H976.424C975.629 742.027 974.866 741.711 974.304 741.149C973.741 740.587 973.425 739.825 973.424 739.03V657.079C973.423 656.815 973.318 656.561 973.13 656.374C972.943 656.186 972.689 656.081 972.424 656.08H966.425C965.629 656.079 964.867 655.763 964.304 655.201C963.742 654.639 963.425 653.877 963.425 653.082V643.088C963.424 642.694 963.501 642.304 963.652 641.94C963.803 641.576 964.024 641.245 964.302 640.967C964.581 640.688 964.912 640.467 965.276 640.317C965.64 640.166 966.03 640.089 966.425 640.09H1046.42C1047.22 640.092 1047.98 640.409 1048.54 640.971C1049.1 641.532 1049.42 642.294 1049.42 643.088V643.088Z" fill="#FF0000"/>
<path d="M1040.42 702.297C1018 711.569 995.339 711.671 972.424 702.297V681.174C994.484 673.769 1018.36 673.769 1040.42 681.174V702.297Z" fill="#810303"/>
<path d="M1040.51 658.179H973.514V661.177H1040.51V658.179Z" fill="#E6E6E6"/>
<path d="M718.457 366.229C738.557 366.229 754.851 349.944 754.851 329.855C754.851 309.767 738.557 293.482 718.457 293.482C698.357 293.482 682.063 309.767 682.063 329.855C682.063 349.944 698.357 366.229 718.457 366.229Z" fill="#2F2E41"/>
<path d="M728.597 294.483C734.895 294.484 741.085 296.118 746.563 299.226C752.04 302.334 756.617 306.809 759.845 312.214C763.074 317.619 764.843 323.769 764.982 330.063C765.12 336.356 763.622 342.578 760.634 348.119C763.789 344.174 766.088 339.614 767.382 334.732C768.677 329.85 768.94 324.751 768.155 319.762C767.369 314.772 765.552 310.001 762.819 305.752C760.087 301.503 756.498 297.87 752.283 295.084C748.068 292.298 743.318 290.419 738.336 289.569C733.355 288.719 728.251 288.915 723.349 290.146C718.448 291.376 713.856 293.613 709.868 296.715C705.879 299.817 702.581 303.715 700.183 308.161C703.585 303.892 707.907 300.446 712.826 298.077C717.746 295.709 723.136 294.481 728.597 294.483V294.483Z" fill="#2F2E41"/>
<path d="M650.45 329.778C709.493 329.778 757.357 281.941 757.357 222.931C757.357 163.921 709.493 116.083 650.45 116.083C591.407 116.083 543.543 163.921 543.543 222.931C543.543 281.941 591.407 329.778 650.45 329.778Z" fill="#303030"/>
<path d="M566.546 156.637C584.967 135.932 610.716 123.189 638.359 121.099C666.002 119.009 693.377 127.734 714.705 145.434C713.831 144.603 712.966 143.766 712.057 142.959C690.865 124.146 663.064 114.514 634.767 116.182C606.471 117.851 579.996 130.682 561.163 151.855C542.33 173.028 532.682 200.809 534.338 229.09C535.995 257.372 548.822 283.838 569.999 302.669C570.907 303.476 571.841 304.237 572.768 305.007C552.682 285.911 540.806 259.762 539.645 232.079C538.484 204.397 548.129 177.346 566.546 156.637Z" fill="#2F2E41"/>
<path d="M649.544 328.873C687.572 328.873 718.399 298.062 718.399 260.056C718.399 222.049 687.572 191.239 649.544 191.239C611.516 191.239 580.689 222.049 580.689 260.056C580.689 298.062 611.516 328.873 649.544 328.873Z" fill="#FFB8B8"/>
<path d="M684.718 347.555L611.033 350.865C611.033 350.865 617.183 388.95 577.32 392.572C537.456 396.194 501.217 385.328 486.721 412.493C472.225 439.658 478.473 536.384 478.473 536.384C478.473 536.384 505.653 634.177 527.397 648.664C549.14 663.152 739.398 643.232 739.398 643.232L819.022 542.749L816.326 465.256C814.917 424.79 777.951 394.408 738.136 401.897C737.354 402.044 736.567 402.202 735.774 402.372C735.774 402.372 727.027 395.838 703.029 383.845C688.353 376.511 684.718 347.555 684.718 347.555Z" fill="#FF0000"/>
<path d="M524.773 390.761C524.773 390.761 542.285 422.52 535.038 467.794C527.79 513.069 558.2 608.823 558.2 608.823L579.944 603.39C579.944 603.39 565.448 509.219 569.072 487.488C572.696 465.756 573.696 401.627 555.576 390.761C537.457 379.896 524.773 390.761 524.773 390.761Z" fill="#2F2E41"/>
<path d="M734.5 407.413L742.116 607.917L756.612 616.972C756.612 616.972 777.45 396.939 766.578 396.939H744.456C743.147 396.939 741.851 397.196 740.641 397.697C739.432 398.198 738.332 398.932 737.407 399.857C736.481 400.783 735.747 401.881 735.246 403.09C734.744 404.299 734.487 405.595 734.487 406.903C734.487 407.073 734.491 407.243 734.5 407.413Z" fill="#2F2E41"/>
<path d="M568.166 604.296C573.17 604.296 577.226 600.242 577.226 595.241C577.226 590.24 573.17 586.186 568.166 586.186C563.162 586.186 559.106 590.24 559.106 595.241C559.106 600.242 563.162 604.296 568.166 604.296Z" fill="#6C63FF"/>
<path d="M749.364 613.35C754.368 613.35 758.424 609.296 758.424 604.296C758.424 599.295 754.368 595.241 749.364 595.241C744.36 595.241 740.304 599.295 740.304 604.296C740.304 609.296 744.36 613.35 749.364 613.35Z" fill="#6C63FF"/>
<path d="M590.655 174.034V242.851H606.601L626.895 221.119L624.177 242.851H694.662L690.313 221.119L699.011 242.851H710.245V174.034H590.655Z" fill="#303030"/>
<path d="M579.783 255.528C582.785 255.528 585.219 251.069 585.219 245.568C585.219 240.067 582.785 235.608 579.783 235.608C576.781 235.608 574.347 240.067 574.347 245.568C574.347 251.069 576.781 255.528 579.783 255.528Z" fill="#FFB8B8"/>
<path d="M719.305 255.528C722.307 255.528 724.741 251.069 724.741 245.568C724.741 240.067 722.307 235.608 719.305 235.608C716.303 235.608 713.869 240.067 713.869 245.568C713.869 251.069 716.303 255.528 719.305 255.528Z" fill="#FFB8B8"/>
<path d="M870.119 724.077V730.143C870.123 731.808 869.814 733.459 869.21 735.01C868.941 735.702 868.617 736.37 868.24 737.009C867.048 739.008 865.357 740.664 863.332 741.813C861.307 742.962 859.019 743.566 856.69 743.565H410.164C407.836 743.566 405.547 742.962 403.522 741.813C401.498 740.664 399.806 739.008 398.615 737.009C398.238 736.37 397.913 735.702 397.645 735.01C397.04 733.459 396.731 731.808 396.735 730.143V724.077C396.734 722.315 397.081 720.57 397.755 718.942C398.43 717.313 399.418 715.834 400.665 714.588C401.911 713.341 403.391 712.352 405.019 711.678C406.648 711.003 408.394 710.655 410.157 710.655H435.903V707.827C435.903 707.753 435.917 707.681 435.945 707.613C435.973 707.545 436.014 707.483 436.066 707.431C436.118 707.379 436.179 707.338 436.247 707.31C436.315 707.282 436.387 707.267 436.461 707.267H449.892C450.04 707.267 450.183 707.325 450.288 707.43C450.393 707.535 450.452 707.677 450.452 707.825V710.655H458.841V707.827C458.841 707.753 458.856 707.681 458.884 707.613C458.912 707.545 458.953 707.483 459.005 707.431C459.056 707.379 459.118 707.338 459.186 707.31C459.254 707.282 459.326 707.267 459.4 707.267H472.831C472.979 707.267 473.121 707.325 473.226 707.43C473.331 707.535 473.39 707.677 473.391 707.825V710.655H481.79V707.827C481.79 707.753 481.804 707.681 481.832 707.613C481.86 707.545 481.902 707.483 481.953 707.431C482.005 707.379 482.067 707.338 482.135 707.31C482.202 707.282 482.275 707.267 482.348 707.267H495.78C495.928 707.267 496.07 707.325 496.175 707.43C496.28 707.535 496.339 707.677 496.339 707.825V710.655H504.729V707.827C504.729 707.753 504.743 707.681 504.771 707.613C504.799 707.545 504.84 707.483 504.892 707.431C504.944 707.379 505.006 707.338 505.073 707.31C505.141 707.282 505.214 707.267 505.287 707.267H518.718C518.867 707.267 519.009 707.325 519.114 707.43C519.219 707.535 519.278 707.677 519.278 707.825V710.655H527.668V707.827C527.668 707.753 527.682 707.681 527.71 707.613C527.738 707.545 527.779 707.483 527.831 707.431C527.883 707.379 527.944 707.338 528.012 707.31C528.08 707.282 528.153 707.267 528.226 707.267H541.657C541.805 707.267 541.948 707.326 542.053 707.43C542.158 707.535 542.217 707.677 542.217 707.825V710.655H550.617V707.827C550.616 707.753 550.631 707.681 550.659 707.613C550.687 707.545 550.728 707.483 550.78 707.431C550.831 707.379 550.893 707.338 550.961 707.31C551.029 707.282 551.101 707.267 551.175 707.267H564.606C564.754 707.267 564.896 707.326 565.001 707.43C565.106 707.535 565.165 707.677 565.166 707.825V710.655H573.555V707.827C573.555 707.753 573.57 707.681 573.598 707.613C573.626 707.545 573.667 707.483 573.718 707.431C573.77 707.379 573.832 707.338 573.9 707.31C573.967 707.282 574.04 707.267 574.113 707.267H679.31C679.383 707.267 679.456 707.281 679.524 707.309C679.592 707.337 679.653 707.378 679.705 707.43C679.757 707.482 679.799 707.543 679.827 707.611C679.855 707.679 679.87 707.752 679.87 707.825V710.655H688.269V707.827C688.269 707.753 688.283 707.681 688.311 707.613C688.339 707.545 688.38 707.483 688.432 707.431C688.484 707.38 688.546 707.338 688.613 707.31C688.681 707.282 688.754 707.267 688.827 707.267H702.258C702.407 707.269 702.548 707.328 702.653 707.433C702.758 707.537 702.817 707.679 702.818 707.827V710.655H711.208V707.827C711.208 707.753 711.222 707.681 711.25 707.613C711.278 707.545 711.319 707.483 711.371 707.431C711.423 707.38 711.484 707.338 711.552 707.31C711.62 707.282 711.693 707.267 711.766 707.267H725.197C725.271 707.267 725.343 707.281 725.411 707.309C725.479 707.337 725.541 707.378 725.593 707.43C725.645 707.482 725.686 707.543 725.714 707.611C725.743 707.679 725.757 707.752 725.757 707.825V710.655H734.147V707.827C734.147 707.753 734.161 707.681 734.189 707.613C734.217 707.545 734.258 707.483 734.31 707.431C734.362 707.38 734.423 707.338 734.491 707.31C734.559 707.282 734.631 707.267 734.705 707.267H748.136C748.209 707.267 748.282 707.281 748.35 707.309C748.418 707.337 748.48 707.378 748.532 707.43C748.584 707.482 748.625 707.543 748.653 707.611C748.681 707.679 748.696 707.752 748.696 707.825V710.655H757.095V707.827C757.095 707.753 757.11 707.681 757.138 707.613C757.166 707.545 757.207 707.483 757.259 707.431C757.31 707.38 757.372 707.338 757.44 707.31C757.508 707.282 757.58 707.267 757.654 707.267H771.085C771.232 707.269 771.372 707.329 771.475 707.434C771.578 707.539 771.635 707.68 771.635 707.827V710.655H780.034V707.827C780.034 707.753 780.048 707.681 780.076 707.613C780.104 707.545 780.145 707.483 780.197 707.431C780.249 707.38 780.311 707.338 780.379 707.31C780.446 707.282 780.519 707.267 780.592 707.267H794.023C794.097 707.267 794.17 707.281 794.237 707.309C794.305 707.337 794.367 707.378 794.419 707.43C794.471 707.482 794.512 707.544 794.541 707.611C794.569 707.679 794.583 707.752 794.583 707.825V710.655H802.973V707.827C802.973 707.753 802.987 707.681 803.015 707.613C803.043 707.545 803.084 707.484 803.136 707.432C803.188 707.38 803.249 707.338 803.317 707.31C803.385 707.282 803.458 707.267 803.531 707.267H816.962C817.036 707.267 817.108 707.281 817.176 707.309C817.244 707.337 817.306 707.378 817.358 707.43C817.41 707.482 817.451 707.544 817.479 707.611C817.508 707.679 817.522 707.752 817.522 707.825V710.655H856.69C860.251 710.654 863.666 712.067 866.185 714.583C868.703 717.098 870.118 720.511 870.119 724.07L870.119 724.077Z" fill="#3F3D56"/>
<path d="M834.164 468.598H425.142C423.664 468.598 422.2 468.889 420.834 469.454C419.468 470.02 418.227 470.848 417.182 471.893C416.136 472.938 415.307 474.179 414.741 475.544C414.175 476.909 413.884 478.372 413.884 479.85V707.623C413.884 710.607 415.07 713.469 417.182 715.579C419.293 717.689 422.156 718.874 425.142 718.875H834.164C837.15 718.874 840.013 717.689 842.125 715.579C844.236 713.469 845.422 710.607 845.422 707.623V479.85C845.422 476.865 844.236 474.003 842.125 471.893C840.013 469.783 837.15 468.598 834.164 468.598Z" fill="#3F3D56"/>
<path d="M629.981 573.104C643.787 573.104 654.979 561.918 654.979 548.119C654.979 534.32 643.787 523.134 629.981 523.134C616.174 523.134 604.982 534.32 604.982 548.119C604.982 561.918 616.174 573.104 629.981 573.104Z" fill="#6C63FF"/>
<path d="M784.735 383.057L910.935 255.931H970.514V253.932H910.1L909.807 254.229L783.313 381.652L784.735 383.057Z" fill="#3F3D56"/>
<path d="M1025.47 224.995H994.513V194.058H1025.47V224.995ZM996.513 222.996H1023.47V196.057H996.513L996.513 222.996Z" fill="#3F3D56"/>
<path d="M1025.47 311.807H994.513V280.871H1025.47V311.807ZM996.513 309.809H1023.47V282.87H996.513L996.513 309.809Z" fill="#3F3D56"/>
<path d="M1176.86 647.309C1177.79 679.24 1159.12 690.941 1135.69 691.625C1135.15 691.641 1134.61 691.651 1134.07 691.654C1132.98 691.663 1131.91 691.645 1130.84 691.6C1109.65 690.721 1092.88 679.481 1092.02 649.785C1091.12 619.054 1129.28 579.125 1132.15 576.172L1132.15 576.169C1132.26 576.056 1132.32 576 1132.32 576C1132.32 576 1175.92 615.381 1176.86 647.309Z" fill="#D0CDE1"/>
<path d="M1116.95 711.64V745.619H1150.95V711.64H1116.95ZM1149.47 744.14H1118.42V713.119H1149.47V744.14Z" fill="#3F3D56"/>
<path d="M1134.65 710.781L1149.53 688.663L1134.68 713.161L1134.71 715.649C1133.62 715.658 1132.55 715.64 1131.48 715.595L1132.22 683.603L1132.2 683.356L1132.23 683.308L1132.3 680.285L1116 656.637L1132.28 678.022L1132.34 678.662L1132.89 654.49L1118.82 629.972L1132.93 650.244L1132.79 600.167L1132.79 600L1132.79 600.164L1133.73 639.631L1146.55 623.6L1133.77 643.031L1134.05 664.652L1145.85 643.551L1134.09 667.831L1134.25 679.853L1151.41 650.46L1134.3 684.047L1134.65 710.781Z" fill="#3F3D56"/>
<path d="M1148.95 711.638H1120.95V739.621H1148.95V711.638Z" fill="#D0CDE1"/>
<path d="M1189.5 203.739H1043.29V216.761H1189.5V203.739Z" fill="#6C63FF"/>
<path d="M1238 742.001H267V744H1238V742.001Z" fill="#3F3D56"/>
<path d="M1189.5 290.552H1043.29V303.574H1189.5V290.552Z" fill="#6C63FF"/>
<path d="M1189.5 247.145H1043.29V260.167H1189.5V247.145Z" fill="#6C63FF"/>
<path d="M1025.47 268.401H994.513V237.465H1025.47V268.401ZM996.513 266.402H1023.47V239.464H996.513L996.513 266.402Z" fill="#3F3D56"/>
</g>
<g clip-path="url(#clip1)">
<path d="M1099 739H140V741H1099V739Z" fill="#3F3D56"/>
<path d="M262.905 711H231V738.991H262.905V711Z" fill="#D0CDE1"/>
<path d="M228.044 707.793V741.782H266.786V707.793H228.044ZM265.099 740.302H229.719V709.272H265.099V740.302Z" fill="#3F3D56"/>
<path d="M302.77 298.039C352.699 298.039 393.175 262.529 393.175 218.724C393.175 174.92 352.699 139.409 302.77 139.409C252.841 139.409 212.365 174.92 212.365 218.724C212.365 262.529 252.841 298.039 302.77 298.039Z" fill="#6C63FF"/>
<path d="M334.274 124.472C326.089 123.558 317.804 123.558 309.619 124.472C291.382 126.572 274.216 133.219 260.155 143.622C246.095 154.025 235.732 167.749 230.295 183.165C227.823 190.19 226.422 197.472 226.131 204.82C226.09 205.841 226.063 206.875 226.063 207.909C226.088 230.212 236.198 251.596 254.174 267.367C272.151 283.138 296.524 292.008 321.947 292.03C323.988 292.03 326.028 291.97 328.042 291.862C332.769 291.602 337.466 291.031 342.096 290.156C364.204 285.985 383.92 275.094 397.763 259.406C411.605 243.719 418.684 224.245 417.748 204.423C416.813 184.601 407.923 165.706 392.649 151.077C377.375 136.448 356.699 127.025 334.275 124.472H334.274ZM351.958 285.277H351.944C344.222 287.588 336.185 288.991 328.042 289.446C326.028 289.567 323.987 289.627 321.946 289.627C297.252 289.6 273.578 280.982 256.117 265.663C238.655 250.343 228.832 229.573 228.802 207.909C228.802 206.875 228.829 205.841 228.871 204.82C229.812 183.706 240.027 163.731 257.375 149.075C274.724 134.419 297.862 126.218 321.946 126.19C344.014 126.191 365.364 133.066 382.193 145.588C399.022 158.111 410.237 175.468 413.841 194.569C417.444 213.669 413.201 233.271 401.868 249.883C390.535 266.495 372.848 279.038 351.958 285.277H351.958Z" fill="#3F3D56"/>
<path d="M323.316 130.997H320.577V147.822H323.316V130.997Z" fill="#3F3D56"/>
<path d="M260.926 152.674L258.989 154.374L272.549 166.27L274.486 164.571L260.926 152.674Z" fill="#3F3D56"/>
<path d="M234.281 206.707V209.11H253.458V206.707H234.281Z" fill="#3F3D56"/>
<path d="M258.989 261.443L260.926 263.143L274.486 251.246L272.549 249.547L258.989 261.443Z" fill="#3F3D56"/>
<path d="M369.407 164.571L371.344 166.27L384.904 154.374L382.967 152.674L369.407 164.571Z" fill="#3F3D56"/>
<path d="M390.435 206.707V209.11H409.612V206.707H390.435Z" fill="#3F3D56"/>
<path d="M371.344 249.547L369.407 251.246L382.967 263.143L384.904 261.443L371.344 249.547Z" fill="#3F3D56"/>
<path d="M323.316 267.995H320.577V284.82H323.316V267.995Z" fill="#3F3D56"/>
<path d="M326.056 203.102C324.87 202.322 323.428 201.9 321.947 201.9C320.465 201.9 319.023 202.322 317.837 203.102C317.026 203.642 316.357 204.331 315.879 205.12C315.272 206.137 315.009 207.284 315.122 208.427C315.235 209.57 315.718 210.661 316.515 211.571C317.312 212.481 318.39 213.171 319.62 213.561C320.85 213.95 322.181 214.023 323.457 213.77C324.732 213.517 325.899 212.949 326.818 212.133C327.737 211.317 328.371 210.287 328.644 209.165C328.918 208.043 328.819 206.876 328.36 205.801C327.902 204.727 327.102 203.79 326.056 203.102H326.056ZM321.947 211.514C320.858 211.511 319.814 211.13 319.044 210.455C318.274 209.779 317.84 208.864 317.837 207.909C317.843 207.179 318.095 206.468 318.563 205.866C318.965 205.356 319.509 204.945 320.144 204.674C320.779 204.402 321.484 204.28 322.189 204.317C322.894 204.354 323.576 204.55 324.169 204.887C324.763 205.223 325.247 205.688 325.576 206.237C325.904 206.785 326.066 207.399 326.045 208.018C326.024 208.638 325.822 209.242 325.457 209.773C325.092 210.303 324.577 210.742 323.962 211.047C323.347 211.352 322.653 211.513 321.947 211.514V211.514Z" fill="#3F3D56"/>
<path d="M334.275 103.357H309.619V124.988H334.275V103.357Z" fill="#3F3D56"/>
<path d="M321.947 106.962C340.103 106.962 354.821 102.389 354.821 96.7476C354.821 91.1062 340.103 86.5328 321.947 86.5328C303.79 86.5328 289.072 91.1062 289.072 96.7476C289.072 102.389 303.79 106.962 321.947 106.962Z" fill="#3F3D56"/>
<path d="M326.056 162.242H317.837V203.102H326.056V162.242Z" fill="#3F3D56"/>
<path d="M452.517 288.369H195V290.772H452.517V288.369Z" fill="#3F3D56"/>
<path d="M296.252 646.165C297.315 678.105 276.043 689.81 249.348 690.494C248.728 690.51 248.111 690.52 247.496 690.523C246.258 690.532 245.032 690.514 243.818 690.469C219.675 689.59 200.564 678.346 199.576 648.642C198.552 617.903 242.042 577.962 245.305 575.008L245.311 575.005C245.435 574.893 245.498 574.836 245.498 574.836C245.498 574.836 295.189 614.228 296.252 646.165Z" fill="#D0CDE1"/>
<path d="M248.293 708.641L265.251 686.517L248.328 711.021L248.363 713.511C247.125 713.519 245.899 713.501 244.685 713.457L245.526 681.455L245.503 681.208L245.534 681.161L245.615 678.137L227.044 654.482L245.593 675.874L245.659 676.513L246.294 652.334L230.254 627.81L246.34 648.087L246.172 597.996L246.172 597.829L246.178 597.993L247.242 637.471L261.861 621.435L247.29 640.872L247.609 662.5L261.062 641.392L247.659 665.679L247.836 677.705L267.399 648.303L247.896 681.9L248.293 708.641Z" fill="#3F3D56"/>
</g>
<defs>
<linearGradient id="paint0_linear" x1="700" y1="-250" x2="700" y2="1315" gradientUnits="userSpaceOnUse">
<stop stop-color="#0038FF"/>
<stop offset="0.828125" stop-color="#FF00D6" stop-opacity="0"/>
<stop offset="1" stop-color="#0038FF" stop-opacity="0"/>
</linearGradient>
<clipPath id="clip0">
<rect width="971" height="628" fill="white" transform="translate(267 116)"/>
</clipPath>
<clipPath id="clip1">
<rect width="910" height="689" fill="white" transform="translate(195 68)"/>
</clipPath>
</defs>
</svg>
