<?xml version="1.0" standalone="no"?>
<!DOCTYPE svg PUBLIC "-//W3C//DTD SVG 1.1//EN" "http://www.w3.org/Graphics/SVG/1.1/DTD/svg11.dtd" >
<svg>
<metadata>
Created by FontForge 20090914 at Fri Jan 26 20:20:59 2018
 By www-data
</metadata>
<defs>
<font id="Bettina" horiz-adv-x="175" >
  <font-face 
    font-family="Bettina"
    font-weight="400"
    font-stretch="normal"
    units-per-em="1000"
    panose-1="0 0 0 0 0 0 0 0 0 0"
    ascent="750"
    descent="-250"
    x-height="231.004"
    cap-height="1028.5"
    bbox="-1565 -1495 1926 1272.96"
    underline-thickness="50"
    underline-position="-50"
    unicode-range="U+000D-U+FB02"
  />
<missing-glyph horiz-adv-x="200" 
 />
    <glyph glyph-name="en" unicode="en" horiz-adv-x="384" 
d="M186 227c4.66699 8.66699 10.9951 8.68262 18.9951 0.015625c0 -18.667 -0.166992 -36.834 -0.5 -54.501s0.166992 -35.5 1.5 -53.5l19 41c2.66699 6 6.5 15.667 11.5 29s10.833 26.833 17.5 40.5s13.834 25.667 21.501 36s15.834 15.166 24.501 14.499
c9.33301 -1.33301 16.5 -6.83301 21.5 -16.5s8.66699 -21.667 11 -36s3.5 -30 3.5 -47s-0.333008 -33 -1 -48s-1.5 -28 -2.5 -39s-1.16699 -17.833 -0.5 -20.5c0 -4 2.33301 -1.83301 7 6.5s9.66699 18.666 15 30.999l15 35.5c4.66699 11.333 7.33398 17.666 8.00098 18.999
l4 8l3 9c4.66699 7.33301 8.33398 9.66602 11.001 6.99902s5.33398 -7.33398 8.00098 -14.001c-1.33301 -2.66699 -3.33301 -7.83398 -6 -15.501s-6 -16.334 -10 -26.001s-8.66699 -19.834 -14 -30.501s-11 -19.834 -17 -27.501s-12 -13.5 -18 -17.5s-12 -4.33301 -18 -1
c-4.66699 2.66699 -8.16699 9.33398 -10.5 20.001s-4 23.5 -5 38.5s-1.66699 30.833 -2 47.5s-0.666016 32.167 -0.999023 46.5s-0.833008 26.166 -1.5 35.499s-1.66699 14.333 -3 15c-5.33301 1.33301 -10.5 -1.83398 -15.5 -9.50098s-10.167 -17.5 -15.5 -29.5
s-10.666 -25.333 -15.999 -40s-10.5 -28.167 -15.5 -40.5s-10 -22.5 -15 -30.5s-9.83301 -11.667 -14.5 -11c-10 1.33301 -17.167 7.83301 -21.5 19.5s-6.16602 27.167 -5.49902 46.5c-8.66699 -14.667 -18.5 -28.834 -29.5 -42.501s-22.833 -24.834 -35.5 -33.501
s-25.667 -13.667 -39 -15s-26.333 3 -39 13c-14.667 11.333 -25.334 25.166 -32.001 41.499s-8.83398 33 -6.50098 50s9.5 33.167 21.5 48.5s29 27 51 35c13.333 4.66699 23.166 3.5 29.499 -3.5s9.16602 -15.833 8.49902 -26.5s-4.16699 -20.834 -10.5 -30.501
s-15.5 -14.5 -27.5 -14.5c-14 0 -24.667 6 -32 18c-6 -16.667 -7.66699 -35 -5 -55s10 -35.333 22 -46c13.333 -11.333 26.833 -13.833 40.5 -7.5s26.334 16.666 38.001 30.999s22 30.5 31 48.5s16.167 33 21.5 45c0 2.66699 0.333008 4.66699 1 6zM68.9951 207.016
c4.66699 0 8.33105 1.99902 10.998 5.99902s4.5 8.33301 5.5 13s0.833008 9 -0.5 13s-4 5.66699 -8 5c-11.333 -0.666992 -20.666 -6 -27.999 -16c0.666992 -5.33301 2.83398 -10.166 6.50098 -14.499s8.16699 -6.5 13.5 -6.5z" />
    <glyph glyph-name="es" unicode="es" horiz-adv-x="293" 
d="M54 104c13.333 -11.333 26.5039 -16.001 39.5039 -14.001s25 7.66699 36 17s20.833 20.833 29.5 34.5s15.667 26.5 21 38.5c-5.33301 7.33301 -9.83301 14.5 -13.5 21.5s-6.16699 13.833 -7.5 20.5c-2 9.33301 -1 18.333 3 27s9.5 15.334 16.5 20.001s14.5 6.5 22.5 5.5
s14.667 -6.83301 20 -17.5s7 -23.334 5 -38.001s-7 -26 -15 -34c5.33301 -7.33301 11 -14.666 17 -21.999s11 -14.333 15 -21c11.333 6 21.666 12.167 30.999 18.5s15.666 13.5 18.999 21.5s6.33301 10.333 9 7s5.66699 -7.66602 9 -12.999
c0.666992 -8.66699 -5.33301 -17.5 -18 -26.5s-27 -18.167 -43 -27.5c2 -20 -1.66699 -36.5 -11 -49.5s-20 -22.167 -32 -27.5s-23.167 -6.66602 -33.5 -3.99902s-15.5 9 -15.5 19c0 15.333 5.33301 28.166 16 38.499s23 19.5 37 27.5c-2 6 -4.66699 12 -8 18
s-6.66602 11.667 -9.99902 17c-7.33301 -14.667 -16.666 -29.167 -27.999 -43.5s-24 -25.666 -38 -33.999s-28.833 -12.833 -44.5 -13.5s-31.5 5 -47.5 17c-14.667 11.333 -25.334 25.166 -32.001 41.499s-8.83398 33 -6.50098 50s9.5 33.167 21.5 48.5s29 27 51 35
c13.333 4.66699 23.166 3.5 29.499 -3.5s9.16602 -15.833 8.49902 -26.5s-4.16699 -20.834 -10.5 -30.501s-15.5 -14.5 -27.5 -14.5c-14 0 -24.667 6 -32 18c-6 -16.667 -7.66699 -35 -5 -55s10 -35.333 22 -46zM69.0039 206.999c4.66699 0 8.33105 1.99902 10.998 5.99902
s4.5 8.33301 5.5 13s0.833008 9 -0.5 13s-4 5.66699 -8 5c-11.333 -0.666992 -20.666 -6 -27.999 -16c0.666992 -5.33301 2.83398 -10.166 6.50098 -14.499s8.16699 -6.5 13.5 -6.5zM189.001 250.998c-6.66699 -3.33301 -8.50098 -9.5 -5.50098 -18.5
s8.16699 -19.167 15.5 -30.5c3.33301 4 6 9.33301 8 16s2.83301 13 2.5 19s-2.16602 10.667 -5.49902 14s-8.33301 3.33301 -15 0zM190 81.998c-9.33301 -10 -12.999 -16.832 -10.999 -20.499s6 -4.66699 12 -3s12.167 6 18.5 13s9.16602 16.167 8.49902 27.5
c0 0.666992 -0.166992 1.16699 -0.5 1.5s-0.5 1.16602 -0.5 2.49902c-5.33301 -3.33301 -10.333 -6.83301 -15 -10.5s-8.66699 -7.16699 -12 -10.5z" />
    <glyph glyph-name="aa" unicode="aa" horiz-adv-x="499" 
d="M177 201c0 -6 -0.668945 -13.834 -2.00195 -23.501s-2.16602 -19.334 -2.49902 -29.001s0.5 -18.667 2.5 -27s6 -14.166 12 -17.499c4.66699 -2.66699 9.66699 -2.33398 15 0.999023s10.5 8.33301 15.5 15s9.5 14.167 13.5 22.5l11 22.5
c4.66699 15.333 11.667 30.166 21 44.499s20.166 25.833 32.499 34.5s25.666 13.834 39.999 15.501s29.166 -2.5 44.499 -12.5c10.667 14.667 20.334 21.334 29.001 20.001s14.667 -16.666 18 -45.999c0.666992 -6 0.333984 -14.833 -0.999023 -26.5
s-2.16602 -23.667 -2.49902 -36s0.333984 -23.666 2.00098 -33.999s5.5 -17.166 11.5 -20.499s12.333 -2 19 4s13 13.667 19 23s11.167 19 15.5 29s7.16602 17 8.49902 21c3.33301 2.66699 6.33301 4 9 4s6 -3.66699 10 -11c-16 -38.667 -32.333 -64.334 -49 -77.001
s-31.334 -15.167 -44.001 -7.5s-22.167 24 -28.5 49s-7.5 55.833 -3.5 92.5c-8 -12.667 -16.667 -29.167 -26 -49.5s-19.166 -39.666 -29.499 -57.999s-20.666 -33.666 -30.999 -45.999s-20.5 -16.833 -30.5 -13.5c-12 4 -21.167 10.667 -27.5 20s-10.166 20 -11.499 32
c-14 -20 -27.333 -32.167 -40 -36.5s-23.667 -2 -33 7s-16.166 24.167 -20.499 45.5s-4.5 47.666 -0.5 78.999l-18 -29c-3.33301 -5.33301 -8.5 -14.166 -15.5 -26.499s-15 -24.333 -24 -36s-18.667 -21.334 -29 -29.001s-20.5 -9.83398 -30.5 -6.50098
c-16 5.33301 -26.833 14.333 -32.5 27s-7.5 26.167 -5.5 40.5s7.33301 28.5 16 42.5s19.667 25.5 33 34.5s28.166 13.833 44.499 14.5s33.166 -5 50.499 -17c4.66699 6 9.66699 10.833 15 14.5s10.166 5 14.499 4s7.83301 -4.83301 10.5 -11.5
s4.33398 -17.334 5.00098 -32.001zM285.998 80.999c2 -2 5.66602 2.16797 10.999 12.501l19.5 39.5l25 51c9 18 18.167 34 27.5 48c-11.333 8 -22.166 10.667 -32.499 8s-19.5 -8.83398 -27.5 -18.501s-14.833 -21.5 -20.5 -35.5s-9.66699 -27.833 -12 -41.5
s-2.83301 -26.5 -1.5 -38.5s5 -20.333 11 -25zM35.9971 101c4 -2.66699 9.66504 0.000976562 16.998 8.00098s14.833 17.667 22.5 29s14.5 22.333 20.5 33l12 21c4 7.33301 8 13.666 12 18.999c-11.333 8.66699 -22.333 12.667 -33 12s-20.167 -4.5 -28.5 -11.5
s-15.5 -16 -21.5 -27s-10.167 -22 -12.5 -33s-2.66602 -21.167 -0.999023 -30.5s5.83398 -16 12.501 -20z" />
    <glyph glyph-name="rr" unicode="rr" horiz-adv-x="260" 
d="M6 243c6.66699 -0.666992 11.6738 -3.16309 15.0068 -7.49609s5.16602 -9.5 5.49902 -15.5s-0.5 -12.333 -2.5 -19s-4.33301 -12.667 -7 -18c15.333 -2.66699 26.5 -6.83398 33.5 -12.501s11.333 -11.834 13 -18.501s1.66699 -13.834 0 -21.501
s-3.66699 -15.167 -6 -22.5s-3.83301 -14.166 -4.5 -20.499s1 -11.5 5 -15.5c5.33301 -2 11 0.333008 17 7s12 15.334 18 26.001s11.5 22 16.5 34l12.5 30c-7.33301 5.33301 -12.333 13.833 -15 25.5s-3.33398 23.5 -2.00098 35.5s4.83301 22.333 10.5 31
s13.167 12.667 22.5 12c7.33301 -0.666992 12.5 -4.33398 15.5 -11.001s4.5 -14.667 4.5 -24s-1.16699 -19 -3.5 -29s-4.83301 -18.667 -7.5 -26c16 -3.33301 27.5 -8.33301 34.5 -15s11.5 -14.667 13.5 -24s2.16699 -19 0.5 -29s-3.5 -19.667 -5.5 -29s-3.5 -18 -4.5 -26
s0.5 -14 4.5 -18c6 -2.66699 12.667 2.33301 20 15s14.333 27.5 21 44.5s12.667 33.667 18 50s9 26.5 11 30.5c3.33301 4.66699 6.5 6.66699 9.5 6s5.16699 -5.33398 6.5 -14.001l-5 -14c-2.66699 -6.66699 -6.83398 -18.5 -12.501 -35.5s-12.334 -33.667 -20.001 -50
s-16.334 -30 -26.001 -41s-19.5 -14.167 -29.5 -9.5c-14 6.66699 -22.167 16.834 -24.5 30.501s-2.16602 27.5 0.500977 41.5s6 26.667 10 38s5 18 3 20c-4.66699 3.33301 -9.83398 5.5 -15.501 6.5s-11.167 2.16699 -16.5 3.5l-1 -4l-12.5 -30.5
c-5.66699 -13.667 -12.334 -26.834 -20.001 -39.501s-16.334 -23 -26.001 -31s-19.5 -9.66699 -29.5 -5c-14 6.66699 -22.167 15.334 -24.5 26.001s-2.16602 21.167 0.500977 31.5s6 19.5 10 27.5s5 13 3 15c-6 5.33301 -13 8.16602 -21 8.49902s-15.667 1.83301 -23 4.5
c-8.66699 3.33301 -14.834 9.33301 -18.501 18s-5 17.5 -4 26.5s4.16699 16.667 9.5 23s13 9.16602 23 8.49902zM136.007 253.004c-2 0 -3.66699 -2.33398 -5 -7.00098s-2.33301 -10.167 -3 -16.5s-0.833984 -12.666 -0.500977 -18.999s1.5 -10.5 3.5 -12.5
c1.33301 5.33301 2.66602 11.166 3.99902 17.499s2.33301 12.333 3 18s0.833984 10.334 0.500977 14.001s-1.16602 5.5 -2.49902 5.5zM4.00684 223.003c-3.33301 0.666992 -5.33203 -2.33203 -5.99902 -8.99902s0 -13.334 2 -20.001
c3.33301 6.66699 5.66602 13.167 6.99902 19.5s0.333008 9.5 -3 9.5z" />
    <glyph glyph-name="ss" unicode="ss" horiz-adv-x="226" 
d="M55 154c13.333 4 25.5039 7.83105 36.5039 11.498s18.167 8.5 21.5 14.5c-5.33301 7.33301 -9.83301 14.5 -13.5 21.5s-6.16699 13.833 -7.5 20.5c-2 9.33301 -1 18.333 3 27s9.5 15.334 16.5 20.001s14.5 6.5 22.5 5.5s14.667 -6.83301 20 -17.5s7 -23.334 5 -38.001
s-7 -26 -15 -34c5.33301 -7.33301 11 -14.666 17 -21.999s11 -14.333 15 -21c11.333 6 21.666 12.167 30.999 18.5s15.666 13.5 18.999 21.5s6.33301 10.333 9 7s5.66699 -7.66602 9 -12.999c0.666992 -8.66699 -5.33301 -17.5 -18 -26.5s-27 -18.167 -43 -27.5
c2 -20 -1.66699 -36.5 -11 -49.5s-20 -22.167 -32 -27.5s-23.167 -6.66602 -33.5 -3.99902s-15.5 9 -15.5 19c0 15.333 5.33301 28.166 16 38.499s23 19.5 37 27.5c-2.66699 6.66699 -5.66699 13 -9 19s-7 12 -11 18c-6 -7.33301 -14.333 -12.666 -25 -15.999l-33 -10
c1.33301 -2 2.66602 -5 3.99902 -9c3.33301 -21.333 0.5 -37.333 -8.5 -48s-19.667 -17 -32 -19s-23.833 -0.333008 -34.5 5s-16 13.333 -16 24c0 13.333 4.5 24.166 13.5 32.499s20.167 15.166 33.5 20.499c-4 7.33301 -8.5 13.833 -13.5 19.5s-9.66699 11.334 -14 17.001
s-7.83301 11.167 -10.5 16.5s-3.33398 11 -2.00098 17c1.33301 8.66699 5 15.834 11 21.501s12.333 9.16699 19 10.5s13 0.666016 19 -2.00098s10 -8 12 -16v1c2 -8 1.33301 -16.167 -2 -24.5s-8.33301 -14.833 -15 -19.5c4 -5.33301 8.33301 -10.333 13 -15
s8.66699 -9.66699 12 -15zM11.0039 111.998c-9.33301 -10 -13.1689 -17.832 -11.502 -23.499s5.33398 -8.83398 11.001 -9.50098s11.5 1.33301 17.5 6s8.66699 12.667 8 24l-3 17c-9.33301 -4 -16.666 -8.66699 -21.999 -14zM122.001 250.999
c-6.66699 -3.33301 -8.50098 -9.5 -5.50098 -18.5s8.16699 -19.167 15.5 -30.5c3.33301 4 6 9.33301 8 16s2.83301 13 2.5 19s-2.16602 10.667 -5.49902 14s-8.33301 3.33301 -15 0zM123 81.999c-9.33301 -10 -12.999 -16.832 -10.999 -20.499s6 -4.66699 12 -3
s12.167 6 18.5 13s9.16602 16.167 8.49902 27.5c0 0.666992 -0.166992 1.16699 -0.5 1.5s-0.5 1.16602 -0.5 2.49902c-5.33301 -3.33301 -10.333 -6.83301 -15 -10.5s-8.66699 -7.16699 -12 -10.5zM28.001 222l-2.99805 2c-10.667 0 -15.834 -2.5 -15.501 -7.5
s3.16602 -11.167 8.49902 -18.5c4 2 7 5.5 9 10.5s2.33301 9.5 1 13.5z" />
    <glyph glyph-name="zz" unicode="&#x7a;&#x7a;" horiz-adv-x="332" 
d="M59 110c14 13.333 28.667 25.332 44 35.999s29.833 19.5 43.5 26.5s25.5 12.5 35.5 16.5s17 6.33301 21 7c6 12 12.667 23.167 20 33.5s14.5 18.833 21.5 25.5s13.833 10.667 20.5 12s12.667 -1 18 -7c8 -10 11.5 -19.167 10.5 -27.5s-5 -15.833 -12 -22.5
s-16 -12.667 -27 -18s-21.833 -9.66602 -32.5 -12.999l-30 -61c24 -0.666992 43 -9.66699 57 -27c22.667 17.333 40.167 33 52.5 47s22.5 28.667 30.5 44c4 5.33301 6.83301 7 8.5 5s3.5 -6.33301 5.5 -13c-8 -19.333 -19.667 -37.666 -35 -54.999l-48 -52
c6.66699 -16 9.83398 -33.667 9.50098 -53s-3.83301 -37.333 -10.5 -54s-15.834 -30.167 -27.501 -40.5s-25.5 -14.5 -41.5 -12.5c-10 1.33301 -17.667 5.16602 -23 11.499s-8 14.5 -8 24.5s2 20.833 6 32.5s9.16699 23.167 15.5 34.5s13.5 22.333 21.5 33
s16 20.334 24 29.001c-4 8.66699 -9 14 -15 16s-12 2.66699 -18 2s-11.167 -1.33398 -15.5 -2.00098s-6.83301 0.666016 -7.5 3.99902c-1.33301 7.33301 -0.166016 18.833 3.50098 34.5s9.16699 32.167 16.5 49.5c-20.667 -5.33301 -41 -15.166 -61 -29.499
s-38.667 -30.5 -56 -48.5c14 -12 22.5 -27.5 25.5 -46.5s1.83301 -37.333 -3.5 -55s-14.333 -32.5 -27 -44.5s-28.334 -17 -47.001 -15c-10 1.33301 -17.667 5.16602 -23 11.499s-8 14.5 -8 24.5c0 23.333 4.66699 44.833 14 64.5s21 37.834 35 54.501
c-10 4 -22.667 4 -38 0c-2 8 -1 19.167 3 33.5s10.333 28.833 19 43.5c-12 0 -20.667 0.666992 -26 2c-6 6 -6 12.333 -0 19c5.33301 0 11.5 0.166992 18.5 0.5s14.167 0.833008 21.5 1.5c6 8.66699 12.333 16.5 19 23.5s13.334 12.5 20.001 16.5s13 6 19 6
s11.333 -2.66699 16 -8c8 -9.33301 11.5 -17.5 10.5 -24.5s-4.83301 -12.833 -11.5 -17.5s-15.334 -8.33398 -26.001 -11.001s-21.334 -4.66699 -32.001 -6l-20.5 -32.5c-6.33301 -10.333 -10.166 -17.166 -11.499 -20.499c15.333 -1.33301 27.333 -4 36 -8zM26 -44.001
c8 -2 15.668 1.5 23.001 10.5s12.833 20.167 16.5 33.5s5.16699 27.333 4.5 42s-4.33398 27 -11.001 37c-14 -18 -25.167 -36.333 -33.5 -55s-12.5 -35.667 -12.5 -51c0 -9.33301 4.33301 -15 13 -17zM195.001 -74.001c6.66699 -1.33301 13 1.50098 19 8.50098
s11.167 16.167 15.5 27.5s7.5 24.166 9.5 38.499s2 27.833 0 40.5c-16 -16.667 -29.5 -33 -40.5 -49s-16.5 -32.333 -16.5 -49c0 -9.33301 4.33301 -15 13 -17zM270.001 246c-3.33301 3.33301 -8.33301 0.333008 -15 -9s-13.667 -20.666 -21 -33.999
c13.333 4.66699 24.333 9.66699 33 15s9.66699 14.666 3 27.999zM101.001 216c-2.66699 2 -6.49902 1 -11.499 -3s-10.5 -9.66699 -16.5 -17c9.33301 2 16.666 4.33301 21.999 7c2.66699 1.33301 5 3 7 5s1.66699 4.66699 -1 8z" />
    <glyph glyph-name="xx" unicode="xx" horiz-adv-x="311" 
d="M162 269c4 7.33301 10.6689 8.33496 20.002 3.00195l8 -33c4 -16.667 8.66699 -34.667 14 -54l23.5 29c7.66699 9.33301 14.834 17.666 21.501 24.999c10.667 2 15.667 -2.33301 15 -13l-25 -29.5c-9.33301 -11 -18.666 -22.833 -27.999 -35.5
c7.33301 -24 15 -45.333 23 -64s15 -28 21 -28c4 0 8.83301 5.16699 14.5 15.5s11.334 22.166 17.001 35.499s10.834 26.166 15.501 38.499l9 23.5c6.66699 6 13 4 19 -6l-12 -28c-6 -14 -12.833 -28.333 -20.5 -43s-15.334 -27.667 -23.001 -39s-14.167 -17 -19.5 -17
c-10.667 0 -21.667 8.16699 -33 24.5s-21.666 36.166 -30.999 59.499l-14.5 -24.5c-4.33301 -7.66699 -7.5 -15.167 -9.5 -22.5c-10.667 -4.66699 -17 -2.66699 -19 6c3.33301 9.33301 8 19.333 14 30s13 21.667 21 33c-4.66699 11.333 -8.5 22.833 -11.5 34.5
s-5.5 22.5 -7.5 32.5l-20.5 -45l-22.5 -47c-7.33301 -14.667 -14.333 -26.834 -21 -36.501s-12 -14.5 -16 -14.5c-10.667 0 -21.334 5.33301 -32.001 16s-20.667 23.667 -30 39c-12 -16.667 -20.667 -32.667 -26 -48c-10.667 -4.66699 -17 -2.66699 -19 6
c7.33301 18.667 18.666 39.334 33.999 62.001c-8 16.667 -14.167 33 -18.5 49s-4.83301 28 -1.5 36c4 7.33301 10.667 8.33301 20 3c1.33301 -5.33301 3.66602 -13.5 6.99902 -24.5s7.66602 -23.167 12.999 -36.5l24.5 31.5c7.66699 9.66699 15.167 18.5 22.5 26.5
c10.667 2 15.667 -2.33301 15 -13l-25 -30l-28 -35c7.33301 -15.333 14.666 -28.833 21.999 -40.5s13.666 -17.5 18.999 -17.5c4 0 10.167 7.83301 18.5 23.5s16.833 33.334 25.5 53.001s16.5 38.334 23.5 56.001l12.5 31.5c0 0.666992 0.166992 1 0.5 1s0.5 0.333008 0.5 1
z" />
    <glyph glyph-name="an" unicode="an" horiz-adv-x="451" 
d="M253 227c4.66699 8.66699 10.9961 8.68066 18.9961 0.0136719c0 -18.667 -0.166992 -36.834 -0.5 -54.501s0.166992 -35.5 1.5 -53.5l19 41c2.66699 6 6.5 15.667 11.5 29s10.833 26.833 17.5 40.5s13.834 25.667 21.501 36s15.834 15.166 24.501 14.499
c9.33301 -1.33301 16.5 -6.83301 21.5 -16.5s8.66699 -21.667 11 -36s3.5 -30 3.5 -47s-0.333008 -33 -1 -48s-1.5 -28 -2.5 -39s-1.16699 -17.833 -0.5 -20.5c0 -4 2.33301 -1.83301 7 6.5s9.66699 18.666 15 30.999l15 35.5c4.66699 11.333 7.33398 17.666 8.00098 18.999
l4 8l3 9c4.66699 7.33301 8.33398 9.66602 11.001 6.99902s5.33398 -7.33398 8.00098 -14.001c-1.33301 -2.66699 -3.33301 -7.83398 -6 -15.501s-6 -16.334 -10 -26.001s-8.66699 -19.834 -14 -30.501s-11 -19.834 -17 -27.501s-12 -13.5 -18 -17.5s-12 -4.33301 -18 -1
c-4.66699 2.66699 -8.16699 9.33398 -10.5 20.001s-4 23.5 -5 38.5s-1.66699 30.833 -2 47.5s-0.666016 32.167 -0.999023 46.5s-0.833008 26.166 -1.5 35.499s-1.66699 14.333 -3 15c-5.33301 1.33301 -10.5 -1.83398 -15.5 -9.50098s-10.167 -17.5 -15.5 -29.5
s-10.666 -25.333 -15.999 -40s-10.5 -28.167 -15.5 -40.5s-10 -22.5 -15 -30.5s-9.83301 -11.667 -14.5 -11c-10 1.33301 -17.167 7.83301 -21.5 19.5s-6.16602 27.5 -5.49902 47.5c-14.667 -25.333 -28.834 -43.166 -42.501 -53.499s-25.5 -13.5 -35.5 -9.5
s-17.5 15 -22.5 33s-5.5 43 -1.5 75l-18 -29c-3.33301 -5.33301 -8.5 -14.166 -15.5 -26.499s-15 -24.333 -24 -36s-18.667 -21.334 -29 -29.001s-20.5 -9.83398 -30.5 -6.50098c-16 5.33301 -26.833 14.333 -32.5 27s-7.5 26.167 -5.5 40.5s7.33301 28.5 16 42.5
s19.667 25.5 33 34.5s28.166 13.833 44.499 14.5s33.166 -5 50.499 -17c4.66699 6 9.66699 10.833 15 14.5s10.166 5 14.499 4s7.83301 -4.83301 10.5 -11.5s4.33398 -17.334 5.00098 -32.001c0 -6 -0.5 -13.167 -1.5 -21.5s-1.5 -16.333 -1.5 -24s0.5 -14.334 1.5 -20.001
s3.5 -8.83398 7.5 -9.50098c2.66699 -0.666992 7.5 2.83301 14.5 10.5s14.333 17 22 28s14.667 22.333 21 34s10.166 20.5 11.499 26.5h1v2zM35.9961 101.014c4 -2.66699 9.66504 0.000976562 16.998 8.00098s14.833 17.667 22.5 29s14.5 22.333 20.5 33l12 21
c4 7.33301 8 13.666 12 18.999c-11.333 8.66699 -22.333 12.667 -33 12s-20.167 -4.5 -28.5 -11.5s-15.5 -16 -21.5 -27s-10.167 -22 -12.5 -33s-2.66602 -21.167 -0.999023 -30.5s5.83398 -16 12.501 -20z" />
    <glyph glyph-name="as" unicode="as" horiz-adv-x="361" 
d="M177 201c0 -6 -0.666016 -13.832 -1.99902 -23.499s-2.16602 -19.334 -2.49902 -29.001s0.5 -18.667 2.5 -27s6 -14.166 12 -17.499s12.333 -2 19 4s13 13.667 19 23s11.167 19 15.5 29s7.16602 17 8.49902 21l-9 17.5c-2.66699 5 -4.33398 9.83301 -5.00098 14.5
c-3.33301 18.667 -2.33301 32.834 3 42.501s12 16 20 19s15.833 2.83301 23.5 -0.5s12.5 -9 14.5 -17v1c0.666992 -4.66699 0.666992 -10.167 0 -16.5s-2 -13 -4 -20s-4.5 -13.667 -7.5 -20s-6.5 -11.5 -10.5 -15.5l18 -38c15.333 6 30.333 11.167 45 15.5
s23.334 10.5 26.001 18.5c3.33301 8 6.33301 10.333 9 7s5.66699 -7.66602 9 -12.999c-2.66699 -7.33301 -6.83398 -13.333 -12.501 -18s-12.167 -8.5 -19.5 -11.5s-15.166 -5.83301 -23.499 -8.5l-24.5 -8c4.66699 -9.33301 8.5 -17.333 11.5 -24
s4.83301 -11.334 5.5 -14.001c4 -21.333 2 -35.5 -6 -42.5s-17.5 -9.16699 -28.5 -6.5s-21.333 8.5 -31 17.5s-14.5 18.833 -14.5 29.5c0 12 3.33301 22 10 30s15.334 14.667 26.001 20l-12 21c-16 -34.667 -32 -58.167 -48 -70.5s-30 -15.5 -42 -9.5
s-20.833 20.167 -26.5 42.5s-6.5 51.5 -2.5 87.5l-18 -29c-3.33301 -5.33301 -8.5 -14.166 -15.5 -26.499s-15 -24.333 -24 -36s-18.667 -21.334 -29 -29.001s-20.5 -9.83398 -30.5 -6.50098c-16 5.33301 -26.833 14.333 -32.5 27s-7.5 26.167 -5.5 40.5
s7.33301 28.5 16 42.5s19.667 25.5 33 34.5s28.166 13.833 44.499 14.5s33.166 -5 50.499 -17c4.66699 6 9.66699 10.833 15 14.5s10.166 5 14.499 4s7.83301 -4.83301 10.5 -11.5s4.33398 -17.334 5.00098 -32.001zM36.001 101.001
c4 -2.66699 9.66504 0.000976562 16.998 8.00098s14.833 17.667 22.5 29s14.5 22.333 20.5 33l12 21c4 7.33301 8 13.666 12 18.999c-11.333 8.66699 -22.333 12.667 -33 12s-20.167 -4.5 -28.5 -11.5s-15.5 -16 -21.5 -27s-10.167 -22 -12.5 -33
s-2.66602 -21.167 -0.999023 -30.5s5.83398 -16 12.501 -20zM269.999 112.002c-9.33301 -10 -13.1689 -19.501 -11.502 -28.501s5.33398 -15.667 11.001 -20s11.5 -5.66602 17.5 -3.99902s8.66699 8.16699 8 19.5c-0.666992 7.33301 -2 14.5 -4 21.5
s-4.66699 14.167 -8 21.5c-2.66699 -1.33301 -5.16699 -2.83301 -7.5 -4.5s-4.16602 -3.5 -5.49902 -5.5zM276.996 252.001c-6.66699 2.66699 -11.5 3.16895 -14.5 1.50195s-4.66699 -4.83398 -5 -9.50098s0.5 -10.5 2.5 -17.5s4.66699 -14.833 8 -23.5
c2 3.33301 4 7.66602 6 12.999s3.5 10.5 4.5 15.5s1.5 9.5 1.5 13.5s-1 6.33301 -3 7z" />
    <glyph glyph-name="ax" unicode="ax" horiz-adv-x="408" 
d="M259 269c4 7.33301 10.6631 8.33691 19.9961 3.00391l8 -33c4 -16.667 8.66699 -34.667 14 -54l23.5 29c7.66699 9.33301 14.834 17.666 21.501 24.999c10.667 2 15.667 -2.33301 15 -13l-25 -29.5c-9.33301 -11 -18.666 -22.833 -27.999 -35.5
c7.33301 -24 15 -45.333 23 -64s15 -28 21 -28c4 0 8.83301 5.16699 14.5 15.5s11.334 22.166 17.001 35.499s10.834 26.166 15.501 38.499l9 23.5c6.66699 6 13 4 19 -6l-12 -28c-6 -14 -12.833 -28.333 -20.5 -43s-15.334 -27.667 -23.001 -39s-14.167 -17 -19.5 -17
c-10.667 0 -21.667 8.16699 -33 24.5s-21.666 36.166 -30.999 59.499l-14.5 -24.5c-4.33301 -7.66699 -7.5 -15.167 -9.5 -22.5c-10.667 -4.66699 -17 -2.66699 -19 6c3.33301 9.33301 8 19.333 14 30s13 21.667 21 33c-4 11.333 -7.5 22.333 -10.5 33s-5.5 20.667 -7.5 30
l-17.5 -53c-5.66699 -17.333 -11.667 -32.666 -18 -45.999s-13.5 -24 -21.5 -32s-17.333 -11.667 -28 -11c-6 0 -11.5 4 -16.5 12s-9.16699 18.167 -12.5 30.5s-5.5 26.5 -6.5 42.5s-0.5 32.667 1.5 50l-18 -29c-3.33301 -5.33301 -8.5 -14.166 -15.5 -26.499
s-15 -24.333 -24 -36s-18.667 -21.334 -29 -29.001s-20.5 -9.83398 -30.5 -6.50098c-16 5.33301 -26.833 14.333 -32.5 27s-7.5 26.167 -5.5 40.5s7.33301 28.5 16 42.5s19.667 25.5 33 34.5s28.166 13.833 44.499 14.5s33.166 -5 50.499 -17
c4.66699 6 9.66699 10.833 15 14.5s10.166 5 14.499 4s7.83301 -4.83301 10.5 -11.5s4.33398 -17.334 5.00098 -32.001c0 -6 -0.666992 -13.833 -2 -23.5s-2.16602 -19.334 -2.49902 -29.001s0.5 -18.667 2.5 -27s6 -14.166 12 -17.499c4 -2.66699 8.5 -0.666992 13.5 6
s10 15.5 15 26.5s9.83301 23.5 14.5 37.5s8.83398 27.333 12.501 40l9.5 33.5c2.66699 9.66699 4.66699 15.834 6 18.501c0 1.33301 0.333008 2.33301 1 3zM35.9961 101.004c4 -2.66699 9.66504 0.000976562 16.998 8.00098s14.833 17.667 22.5 29s14.5 22.333 20.5 33
l12 21c4 7.33301 8 13.666 12 18.999c-11.333 8.66699 -22.333 12.667 -33 12s-20.167 -4.5 -28.5 -11.5s-15.5 -16 -21.5 -27s-10.167 -22 -12.5 -33s-2.66602 -21.167 -0.999023 -30.5s5.83398 -16 12.501 -20z" />
    <glyph glyph-name="ex" unicode="ex" horiz-adv-x="346" 
d="M198 269c4 7.33301 10.6641 8.33691 19.9971 3.00391l8 -33c4 -16.667 8.66699 -34.667 14 -54l23.5 29c7.66699 9.33301 14.834 17.666 21.501 24.999c10.667 2 15.667 -2.33301 15 -13l-25 -29.5c-9.33301 -11 -18.666 -22.833 -27.999 -35.5
c7.33301 -24 15 -45.333 23 -64s15 -28 21 -28c4 0 8.83301 5.16699 14.5 15.5s11.334 22.166 17.001 35.499s10.834 26.166 15.501 38.499l9 23.5c6.66699 6 13 4 19 -6l-12 -28c-6 -14 -12.833 -28.333 -20.5 -43s-15.334 -27.667 -23.001 -39s-14.167 -17 -19.5 -17
c-10.667 0 -21.667 8.16699 -33 24.5s-21.666 36.166 -30.999 59.499l-14.5 -24.5c-4.33301 -7.66699 -7.5 -15.167 -9.5 -22.5c-10.667 -4.66699 -17 -2.66699 -19 6c3.33301 9.33301 8 19.333 14 30s13 21.667 21 33c-4.66699 12 -8.5 24 -11.5 36s-5.5 23 -7.5 33
c-8 -17.333 -17.833 -36.333 -29.5 -57s-24.667 -38.667 -39 -54s-29.666 -26.166 -45.999 -32.499s-33.166 -4.16602 -50.499 6.50098c-15.333 10 -26.333 23.167 -33 39.5s-8.83398 33.166 -6.50098 50.499s9.66602 33.833 21.999 49.5s29.5 27.5 51.5 35.5
c13.333 4.66699 23.166 3.5 29.499 -3.5s9.16602 -15.833 8.49902 -26.5s-4.16699 -20.834 -10.5 -30.501s-15.5 -14.5 -27.5 -14.5c-14.667 0 -25.667 6 -33 18c-6 -17.333 -7.66699 -36 -5 -56s10.334 -35 23.001 -45c11.333 -9.33301 24.166 -8.5 38.499 2.5
s28.333 26.167 42 45.5s26 39.666 37 60.999s18.833 38 23.5 50c0.666992 0.666992 1.33398 1 2.00098 1c0 2.66699 0.333008 4.33398 1 5.00098zM68.9971 207.004c4.66699 0 8.33105 1.99902 10.998 5.99902s4.5 8.33301 5.5 13s0.833008 9 -0.5 13s-4 5.66699 -8 5
c-11.333 -0.666992 -20.666 -6 -27.999 -16c0.666992 -5.33301 2.83398 -10.166 6.50098 -14.499s8.16699 -6.5 13.5 -6.5z" />
    <glyph glyph-name="gg" unicode="gg" horiz-adv-x="495" 
d="M132 222c5.33301 4.66699 10.0039 5.16699 14.0039 1.5s7 -8.16699 9 -13.5c7.33301 -16 13 -36.5 17 -61.5s6.33301 -52.167 7 -81.5c24.667 30 45.334 63 62.001 99c6 16.667 14.167 32.667 24.5 48s21.5 27.5 33.5 36.5s24.5 13.5 37.5 13.5s25.167 -6.66699 36.5 -20
l7 8c5.33301 4.66699 10 5.16699 14 1.5s7 -8.16699 9 -13.5c8 -17.333 14 -41.333 18 -72s6 -64 6 -100c29.333 34.667 52 72.334 68 113.001c5.33301 6.66699 11.666 4.33398 18.999 -6.99902c-20 -50.667 -49 -96.334 -87 -137.001
c-1.33301 -34.667 -4.5 -69.334 -9.5 -104.001s-12.167 -65.834 -21.5 -93.501s-20.666 -50.167 -33.999 -67.5s-29 -26 -47 -26c-15.333 0 -27.833 4.5 -37.5 13.5s-14.5 21.167 -14.5 36.5c0 16 4.66699 35.167 14 57.5s20.666 44.833 33.999 67.5
s27.333 43.834 42 63.501s27.667 34.834 39 45.501l2 2c0.666992 22.667 1 44.5 1 65.5s-0.5 40.333 -1.5 58s-2.33301 33 -4 46s-3.5 22.5 -5.5 28.5l-27.5 -59.5c-10.333 -23 -21.333 -44.167 -33 -63.5s-23.5 -34.333 -35.5 -45s-23.667 -12.334 -35 -5.00098
c-8 4 -13.833 10 -17.5 18s-5.83398 17 -6.50098 27c-14 -22.667 -30.667 -44.334 -50 -65.001c-0.666992 -31.333 -3.5 -62.5 -8.5 -93.5s-12 -58.833 -21 -83.5s-20.333 -44.834 -34 -60.501s-29.834 -23.5 -48.501 -23.5c-15.333 0 -27.833 4.5 -37.5 13.5
s-14.5 21.167 -14.5 36.5c0 16 4.66699 33.667 14 53s20.666 38.5 33.999 57.5s27.333 36.667 42 53s27.667 29.833 39 40.5l3 2c0.666992 18.667 0.666992 36.834 0 54.501s-1.5 34 -2.5 49s-2.16699 28 -3.5 39s-3 19.5 -5 25.5l-18 -21l-19.5 -23
c-9.66699 -11.333 -20.334 -22.666 -32.001 -33.999s-23.167 -20.833 -34.5 -28.5s-20.333 -9.83398 -27 -6.50098c-12.667 6.66699 -20.167 16.667 -22.5 30s-1.16602 27.333 3.50098 42s12 28.5 22 41.5s21.667 23 35 30s27.166 9.83301 41.499 8.5
s27.833 -9.66602 40.5 -24.999zM299.004 -231c15.333 -6 28.6709 -3.33301 40.0039 8s20.666 28.5 27.999 51.5s13.166 50 17.499 81s7.16602 62.5 8.49902 94.5l-25.5 -32c-10.333 -13.333 -20.833 -27.833 -31.5 -43.5s-20.5 -32 -29.5 -49s-15.833 -33 -20.5 -48
s-6.33398 -28 -5.00098 -39s7.33301 -18.833 18 -23.5zM51.0088 -201c16 -6.66699 29.6709 -4.99805 41.0039 5.00195s20.666 25 27.999 45s13.166 43.833 17.499 71.5s7.16602 55.834 8.49902 84.501c-6.66699 -6.66699 -15.167 -15.834 -25.5 -27.501
s-20.833 -24.334 -31.5 -38.001s-20.667 -27.834 -30 -42.501s-16.333 -28.5 -21 -41.5s-6.33398 -24.5 -5.00098 -34.5s7.33301 -17.333 18 -22zM266.013 73.002c4.66699 -2 10.667 2.33301 18 13s15.5 24 24.5 40s18.167 33.167 27.5 51.5s18 34.5 26 48.5
c-8.66699 12 -17.5 17.5 -26.5 16.5s-17.667 -6 -26 -15s-15.833 -21 -22.5 -36s-12 -30.333 -16 -46s-6.66699 -30.167 -8 -43.5s-0.333008 -23 3 -29zM18.0127 103.002c2.66699 0 7.50098 3.16797 14.501 9.50098s14.833 14.333 23.5 24l27.5 31l27.5 31.5
c-8.66699 11.333 -17.334 17.666 -26.001 18.999s-17 -0.5 -25 -5.5s-15.167 -12.333 -21.5 -22s-11.5 -20 -15.5 -31s-6.66699 -21.667 -8 -32s-0.333008 -18.5 3 -24.5z" />
    <glyph glyph-name="nn" unicode="nn" horiz-adv-x="0" 
d="M207 197c4.66699 8.66699 10.9893 8.66504 18.9893 -0.00195312c0 -9.33301 -0.166992 -17 -0.5 -23s-0.5 -11.5 -0.5 -16.5s0.166992 -10.5 0.5 -16.5s0.833008 -13.333 1.5 -22l19 41c2.66699 6 6.5 15.167 11.5 27.5s10.833 24.666 17.5 36.999
s13.834 23.166 21.501 32.499s15.834 13.666 24.501 12.999c9.33301 -1.33301 16.5 -6.33301 21.5 -15s8.66699 -19.5 11 -32.5s3.5 -27 3.5 -42s-0.333008 -29.333 -1 -43s-1.5 -25.5 -2.5 -35.5s-1.16699 -16.333 -0.5 -19c0 -4 2.33301 -2.33301 7 5
s9.66699 16.5 15 27.5l15 32c4.66699 10.333 7.33398 16.166 8.00098 17.499l4 8l3 9c4.66699 7.33301 8.33398 9.66602 11.001 6.99902s5.33398 -7.33398 8.00098 -14.001c-1.33301 -2.66699 -3.33301 -7.5 -6 -14.5s-6 -15.167 -10 -24.5s-8.66699 -18.666 -14 -27.999
s-11 -17.666 -17 -24.999s-12 -12.666 -18 -15.999s-12 -3.33301 -18 0c-4.66699 2.66699 -8.16699 8.83398 -10.5 18.501s-4 21.334 -5 35.001s-1.66699 27.834 -2 42.501s-0.666016 28.5 -0.999023 41.5s-0.833008 23.667 -1.5 32s-1.66699 12.833 -3 13.5
c-5.33301 1.33301 -10.5 -1.66699 -15.5 -9s-10.167 -16.666 -15.5 -27.999s-10.666 -23.666 -15.999 -36.999l-15.5 -37.5c-5 -11.667 -10 -21.334 -15 -29.001s-9.83301 -11.167 -14.5 -10.5c-9.33301 1.33301 -16 4.5 -20 9.5s-6.33301 13.5 -7 25.5
c-4 -7.33301 -8.5 -14.5 -13.5 -21.5s-10.167 -12.833 -15.5 -17.5s-10.833 -8 -16.5 -10s-10.834 -1.33301 -15.501 2c-6.66699 4 -11.167 13.5 -13.5 28.5s-3.66602 30.833 -3.99902 47.5s-0.666016 31.834 -0.999023 45.501s-1.83301 20.834 -4.5 21.501
c-5.33301 1.33301 -10.5 -1.16699 -15.5 -7.5s-10.167 -14.333 -15.5 -24s-10.666 -20.5 -15.999 -32.5s-10.5 -23 -15.5 -33s-10 -18.333 -15 -25s-9.83301 -9.66699 -14.5 -9c-14 1.33301 -22.5 13.5 -25.5 36.5s-0.833008 53.5 6.5 91.5c4.66699 8.66699 11 8.66699 19 0
c0 -18.667 -0.166992 -36.834 -0.5 -54.501s0.166992 -35.5 1.5 -53.5l19 41c2.66699 6 6.5 14.167 11.5 24.5s10.833 20.5 17.5 30.5s13.834 18.5 21.501 25.5s15.834 10.167 24.501 9.5c14 -1.33301 23.5 -9 28.5 -23s7.66699 -29.5 8 -46.5s-0.5 -33.167 -2.5 -48.5
s-2.66699 -25 -2 -29c0 -4 2.66699 -2.66699 8 4s11 15 17 25s11.5 19.833 16.5 29.5l8.5 16.5l4 8l2 6c0 2 0.333008 3.66699 1 5z" />
    <glyph glyph-name="on" unicode="on" horiz-adv-x="377" 
d="M33 227c8.66699 0.666992 11.6582 -5.3291 8.99121 -17.9961c-8 -4 -13 -12.167 -15 -24.5s-1.66699 -25 1 -38s7.66699 -24.667 15 -35s16.333 -15.5 27 -15.5c6.66699 0 13 3.66699 19 11s11 16.666 15 27.999c-10.667 5.33301 -20.167 13.833 -28.5 25.5
s-14 23.167 -17 34.5s-2.66699 21.333 1 30s11.5 13 23.5 13c20.667 -0.666992 34.167 -9.83398 40.5 -27.501s7.83301 -36.834 4.5 -57.501c16.667 4 33 25 49 63c0 2 0.666992 5.66699 2 11c4.66699 8.66699 11 8.66699 19 0v-1c0 -1.33301 0.666992 -2.66602 2 -3.99902
l-2 -6c-0.666992 -16.667 -1 -33 -1 -49s0.666992 -32 2 -48l19 41l11.5 26c5 11.333 10.833 22.666 17.5 33.999s13.834 21 21.501 29s15.834 11.667 24.501 11c9.33301 -1.33301 16.5 -6.66602 21.5 -15.999s8.66699 -20.833 11 -34.5s3.5 -28.667 3.5 -45
s-0.333008 -31.666 -1 -45.999s-1.5 -26.833 -2.5 -37.5s-1.16699 -17.334 -0.5 -20.001c0 -4 2.33301 -1.16699 7 8.5s9.66699 21.334 15 35.001l15 39.5c4.66699 12.667 7.33398 19.667 8.00098 21l7 17c4.66699 7.33301 8.33398 9.66602 11.001 6.99902
s5.33398 -7.33398 8.00098 -14.001c-1.33301 -2.66699 -3.33301 -8.16699 -6 -16.5s-6 -17.833 -10 -28.5s-8.66699 -21.667 -14 -33s-11 -21.5 -17 -30.5s-12 -15.667 -18 -20s-12 -4.83301 -18 -1.5c-4.66699 2.66699 -8.16699 9.16699 -10.5 19.5s-4 22.666 -5 36.999
s-1.66699 29.5 -2 45.5s-0.666016 30.833 -0.999023 44.5s-0.833008 25 -1.5 34s-1.66699 13.833 -3 14.5c-5.33301 1.33301 -10.5 -1.33398 -15.5 -8.00098s-10.167 -15.334 -15.5 -26.001s-10.666 -22.334 -15.999 -35.001s-10.5 -24.334 -15.5 -35.001
s-10 -19.667 -15 -27s-9.83301 -10.666 -14.5 -9.99902c-10 1.33301 -17.167 7.83301 -21.5 19.5s-6.16602 27.834 -5.49902 48.501c-6.66699 -10 -14 -18.667 -22 -26s-16 -11 -24 -11h-4c-5.33301 -15.333 -12.333 -28.166 -21 -38.499s-18.667 -15.5 -30 -15.5
c-19.333 0 -35.166 6.66699 -47.499 20s-20.5 28.5 -24.5 45.5s-3.33301 33.833 2 50.5s16.333 28.334 33 35.001zM98.9912 211.004c-9.33301 8 -14.333 9.49902 -15 4.49902s0.333008 -11.167 3 -18.5c6 -21.333 13.333 -34.666 22 -39.999c2 10.667 2.33301 21 1 31
s-5 17.667 -11 23z" />
    <glyph glyph-name="oo" unicode="oo" horiz-adv-x="353" 
d="M211 227c8.66699 0.666992 11.668 -5.33789 9.00098 -18.0049c-8 -4 -13 -12.667 -15 -26s-1.66699 -27.166 1 -41.499s7.66699 -27.166 15 -38.499s16.333 -17 27 -17c5.33301 0 10.666 3.5 15.999 10.5s10 15.833 14 26.5c-10 9.33301 -18.5 21.333 -25.5 36
s-11.833 29 -14.5 43s-2.33398 25.833 0.999023 35.5s10.666 14.5 21.999 14.5s20.333 -3.5 27 -10.5s11.5 -16 14.5 -27s4.33301 -23.333 4 -37s-1.83301 -26.834 -4.5 -39.501c8 -5.33301 16.333 -5.16602 25 0.500977s17.334 20.167 26.001 43.5
c3.33301 1.33301 6.33301 2.16602 9 2.49902s5.66699 -2.83398 9 -9.50098l-9 -21.5c-3.33301 -7.66699 -7.5 -15 -12.5 -22s-10.833 -12.833 -17.5 -17.5s-14 -7 -22 -7c-6 0 -11.333 1.33301 -16 4c-5.33301 -13.333 -12 -24.166 -20 -32.499s-16.667 -12.5 -26 -12.5
c-12 0 -22.5 2.83301 -31.5 8.5s-16.833 12.834 -23.5 21.501s-11.667 18.5 -15 29.5s-5 22.167 -5 33.5c-8 -8 -16.5 -14.667 -25.5 -20s-17.5 -8 -25.5 -8c-5.33301 -15.333 -12.5 -28.333 -21.5 -39s-19.167 -16 -30.5 -16c-19.333 0 -35.166 6.66699 -47.499 20
s-20.5 28.5 -24.5 45.5s-3.33301 33.833 2 50.5s16.333 28.334 33 35.001c8.66699 0.666992 11.667 -5.33301 9 -18c-8 -4 -13 -12.167 -15 -24.5s-1.66699 -25 1 -38s7.66699 -24.667 15 -35s16.333 -15.5 27 -15.5c6.66699 0 13 3.66699 19 11s11 16.666 15 27.999
c-11.333 4.66699 -21 12.667 -29 24s-13.5 23 -16.5 35s-2.83301 22.333 0.5 31s11.333 13 24 13c10.667 0 19.334 -2.66699 26.001 -8s11.667 -12.166 15 -20.499s5.16602 -17.666 5.49902 -27.999s-0.5 -20.833 -2.5 -31.5c14.667 2 32 16 52 42
c6 16.667 16.667 28.334 32 35.001zM277.001 224.995c-9.33301 8 -14.332 9.5 -14.999 4.5s0.333008 -11.167 3 -18.5c3.33301 -10.667 6.66602 -20.5 9.99902 -29.5s7.33301 -17.167 12 -24.5c2 14 2.33301 27.333 1 40s-5 22 -11 28zM99.002 210.995
c-9.33301 8 -14.333 9.50098 -15 4.50098s0.333008 -11.167 3 -18.5c6 -20.667 13.333 -34.334 22 -41.001c2 11.333 2.33301 22 1 32s-5 17.667 -11 23z" />
    <glyph glyph-name="os" unicode="os" horiz-adv-x="295" 
d="M33 227c8.66699 0.666992 11.667 -5.33594 9 -18.0029c-8 -4 -13 -12.167 -15 -24.5s-1.66699 -25 1 -38s7.66699 -24.667 15 -35s16.333 -15.5 27 -15.5c5.33301 0 10.5 2.5 15.5 7.5s9.16699 11.167 12.5 18.5c-9.33301 8.66699 -17.333 19.667 -24 33
s-11.167 26.166 -13.5 38.499s-2 22.833 1 31.5s10.167 13 21.5 13c12 0 21.5 -3.33301 28.5 -10s11.833 -15.167 14.5 -25.5s3.66699 -21.666 3 -33.999s-3 -24.5 -7 -36.5c8.66699 -5.33301 17.334 -4.33301 26.001 3s17.667 23 27 47l4 2
c-4 6.66699 -7.66699 13.167 -11 19.5s-5.66602 12.5 -6.99902 18.5c-2 9.33301 -1 18.333 3 27s9.5 15.334 16.5 20.001s14.5 6.5 22.5 5.5s14.667 -6.83301 20 -17.5s7 -23.334 5 -38.001s-7 -26 -15 -34c5.33301 -7.33301 11 -14.666 17 -21.999s11 -14.333 15 -21
c11.333 6 21.666 12.167 30.999 18.5s15.666 13.5 18.999 21.5s6.33301 10.333 9 7s5.66699 -7.66602 9 -12.999c0.666992 -8.66699 -5.33301 -17.5 -18 -26.5s-27 -18.167 -43 -27.5c2 -20 -1.66699 -36.5 -11 -49.5s-20 -22.167 -32 -27.5
s-23.167 -6.66602 -33.5 -3.99902s-15.5 9 -15.5 19c0 15.333 5.33301 28.166 16 38.499s23 19.5 37 27.5c-2.66699 7.33301 -6 14.333 -10 21l-13 21c-2.66699 -6.66699 -5.66699 -13.5 -9 -20.5s-7.5 -13.5 -12.5 -19.5s-10.5 -11 -16.5 -15s-12.667 -6 -20 -6
c-6.66699 0 -12.667 1.33301 -18 4c-5.33301 -10 -11.833 -18.333 -19.5 -25s-15.834 -10 -24.501 -10c-19.333 0 -35.166 6.66699 -47.499 20s-20.5 28.5 -24.5 45.5s-3.33301 33.833 2 50.5s16.333 28.334 33 35.001zM99 210.997c-9.33301 8 -14.333 9.49902 -15 4.49902
s0.333008 -11.167 3 -18.5l9.5 -27.5c3 -8.33301 6.5 -15.5 10.5 -21.5c3.33301 12 4.5 23.833 3.5 35.5s-4.83301 20.834 -11.5 27.501zM191 250.996c-6.66699 -3.33301 -8.50098 -9.5 -5.50098 -18.5s8.16699 -19.167 15.5 -30.5c3.33301 4 6 9.33301 8 16
s2.83301 13 2.5 19s-2.16602 10.667 -5.49902 14s-8.33301 3.33301 -15 0zM191.999 81.9961c-9.33301 -10 -12.999 -16.832 -10.999 -20.499s6 -4.66699 12 -3s12.167 6 18.5 13s9.16602 16.167 8.49902 27.5c0 0.666992 -0.166992 1.16699 -0.5 1.5
s-0.5 1.16602 -0.5 2.49902c-5.33301 -3.33301 -10.333 -6.83301 -15 -10.5s-8.66699 -7.16699 -12 -10.5z" />
    <glyph glyph-name="ox" unicode="ox" horiz-adv-x="336" 
d="M187 239c4 7.33301 10.666 8.33203 19.999 2.99902c1.33301 -4.66699 3.5 -12.667 6.5 -24s7.16699 -24 12.5 -38c18 23.333 34 43 48 59c10.667 2 15.667 -2.33301 15 -13c-7.33301 -9.33301 -16 -19.666 -26 -30.999s-19.667 -23.666 -29 -36.999
c7.33301 -20 15.333 -38.167 24 -54.5s16 -24.5 22 -24.5c4 0 8.83301 4.66699 14.5 14s11.334 20 17.001 32s10.834 23.667 15.501 35l9 22c6.66699 6 13 4 19 -6c-2 -4.66699 -6 -13.334 -12 -26.001s-12.833 -25.834 -20.5 -39.501s-15.334 -25.667 -23.001 -36
s-14.167 -15.5 -19.5 -15.5c-11.333 0 -22.833 7 -34.5 21s-22.167 30.667 -31.5 50c-5.33301 -8 -9.83301 -15.667 -13.5 -23s-6.5 -14.333 -8.5 -21c-10.667 -4.66699 -17 -2.66699 -19 6c3.33301 8.66699 7.66602 18 12.999 28s11.666 20.333 18.999 31
c-3.33301 7.33301 -6.16602 14.5 -8.49902 21.5s-4.5 13.833 -6.5 20.5c-10 -20 -20.667 -34.167 -32 -42.5s-22.666 -12.5 -33.999 -12.5c-5.33301 -17.333 -12.666 -32 -21.999 -44s-20 -18 -32 -18c-19.333 0 -35.166 6.66699 -47.499 20s-20.5 28.5 -24.5 45.5
s-3.33301 33.833 2 50.5s16.333 28.334 33 35.001c8.66699 0.666992 11.667 -5.33301 9 -18c-8 -4 -13 -12.167 -15 -24.5s-1.66699 -25 1 -38s7.66699 -24.667 15 -35s16.333 -15.5 27 -15.5c7.33301 0 14.166 4.33301 20.499 13s11.166 19 14.499 31
c-12.667 4 -23.834 11.333 -33.501 22s-16.334 21.5 -20.001 32.5s-3.16699 21 1.5 30s14.667 13.5 30 13.5c10 0 18.167 -2.16699 24.5 -6.5s11.333 -10.333 15 -18s5.83398 -16.5 6.50098 -26.5s0.333984 -20 -0.999023 -30c20.667 5.33301 39.667 30.333 57 75z
M98.999 210.999c-9.33301 8 -14.333 9.5 -15 4.5s0.333008 -11.167 3 -18.5c4.66699 -19.333 12.334 -31.666 23.001 -36.999c1.33301 10 1.16602 19.667 -0.500977 29s-5.16699 16.666 -10.5 21.999z" />
    <glyph glyph-name="tt" unicode="tt" horiz-adv-x="344" 
d="M197 427c3.33301 4.66699 6.66602 6.66699 9.99902 6s6.66602 -2.66699 9.99902 -6c0 -9.33301 -0.333008 -21.666 -1 -36.999s-1.66699 -32 -3 -50c34 -1.33301 65 -1.83301 93 -1.5s49.333 2.83301 64 7.5c8.66699 -2.66699 10.667 -8.66699 6 -18
c-14.667 -4.66699 -36.834 -7.33398 -66.501 -8.00098s-62.5 -0.333984 -98.5 0.999023c-1.33301 -22 -2.83301 -44.833 -4.5 -68.5s-2.66699 -46.167 -3 -67.5s-0.166016 -40.666 0.500977 -57.999s2.66699 -30.333 6 -39c4.66699 -15.333 11 -24.5 19 -27.5
s16.5 -2.33301 25.5 2s18.333 11.666 28 21.999s18.667 21.5 27 33.5s15.5 23.833 21.5 35.5s10.333 21.167 13 28.5c2 2.66699 4.16699 4.5 6.5 5.5s6.16602 -3.16699 11.499 -12.5c-3.33301 -10.667 -8.66602 -23 -15.999 -37s-16.166 -27.667 -26.499 -41
s-21.5 -25.166 -33.5 -35.499s-24.167 -17.333 -36.5 -21s-24.666 -2.66699 -36.999 3s-23.5 17.834 -33.5 36.501c-3.33301 5.33301 -5.66602 12.666 -6.99902 21.999s-2.33301 20 -3 32c-9.33301 -14.667 -20.833 -28.5 -34.5 -41.5s-28 -22 -43 -27s-30 -4.5 -45 1.5
s-28.5 20.333 -40.5 43c-4.66699 8.66699 -7.66699 21.167 -9 37.5s-1.5 34.166 -0.5 53.499s2.66699 39.833 5 61.5s5.16602 42.5 8.49902 62.5c-17.333 -0.666992 -32.666 -1.66699 -45.999 -3s-23.666 -3.66602 -30.999 -6.99902c-2.66699 1.33301 -5.5 3.83301 -8.5 7.5
s-2.5 7.16699 1.5 10.5c9.33301 3.33301 21.333 6 36 8s31.667 3.33301 51 4l11 62c3.33301 4.66699 6.66602 6.66699 9.99902 6s6.66602 -2.66699 9.99902 -6c0 -17.333 -1 -38 -3 -62c22 0 45.167 -0.333008 69.5 -1s48.5 -1.66699 72.5 -3l7.5 49
c2.33301 14.667 4.5 27 6.5 37zM37 118c6.66699 -22 16.333 -33.5 29 -34.5s25.834 3.5 39.501 13.5s26.167 22.833 37.5 38.5s19.666 29.167 24.999 40.5c1.33301 22.667 3 46.667 5 72s4.66699 50 8 74l-73.5 2c-24.333 0.666992 -47.166 1 -68.499 1
c-1.33301 -19.333 -2.83301 -39.166 -4.5 -59.499s-2.83398 -39.833 -3.50098 -58.5s-0.666992 -35.834 0 -51.501s2.66699 -28.167 6 -37.5z" />
    <glyph glyph-name="ll" unicode="ll" horiz-adv-x="360" 
d="M30 213c0 -5.33301 0.172852 -15.4961 0.505859 -30.4961s1.16602 -30.667 2.49902 -47s3.66602 -31.166 6.99902 -44.499s8 -21.333 14 -24s14.5 2.66602 25.5 15.999s22.5 30 34.5 50s23.5 41 34.5 63s19.833 40.333 26.5 55c0.666992 29.333 2.66699 59 6 89
s7.5 59.167 12.5 87.5s10.833 54.666 17.5 78.999s14.167 45.333 22.5 63s17.166 31 26.499 40s19.333 12.5 30 10.5c18 -4 30.333 -13.667 37 -29s9.16699 -33.666 7.5 -54.999s-6.66699 -44.5 -15 -69.5s-18.5 -49.667 -30.5 -74s-25 -47.166 -39 -68.499
s-27 -38.333 -39 -51c-0.666992 -11.333 -1 -22 -1 -32v-28c0 -5.33301 0.166992 -17 0.5 -35s1.16602 -37 2.49902 -57s3.66602 -38.333 6.99902 -55s8 -26.334 14 -29.001c7.33301 -3.33301 17.5 1 30.5 13s26 26.5 39 43.5s24.833 34 35.5 51s17.667 29.167 21 36.5
c2.66699 3.33301 5.33398 5.33301 8.00098 6s6 -3.66602 10 -12.999c-2.66699 -6 -7.16699 -14.5 -13.5 -25.5s-13.833 -22.667 -22.5 -35s-18.334 -24.666 -29.001 -36.999s-21.167 -23.333 -31.5 -33s-20.333 -16.834 -30 -21.501s-18.167 -5.66699 -25.5 -3
c-8.66699 3.33301 -16.167 10.5 -22.5 21.5s-11.666 24.833 -15.999 41.5s-7.66602 35.667 -9.99902 57s-3.5 44 -3.5 68l-31 -56c-11.333 -20 -23 -38 -35 -54s-23.333 -28.833 -34 -38.5s-20 -12.834 -28 -9.50098c-12.667 5.33301 -22.834 18.166 -30.501 38.499
s-13.167 45.5 -16.5 75.5s-4.83301 63.333 -4.5 100s2.5 73.5 6.5 110.5s9.66699 72.833 17 107.5s15.666 65 24.999 91s19.666 46.167 30.999 60.5s23.333 20.166 36 17.499c18.667 -4 32.167 -16.667 40.5 -38s12.5 -46.666 12.5 -75.999s-3.5 -60.333 -10.5 -93
s-16.667 -62.834 -29 -90.501s-26.5 -50.334 -42.5 -68.001s-32.667 -25.834 -50 -24.501c-0.666992 -9.33301 -1 -17.833 -1 -25.5v-21.5zM109.006 630.004c-2 0.666992 -4.33398 0 -7.00098 -2s-5 -4.5 -7 -7.5s-3.83301 -6 -5.5 -9s-2.83398 -5.16699 -3.50098 -6.5
c-8 -16.667 -15.167 -38 -21.5 -64s-11.666 -54 -15.999 -84s-7.83301 -60.5 -10.5 -91.5s-4.66699 -59.833 -6 -86.5c14.667 -2 28.5 5 41.5 21s24.667 36.5 35 61.5s18.5 52.667 24.5 83s9.5 58.833 10.5 85.5s-1.16699 49.5 -6.5 68.5s-14.666 29.5 -27.999 31.5z
M289.005 600.004c-2 0.666992 -4.33398 -0.00195312 -7.00098 -2.00195s-5 -4.5 -7 -7.5s-3.83301 -6 -5.5 -9s-2.83398 -5.16699 -3.50098 -6.5c-7.33301 -15.333 -14 -33.666 -20 -54.999s-11.167 -44.166 -15.5 -68.499s-7.83301 -49.333 -10.5 -75s-5 -50.5 -7 -74.5
c12 16.667 23.833 35.334 35.5 56.001s22.5 41.667 32.5 63s18.333 42.166 25 62.499s10.834 38.833 12.501 55.5s0.333984 30.5 -3.99902 41.5s-12.833 17.5 -25.5 19.5z" />
    <glyph glyph-name=".notdef" horiz-adv-x="200" 
 />
    <glyph glyph-name="NULL" horiz-adv-x="0" 
 />
    <glyph glyph-name="NULL" horiz-adv-x="0" 
 />
    <glyph glyph-name="nonmarkingreturn" unicode="&#xd;" horiz-adv-x="200" 
 />
    <glyph glyph-name="space" unicode=" " horiz-adv-x="200" 
 />
    <glyph glyph-name="exclam" unicode="!" horiz-adv-x="95" 
d="M50 129c-8 -3.33301 -13.167 -4.66602 -15.5 -3.99902s-3.83301 2.33398 -4.5 5.00098c0 50 -0.833008 100.167 -2.5 150.5s-2.66699 97.666 -3 141.999s0.5 83.666 2.5 117.999s6.66699 60.5 14 78.5c2 3.33301 4.33301 6 7 8s6.66699 -0.666992 12 -8
c1.33301 -82 1.5 -163.667 0.5 -245s-4.5 -163 -10.5 -245zM44 31c-7.33301 -1.33301 -12.6689 0.333008 -16.002 5s-5.16602 10.167 -5.49902 16.5s0.833984 12.666 3.50098 18.999s6.66699 10.5 12 12.5c4.66699 2 9.33398 0.666992 14.001 -4s8 -10.5 10 -17.5
s1.66699 -13.667 -1 -20s-8.33398 -10.166 -17.001 -11.499z" />
    <glyph glyph-name="quotedbl" unicode="&#x22;" horiz-adv-x="114" 
d="M74 477c-2.66699 -2 -5.83008 -2.66797 -9.49707 -2.00098s-4.83398 2.66699 -3.50098 6c4 13.333 5.5 21.333 4.5 24s-1.83301 4.66699 -2.5 6c-5.33301 6 -6.5 11.5 -3.5 16.5s6.83301 8.16699 11.5 9.5c7.33301 0.666992 12.166 -1.66602 14.499 -6.99902
s3 -11.5 2 -18.5s-2.83301 -14 -5.5 -21s-5.33398 -11.5 -8.00098 -13.5zM38.0039 476.999c-2.66699 -2 -5.83008 -2.66797 -9.49707 -2.00098s-4.83398 2.66699 -3.50098 6c4 13.333 5.5 21.333 4.5 24s-1.83301 4.66699 -2.5 6c-5.33301 6 -6.5 11.5 -3.5 16.5
s6.83301 8.16699 11.5 9.5c7.33301 0.666992 12.166 -1.66602 14.499 -6.99902s3 -11.5 2 -18.5s-2.83301 -14 -5.5 -21s-5.33398 -11.5 -8.00098 -13.5z" />
    <glyph glyph-name="numbersign" unicode="#" horiz-adv-x="329" 
d="M245 361c8 6.66699 14.002 3.66309 18.002 -9.00391l-32 -88c3.33301 0 6.66602 -0.166992 9.99902 -0.5s6.66602 -0.5 9.99902 -0.5c4 -2 6.16699 -4.66699 6.5 -8s-2.16699 -7.33301 -7.5 -12l-27 -2l-14 -40l27 -5c6.66699 -6.66699 5 -13 -5 -19
c-5.33301 0 -10.333 0.166992 -15 0.5s-9.66699 0.5 -15 0.5l-21 -57.5c-6.66699 -19 -13.667 -37.167 -21 -54.5c-10 -5.33301 -16.333 -3.66602 -19 5.00098c5.33301 17.333 10.5 35 15.5 53s10.5 36 16.5 54h-69l-22 -56.5l-23 -55.5c-13.333 -4 -19.333 -1.33301 -18 8
l35 103c-4.66699 -0.666992 -9.16699 -1 -13.5 -1h-13.5c-8 6.66699 -9 13 -3 19c6 1.33301 12.167 2.33301 18.5 3l19.5 2c2 7.33301 4.16699 14.333 6.5 21l7.5 21h-31c-7.33301 4.66699 -10.666 8.5 -9.99902 11.5s3 5.5 7 7.5c7.33301 1.33301 14.666 2.33301 21.999 3
l22 2l16.5 41c5.66699 14 12.167 27.667 19.5 41c2 3.33301 4.5 4.83301 7.5 4.5s6.83301 -4.16602 11.5 -11.499l-13.5 -37c-4.33301 -12 -8.5 -24.333 -12.5 -37c11.333 0.666992 22.333 0.833984 33 0.500977s21.667 -0.833008 33 -1.5
c6.66699 16.667 13.5 32.834 20.5 48.501s14.5 31.167 22.5 46.5zM113.002 202.996c11.333 1.33301 22.5 2 33.5 2s22.167 -0.333008 33.5 -1l13 37h-33c-10.667 0 -21.667 0.333008 -33 1l-7.5 -19.5c-2.33301 -6.33301 -4.5 -12.833 -6.5 -19.5z" />
    <glyph glyph-name="dollar" unicode="$" horiz-adv-x="253" 
d="M139 551c8.66699 5.33301 14.6631 2.33496 17.9961 -8.99805c-2.66699 -4.66699 -5 -9.66699 -7 -15s-4 -11.333 -6 -18c18 -5.33301 33.667 -17.666 47 -36.999s20.666 -48.333 21.999 -87c-9.33301 -9.33301 -16 -9.66602 -20 -0.999023
c-1.33301 34 -7.16602 59 -17.499 75s-22.166 26 -35.499 30c-5.33301 -22 -9.16602 -47 -11.499 -75s-4.5 -57.333 -6.5 -88l33.5 -18c11 -6 21 -13.167 30 -21.5s16.167 -18.166 21.5 -29.499s8 -25 8 -41c0 -17.333 -3 -32.833 -9 -46.5s-13.833 -25 -23.5 -34
s-20.667 -16 -33 -21s-24.833 -7.5 -37.5 -7.5c-1.33301 -12 -2.5 -23.333 -3.5 -34s-2.16699 -20.334 -3.5 -29.001c-4 -2 -7.83301 -3.33301 -11.5 -4s-6.16699 1.66602 -7.5 6.99902c1.33301 8.66699 2.5 18.167 3.5 28.5s2.16699 21.166 3.5 32.499
c-11.333 2 -21.666 5.83301 -30.999 11.5s-17.166 13.5 -23.499 23.5s-10.666 22.167 -12.999 36.5s-1.83301 30.833 1.5 49.5c6 8 12.333 7 19 -3c-6 -32 -3.66699 -56 7 -72s24.334 -25 41.001 -27c2 28 3.5 58.167 4.5 90.5s2.16699 65.166 3.5 98.499
c-10 5.33301 -19.833 11 -29.5 17s-18.334 13.167 -26.001 21.5s-13.834 18.166 -18.501 29.499s-7 25 -7 41c0 12 3 23.333 9 34s14 20 24 28s21.167 14.333 33.5 19s24.833 6.66699 37.5 6l6 21c2 6.66699 4.66699 12.667 8 18zM181.996 216.002
c0 24 -5.99902 42.502 -17.999 55.502s-26.333 24.167 -43 33.5c-1.33301 -30.667 -2.5 -61.334 -3.5 -92.001s-2.5 -59.334 -4.5 -86.001c17.333 3.33301 33.166 12.5 47.499 27.5s21.5 35.5 21.5 61.5zM48.9971 423.004c0 -22.667 5.16699 -40.334 15.5 -53.001
s23.166 -23.667 38.499 -33c1.33301 28.667 3.33301 56.167 6 82.5s6.33398 50.166 11.001 71.499c-18 -1.33301 -34.333 -8.66602 -49 -21.999s-22 -28.666 -22 -45.999z" />
    <glyph glyph-name="percent" unicode="%" horiz-adv-x="316" 
d="M136 441l-1.00586 1.00781l-16 -22c-6.66699 -9.33301 -14 -18.5 -22 -27.5s-16 -16.667 -24 -23s-15 -8.83301 -21 -7.5c-16 2.66699 -26.667 10.667 -32 24s-6.16602 27.5 -2.49902 42.5s11.834 28.5 24.501 40.5s29.667 18 51 18c15.333 0 28.666 -5.66699 39.999 -17
v1c4 1.33301 12.333 1.83301 25 1.5s25.334 -0.166016 38.001 0.500977c9.33301 9.33301 18.166 17 26.499 23s16.5 10 24.5 12c14 3.33301 22 1.66602 24 -5.00098s-0.666992 -14.334 -8 -23.001c-6 -7.33301 -12.5 -12.833 -19.5 -16.5s-14.167 -6.16699 -21.5 -7.5
c-14 -18 -28.5 -41.167 -43.5 -69.5s-29.5 -57.666 -43.5 -87.999s-26.5 -59.166 -37.5 -86.499s-19.167 -49 -24.5 -65c10.667 9.33301 23.667 17.666 39 24.999c4.66699 8 11.334 13.667 20.001 17s19.334 1.66602 32.001 -5.00098c2 2 5 3 9 3
c12.667 -8 19 -18.833 19 -32.5s-3.5 -26.334 -10.5 -38.001s-16 -20.334 -27 -26.001s-20.833 -4.5 -29.5 3.5c-6.66699 5.33301 -11.5 12 -14.5 20s-4.83301 16.333 -5.5 25c-13.333 -8.66699 -25.666 -15.667 -36.999 -21s-17.666 -4.33301 -18.999 3
c-2 11.333 0.5 31.166 7.5 59.499s16.833 59.166 29.5 92.499s27.334 66.666 44.001 99.999s33.334 60.666 50.001 81.999c-6 0 -12 0.166992 -18 0.5s-11.667 0.166016 -17 -0.500977l-1 -1c1.33301 -2 2.16602 -4.16699 2.49902 -6.5s0.833008 -4.5 1.5 -6.5
c-5.33301 -5.33301 -9.33301 -5.33301 -12 0zM92.9941 468.008c-10.667 0 -19.6699 -4.33105 -27.0029 -12.998s-12.666 -18.334 -15.999 -29.001s-4.66602 -20.5 -3.99902 -29.5s3.33398 -13.833 8.00098 -14.5c3.33301 -0.666992 8.33301 2.33301 15 9
s13.5 14.167 20.5 22.5s13.333 16.666 19 24.999s9.5 13.833 11.5 16.5v-1l3 4c-3.33301 4 -7.83301 6.66699 -13.5 8s-11.167 2 -16.5 2zM148.991 166.01c-4 -1.33301 -7.33105 -3.00293 -9.99805 -5.00293c-2.66699 -3.33301 -4.5 -7.66602 -5.5 -12.999
s-1.5 -10.666 -1.5 -15.999s0.166992 -10.166 0.5 -14.499s1.16602 -6.83301 2.49902 -7.5c4 -4 8.83301 -4.16699 14.5 -0.5s10.667 9 15 16s7.16602 14.333 8.49902 22s-0.666992 14.167 -6 19.5c-2.66699 -2.66699 -5 -3.66699 -7 -3c-4 2 -7.66699 3 -11 3v-1z" />
    <glyph glyph-name="ampersand" unicode="&#x26;" horiz-adv-x="464" 
d="M385 147c-5.33301 6.66699 -7.33887 11.3311 -6.00586 13.998s4 4.66699 8 6c13.333 -2 25.833 -0.833008 37.5 3.5s23.834 7.5 36.501 9.5c2.66699 -1.33301 4.66699 -3.16602 6 -5.49902s-0.666992 -7.16602 -6 -14.499
c-2.66699 -0.666992 -5.33398 -1.16699 -8.00098 -1.5s-5.33398 -1.16602 -8.00098 -2.49902c-4 -10.667 -6.66699 -23.834 -8 -39.501s-3.5 -30.834 -6.5 -45.501s-7.83301 -27.5 -14.5 -38.5s-17.667 -17.5 -33 -19.5c-16 -2 -31.667 0.333008 -47 7
s-30.333 16.667 -45 30s-28.5 29.5 -41.5 48.5s-24.833 39.5 -35.5 61.5l-33.5 -58.5c-11 -18.333 -22.333 -34.5 -34 -48.5s-23.334 -25.167 -35.001 -33.5s-23.5 -12.5 -35.5 -12.5c-15.333 0 -28.5 5.33301 -39.5 16s-20.167 21.667 -27.5 33
c-12.667 20.667 -16.167 41.667 -10.5 63s16.667 42.833 33 64.5s36.166 43.167 59.499 64.5l69 62c-7.33301 30 -12 58.5 -14 85.5s-0.666992 49.833 4 68.5s12.834 32 24.501 40s27.5 8 47.5 0c27.333 -11.333 45 -24.166 53 -38.499s9.33301 -30 4 -47
s-15.666 -35 -30.999 -54s-32.666 -38.5 -51.999 -58.5c8 -26.667 17.667 -54 29 -82l40.5 74c13.667 24 27.667 45.5 42 64.5s28.833 34 43.5 45s29.667 16.167 45 15.5c12.667 -2.66699 12.667 -9 0 -19c-13.333 0.666992 -26.666 -4.83301 -39.999 -16.5
s-26.833 -27.167 -40.5 -46.5s-27.167 -41.333 -40.5 -66l-40 -75c10 -24 21 -46.833 33 -68.5s24.333 -40.167 37 -55.5s25.334 -27 38.001 -35s25 -10.667 37 -8c8.66699 2 15.334 7.16699 20.001 15.5s8.33398 18.333 11.001 30s4.83398 24 6.50098 37
s3.83398 24.5 6.50098 34.5c-6.66699 -1.33301 -13 -2.5 -19 -3.5s-12.667 -0.833008 -20 0.5zM167.994 278.997l-47.001 -47.501c-15.333 -15.667 -29 -31.167 -41 -46.5s-21.833 -30.333 -29.5 -45s-11.5 -28.667 -11.5 -42c0 -6.66699 0.5 -14.167 1.5 -22.5s3 -16 6 -23
s6.83301 -13 11.5 -18s10.667 -7.5 18 -7.5c10 0 20.167 4.16699 30.5 12.5s20.833 19.833 31.5 34.5s21.334 31.334 32.001 50.001l33 60c-14 30 -25.667 61.667 -35 95zM214.993 484.996c-12.667 5.33301 -22.332 5 -28.999 -1s-10.834 -16 -12.501 -30
s-1.16699 -31.167 1.5 -51.5s7 -42.5 13 -66.5c16.667 15.333 31 30 43 44s20.167 27.333 24.5 40s3.5 24.5 -2.5 35.5s-18.667 20.833 -38 29.5z" />
    <glyph glyph-name="quotesingle" unicode="'" horiz-adv-x="81" 
d="M43 477c-2.66699 -2 -5.83008 -2.66797 -9.49707 -2.00098s-4.83398 2.66699 -3.50098 6c4 13.333 5.5 21.333 4.5 24s-1.83301 4.66699 -2.5 6c-5.33301 6 -6.5 11.5 -3.5 16.5s6.83301 8.16699 11.5 9.5c7.33301 0.666992 12.166 -1.66602 14.499 -6.99902
s3 -11.5 2 -18.5s-2.83301 -14 -5.5 -21s-5.33398 -11.5 -8.00098 -13.5z" />
    <glyph glyph-name="parenleft" unicode="(" horiz-adv-x="156" 
d="M107 712c12 6 17.332 2.33594 15.999 -10.9971c-18 -18.667 -32 -44.667 -42 -78s-16.667 -70.333 -20 -111s-4 -83.334 -2 -128.001s6.16699 -87.834 12.5 -129.501s14.333 -80 24 -115s20.5 -63.167 32.5 -84.5c-1.33301 -6 -3.5 -9.5 -6.5 -10.5
s-6.5 -0.833008 -10.5 0.5c-18.667 23.333 -34.667 53.166 -48 89.499s-23.666 75.833 -30.999 118.5s-11.666 86.667 -12.999 132s1 88.833 7 130.5s15.667 79.667 29 114s30.666 61.833 51.999 82.5z" />
    <glyph glyph-name="parenright" unicode=")" horiz-adv-x="156" 
d="M12 697c-2.66699 5.33301 -3.33105 9.49902 -1.99805 12.499s6.33301 3.16699 15 0.5c31.333 -32 55.833 -67.167 73.5 -105.5s29.667 -78.166 36 -119.499s7.83301 -83.333 4.5 -126s-10.166 -84 -20.499 -124s-23.833 -77.833 -40.5 -113.5s-34.667 -67.5 -54 -95.5
c-11.333 -4.66699 -17 -2 -17 8c12 27.333 23 51 33 71s19.167 41.667 27.5 65s15.666 50.833 21.999 82.5s11.166 72.5 14.499 122.5c2 28 2.16699 56.5 0.5 85.5s-5.83398 57.5 -12.501 85.5s-16.5 54.833 -29.5 80.5s-29.833 49.167 -50.5 70.5z" />
    <glyph glyph-name="asterisk" unicode="*" horiz-adv-x="125" 
d="M40 462c-11.333 0 -15.002 5.33496 -11.002 16.002c3.33301 2 6.5 4.66699 9.5 8s6.16699 6.66602 9.5 9.99902c-5.33301 0 -10.166 -0.166992 -14.499 -0.5s-8.16602 -0.5 -11.499 -0.5c-5.33301 8.66699 -5.33301 15 0 19c3.33301 0 7.83301 0.166992 13.5 0.5
s12.167 0.833008 19.5 1.5l-13 20c-1.33301 5.33301 0.166992 9.33301 4.5 12s8.16602 2.33398 11.499 -0.999023c2.66699 -3.33301 5 -6.83301 7 -10.5l6 -11.5c4.66699 5.33301 9.33398 10 14.001 14s10 7.33301 16 10c5.33301 0 8.66602 -2.33301 9.99902 -7
s0.333008 -8.66699 -3 -12c-6 -2.66699 -12.333 -7.33398 -19 -14.001c6.66699 -0.666992 12.667 -1.33398 18 -2.00098s9.33301 -1.66699 12 -3c2.66699 -10.667 -1 -16 -11 -16c-2.66699 0.666992 -5.83398 1 -9.50098 1h-11.5c4.66699 -8 9.33398 -14.333 14.001 -19
c0 -4.66699 -1 -8.33398 -3 -11.001s-6 -3.33398 -12 -2.00098c-7.33301 8 -13.333 17 -18 27c-5.33301 -5.33301 -10.166 -10.666 -14.499 -15.999s-8.83301 -9.66602 -13.5 -12.999z" />
    <glyph glyph-name="plus" unicode="+" horiz-adv-x="248" 
d="M41 156c-8.66699 5.33301 -9 12.0039 -1 20.0039c11.333 0 22.666 0.333008 33.999 1l34 2c0.666992 14 1.66699 28 3 42s3 28.333 5 43c3.33301 5.33301 6.5 8.33301 9.5 9s6.16699 -2.33301 9.5 -9l-3 -83c22.667 2 45.667 3 69 3c2 -2.66699 3.33301 -5.5 4 -8.5
s-0.666016 -6.83301 -3.99902 -11.5c-12 -1.33301 -23.833 -2.83301 -35.5 -4.5s-23.167 -3.16699 -34.5 -4.5c-0.666992 -13.333 -1 -26.333 -1 -39v-39c-6 -10 -12.333 -10 -19 0c-1.33301 13.333 -2.33301 26.166 -3 38.499s-1 25.166 -1 38.499
c-10.667 -0.666992 -21.5 -0.833984 -32.5 -0.500977s-22.167 1.16602 -33.5 2.49902z" />
    <glyph glyph-name="comma" unicode="," horiz-adv-x="88" 
d="M42 60c-3.33301 -2 -6.33008 -2.33203 -8.99707 -0.999023s-3.33398 4.33301 -2.00098 9c2.66699 6.66699 4.16699 12 4.5 16s0.166016 7 -0.500977 9s-1.66699 3.16699 -3 3.5s-2 0.833008 -2 1.5c-6 7.33301 -7.33301 13.666 -4 18.999s7.66602 8.33301 12.999 9
c8 0.666992 13.167 -1.83301 15.5 -7.5s3 -12.5 2 -20.5s-3 -15.667 -6 -23s-5.83301 -12.333 -8.5 -15z" />
    <glyph glyph-name="hyphen" unicode="-" horiz-adv-x="198" 
d="M165 187c6.66699 -6 9.16406 -10.167 7.49707 -12.5s-3.83398 -4.5 -6.50098 -6.5c-23.333 -1.33301 -46.166 -1.66602 -68.499 -0.999023s-45.166 1 -68.499 1c-6 4.66699 -8.5 8.5 -7.5 11.5s3.5 5.5 7.5 7.5c22.667 0 45.334 -0.333008 68.001 -1
s45.334 -0.333984 68.001 0.999023z" />
    <glyph glyph-name="period" unicode="." horiz-adv-x="85" 
d="M45 119c5.33301 0 9.33203 -2 11.999 -6s3.83398 -8.33301 3.50098 -13s-2 -9 -5 -13s-6.83301 -6.33301 -11.5 -7c-5.33301 -0.666992 -9.5 1 -12.5 5s-4.66699 8.5 -5 13.5s1 9.66699 4 14s7.83301 6.5 14.5 6.5z" />
    <glyph glyph-name="slash" unicode="/" horiz-adv-x="274" 
d="M6 -24c-11.333 -4 -16.999 -1.33301 -16.999 8l73.5 173l70 167.5l68 168.5l67.5 175c7.33301 7.33301 13.666 5 18.999 -7l-69 -175l-68.5 -168.5l-70 -168z" />
    <glyph glyph-name="zero" unicode="0" horiz-adv-x="335" 
d="M264 536c14.667 -19.333 26.0049 -44.501 34.0049 -75.501s12.333 -64 13 -99s-2.5 -69.833 -9.5 -104.5s-17.833 -65.667 -32.5 -93s-33.334 -48.666 -56.001 -63.999s-49.667 -21 -81 -17c-20 2 -37.667 13.5 -53 34.5s-27.333 46.833 -36 77.5s-13.834 64 -15.501 100
s1.16602 70.5 8.49902 103.5s19.666 62.333 36.999 88s40.333 43.167 69 52.5c6.66699 10 14.667 18.167 24 24.5s19.166 10 29.499 11s21.333 -1.5 33 -7.5s23.5 -16.333 35.5 -31zM172.005 525.999l-15.0059 -3.00195c-4.66699 -8 -8.5 -16.667 -11.5 -26
s-4.66699 -18.666 -5 -27.999s0.833984 -18.5 3.50098 -27.5s7 -16.833 13 -23.5c1.33301 -9.33301 0.333008 -14.166 -3 -14.499s-7.33301 0.166992 -12 1.5c-13.333 13.333 -20.833 29.666 -22.5 48.999s0.833008 37.666 7.5 54.999c-21.333 -13.333 -38 -33 -50 -59
s-20 -54.5 -24 -85.5s-4.66699 -62.5 -2 -94.5s8.33398 -60.667 17.001 -86s20 -45.833 34 -61.5s29.667 -22.167 47 -19.5c20.667 2.66699 38 10.334 52 23.001s25.5 28.667 34.5 48s15.833 40.5 20.5 63.5s7.83398 46.167 9.50098 69.5s2.16699 45.333 1.5 66
s-1.66699 38.334 -3 53.001c-1.33301 15.333 -3.66602 31 -6.99902 47s-8.66602 31 -15.999 45h1c-11.333 20.667 -23.166 32 -35.499 34s-23.5 -1.33301 -33.5 -10c3.33301 -4 3 -9.33301 -1 -16z" />
    <glyph glyph-name="one" unicode="1" horiz-adv-x="144" 
d="M36 58c-9.33301 -1.33301 -14.8311 -0.831055 -16.498 1.50195s-1.16699 5.83301 1.5 10.5c3.33301 4 8.66602 7 15.999 9s15.333 3.66699 24 5c-4.66699 34 -7.16699 70 -7.5 108s0.5 76.333 2.5 115s4.83301 77.334 8.5 116.001l10.5 111
c-5.33301 -10 -11.5 -19.667 -18.5 -29s-14.167 -18.333 -21.5 -27c-14.667 -3.33301 -19.334 1 -14.001 13c13.333 14 24.666 29.5 33.999 46.5s18 34.167 26 51.5v1c0 0.666992 0.333008 1.33398 1 2.00098c1.33301 1.33301 4.5 2.16602 9.5 2.49902
s8.16699 -1.83398 9.5 -6.50098c0.666992 -38 -0.166016 -78.333 -2.49902 -121s-4.83301 -86 -7.5 -130s-5 -87.333 -7 -130s-3 -83 -3 -121h23c9.33301 -6.66699 9.33301 -13.334 0 -20.001c-3.33301 0 -8.5 0.166992 -15.5 0.5s-14 0.166016 -21 -0.500977
s-13.5 -1.5 -19.5 -2.5s-10 -2.83301 -12 -5.5z" />
    <glyph glyph-name="two" unicode="2" horiz-adv-x="306" 
d="M39 91c-2.66699 -6 -0.999023 -8 5.00098 -6c16 4 34 6.66699 54 8s40.167 1.83301 60.5 1.5s40.333 -1.33301 60 -3s37.5 -3.83398 53.5 -6.50098c8.66699 -8.66699 8 -15 -2 -19c-40.667 6 -81.667 9.5 -123 10.5s-82 -4.5 -122 -16.5
c-4 -1.33301 -6.66699 -1.16602 -8 0.500977s-2.33301 4.16699 -3 7.5c-0.666992 13.333 4.66602 28.833 15.999 46.5s25.666 37.167 42.999 58.5l57 69c20.667 24.667 39.5 50.667 56.5 78s30.667 55.5 41 84.5s14.5 58.833 12.5 89.5c-2 34 -9.66699 58.5 -23 73.5
s-29 22.667 -47 23s-36.333 -5.5 -55 -17.5s-34.5 -28 -47.5 -48s-21.5 -43 -25.5 -69s0.333008 -52.667 13 -80c-3.33301 -11.333 -9.33301 -14 -18 -8c-14.667 31.333 -19 63.166 -13 95.499s18.167 60.833 36.5 85.5s40.5 42.834 66.5 54.501s52 12.5 78 2.5
c24 -9.33301 41.667 -24.5 53 -45.5s17.666 -42.167 18.999 -63.5c2 -28.667 -2 -57.5 -12 -86.5s-23 -57.5 -39 -85.5s-33.833 -54.5 -53.5 -79.5l-55.5 -68.5l-15.5 -16l-23 -23.5c-8.33301 -8.33301 -16.166 -16.833 -23.499 -25.5s-12.666 -15.667 -15.999 -21z" />
    <glyph glyph-name="three" unicode="3" horiz-adv-x="292" 
d="M69 434c-2.66699 -8 -6.49902 -11.5 -11.499 -10.5s-7.5 3.16699 -7.5 6.5c-2.66699 12.667 -0.333984 27.5 6.99902 44.5s17.166 33.167 29.499 48.5s26 28.333 41 39s29.167 16 42.5 16c20.667 0 35 -4.33301 43 -13s11.833 -19.5 11.5 -32.5
s-3.66602 -27.333 -9.99902 -43s-13.333 -30.5 -21 -44.5s-15 -26.167 -22 -36.5s-11.167 -16.833 -12.5 -19.5c24 2.66699 44.667 -4 62 -20s30.5 -36.833 39.5 -62.5s13.667 -54 14 -85s-4.5 -59.667 -14.5 -86s-25.667 -48.5 -47 -66.5s-49 -27 -83 -27
c-23.333 0 -43.666 8.33301 -60.999 25s-30.5 36.667 -39.5 60s-13 47.5 -12 72.5s8.16699 45.833 21.5 62.5c3.33301 3.33301 7.16602 3.83301 11.499 1.5s5.83301 -7.16602 4.5 -14.499c-10.667 -13.333 -16.334 -30.666 -17.001 -51.999s2.5 -42 9.5 -62
s17.667 -37.167 32 -51.5s31.166 -21.5 50.499 -21.5c27.333 0 48.833 8.83301 64.5 26.5s26.834 39.167 33.501 64.5s9 52.333 7 81s-7.33301 54.167 -16 76.5s-20.167 39 -34.5 50s-30.5 11.5 -48.5 1.5c-2 9.33301 0 20.666 6 33.999s12.833 27.666 20.5 42.999
s14.5 31.166 20.5 47.499s8 32.166 6 47.499c-2 12 -6.5 19.333 -13.5 22s-15.333 1.83398 -25 -2.49902s-19.667 -11.166 -30 -20.499s-19.666 -19.833 -27.999 -31.5s-14.833 -23.5 -19.5 -35.5s-6 -22.667 -4 -32z" />
    <glyph glyph-name="four" unicode="4" horiz-adv-x="257" 
d="M190 412c6 11.333 12.668 10.999 20.001 -1.00098c0.666992 -19.333 0.333984 -39 -0.999023 -59l-4 -62c0.666992 0 1.16699 0.166992 1.5 0.5s0.833008 0.5 1.5 0.5c10 -6.66699 11 -13.334 3 -20.001l-8 -2c-2.66699 -32 -4.83398 -63.333 -6.50098 -94
s-0.5 -59.334 3.5 -86.001c-3.33301 -5.33301 -6.5 -9.16602 -9.5 -11.499s-6.16699 -0.5 -9.5 5.5c-9.33301 27.333 -14 56.166 -14 86.499s1.66699 61.166 5 92.499l-42.5 -9c-15.667 -3.33301 -30.667 -5.83301 -45 -7.5s-27.166 -2 -38.499 -1s-19 4.16699 -23 9.5
c-4 4 -4.5 12.667 -1.5 26s8 29.833 15 49.5s15.5 41.334 25.5 65.001s20.667 47.667 32 72l34 71.5l31 63c6.66699 7.33301 12.334 4.33301 17.001 -9l-42.5 -92c-15.667 -34.667 -29.834 -68.167 -42.501 -100.5s-22.334 -60.666 -29.001 -84.999
s-7.33398 -39.166 -2.00098 -44.499c2 -3.33301 7 -5 15 -5s17.5 0.833008 28.5 2.5s22.833 4 35.5 7l36 8.5c2.66699 22.667 5.5 44.834 8.5 66.501s5.16699 42.5 6.5 62.5z" />
    <glyph glyph-name="five" unicode="5" horiz-adv-x="288" 
d="M62 530c-5.33301 2.66699 -8.33105 5.49707 -8.99805 8.49707s0 6.16699 2 9.5c8.66699 4 21.834 6.83301 39.501 8.5s36.334 2.66699 56.001 3s38.667 0.333008 57 0s32.5 -0.166016 42.5 0.500977c11.333 -6 11.666 -12.333 0.999023 -19
c-4 -2.66699 -11.5 -4.5 -22.5 -5.5s-23.5 -1.66699 -37.5 -2s-29 -0.5 -45 -0.5s-31 -0.333008 -45 -1c0 -10 -0.666992 -21.333 -2 -34s-2.5 -25.667 -3.5 -39s-1.33301 -26.666 -1 -39.999s1.83301 -26 4.5 -38c18 -2 36.167 -3.5 54.5 -4.5
s35.166 -6.83301 50.499 -17.5c23.333 -17.333 40.666 -37.5 51.999 -60.5s17.5 -46.667 18.5 -71s-2.33301 -48.5 -10 -72.5s-18.5 -45.167 -32.5 -63.5s-30.333 -32.833 -49 -43.5s-38.667 -15 -60 -13c-20 1.33301 -38.667 7.5 -56 18.5s-30.833 25.5 -40.5 43.5
s-14.334 38.667 -14.001 62s7.83301 48.666 22.5 75.999c4.66699 4.66699 8.16699 5.83398 10.5 3.50098s4.16602 -6.83301 5.49902 -13.5c-10 -18 -15.667 -36.833 -17 -56.5s1.33398 -37.5 8.00098 -53.5s17.5 -29.333 32.5 -40s34.167 -16 57.5 -16
c21.333 0 39.166 6 53.499 18s25.333 27.333 33 46s12.5 39.334 14.5 62.001s1.66699 44.5 -1 65.5s-7.5 40 -14.5 57s-15.5 28.833 -25.5 35.5c-7.33301 4.66699 -16.166 8 -26.499 10s-21.333 3.16699 -33 3.5s-23 0.5 -34 0.5s-20.833 0.666992 -29.5 2
c-4 14 -6.16699 29 -6.5 45s0.5 31.667 2.5 47s4.5 30 7.5 44s5.5 26.333 7.5 37z" />
    <glyph glyph-name="six" unicode="6" horiz-adv-x="259" 
d="M195 569c10.667 1.33301 13.3369 -4.33496 8.00391 -17.002c-29.333 -11.333 -54 -29.666 -74 -54.999s-36 -54 -48 -86s-20.167 -65.667 -24.5 -101s-4.83301 -68.333 -1.5 -99c8 23.333 20.333 39 37 47s34.167 10.333 52.5 7s35.5 -11.166 51.5 -23.499
s27.333 -27.333 34 -45s6.66699 -37.167 0 -58.5s-23.667 -42.333 -51 -63c-12.667 -10.667 -27.334 -16 -44.001 -16c-28.667 0 -52.334 10.5 -71.001 31.5s-32.334 48 -41.001 81s-11.834 69.5 -9.50098 109.5s10.5 78.833 24.5 116.5s34 72 60 103s58.333 53.833 97 68.5
zM135.003 77.999c12.667 0 23.333 4.33203 32 12.999c20 18 31.5 36.167 34.5 54.5s1 34.833 -6 49.5s-17.333 26.5 -31 35.5s-27.667 13.333 -42 13s-27 -6.16602 -38 -17.499s-17.167 -30 -18.5 -56l-4 -4c6 -26 15.167 -47.167 27.5 -63.5s27.5 -24.5 45.5 -24.5z" />
    <glyph glyph-name="seven" unicode="7" horiz-adv-x="256" 
d="M76 251c-5.33301 2.66699 -7.66602 5.83691 -6.99902 9.50391s2.33398 7.16699 5.00098 10.5c10 0 19.667 1 29 3c13.333 46 30.166 90.833 50.499 134.5l57.5 128.5c-16.667 -9.33301 -35.667 -16.333 -57 -21s-41.333 -8.83398 -60 -12.501
s-34.167 -7.33398 -46.5 -11.001s-17.833 -9.16699 -16.5 -16.5c2 -14.667 2.66699 -25.334 2 -32.001c-11.333 -11.333 -18 -11.333 -20 0c0 10.667 -1 20.667 -3 30s-2.83301 17.5 -2.5 24.5s2.66602 12.833 6.99902 17.5s13.166 8.33398 26.499 11.001l173 35
c4.66699 2.66699 8.83398 5.5 12.501 8.5s6.5 4.83301 8.5 5.5s3.5 -0.333008 4.5 -3s1.16699 -8 0.5 -16c-13.333 -44.667 -28.833 -90.167 -46.5 -136.5s-33.834 -93.5 -48.501 -141.5h8c2.66699 -3.33301 4.33398 -6.5 5.00098 -9.5s-1 -6.16699 -5 -9.5
c-6.66699 0 -11.334 -0.333008 -14.001 -1c-10.667 -34 -19.167 -67.833 -25.5 -101.5s-10.166 -66.834 -11.499 -99.501c-5.33301 -6 -9.5 -8.83301 -12.5 -8.5s-5.5 2.16602 -7.5 5.49902c-5.33301 33.333 -6.5 66.5 -3.5 99.5s9.16699 65.833 18.5 98.5
c-3.33301 -0.666992 -6.83301 -1.16699 -10.5 -1.5s-7.16699 -0.5 -10.5 -0.5zM223 565.003l-1 -2.00098c0 0.666992 0.333008 1.33398 1 2.00098z" />
    <glyph glyph-name="eight" unicode="8" horiz-adv-x="271" 
d="M74 409c-15.333 21.333 -22.5 40.6719 -21.5 58.0049s7 32.166 18 44.499s25.167 21.666 42.5 27.999s34.666 9.16602 51.999 8.49902s33.166 -5.16699 47.499 -13.5s23.833 -21 28.5 -38s2.66699 -38.833 -6 -65.5s-27 -58.667 -55 -96
c-5.33301 -2 -9.5 -2.33301 -12.5 -1s-4.16699 5.66602 -3.5 12.999c28.667 38 46.334 69.5 53.001 94.5s6.83398 44.5 0.500977 58.5s-17.166 23 -32.499 27s-31 4 -47 0s-30 -11.333 -42 -22s-18 -23.667 -18 -39c0 -11.333 7.5 -27.333 22.5 -48l51 -70
c19 -26 37.5 -53.167 55.5 -81.5s30.167 -55.833 36.5 -82.5s4.33301 -51.5 -6 -74.5s-34.5 -41.5 -72.5 -55.5c-28 -10.667 -52 -12.667 -72 -6s-35.667 18.5 -47 35.5s-18.333 37.5 -21 61.5s-0.833984 48.5 5.49902 73.5s17 48.667 32 71s34.833 40.166 59.5 53.499
l-25 35.5zM158 73.0059c22.667 8 37 21.168 43 39.501s6.5 39.166 1.5 62.499s-14 48.166 -27 74.499s-27.5 51.833 -43.5 76.5c-21.333 -11.333 -38.833 -26.666 -52.5 -45.999s-23.5 -39.833 -29.5 -61.5s-8.33301 -43.167 -7 -64.5s6.5 -39.5 15.5 -54.5
s21.833 -25.333 38.5 -31s37 -4.16699 61 4.5z" />
    <glyph glyph-name="nine" unicode="9" horiz-adv-x="287" 
d="M208 550c4.66699 6 10.001 8.00098 16.001 6.00098c10.667 -26.667 19 -56.667 25 -90s8.83301 -67.166 8.5 -101.499s-4.16602 -67.833 -11.499 -100.5s-19.333 -61.5 -36 -86.5s-38 -45 -64 -60s-58 -21.833 -96 -20.5c-8.66699 7.33301 -8.66699 13.666 0 18.999
c30 0 55.5 6.66699 76.5 20s38.333 31 52 53s24 47 31 75s11.667 56.667 14 86s2.5 58.5 0.5 87.5s-5.33301 55.5 -10 79.5l-21 -52c-8 -19.333 -17 -37.333 -27 -54s-21.167 -30.667 -33.5 -42s-25.5 -17 -39.5 -17c-10.667 0 -20.834 2.66699 -30.501 8
s-18.167 11.666 -25.5 18.999c-15.333 14.667 -23.5 30.5 -24.5 47.5s2.66699 33.5 11 49.5s20.166 30.667 35.499 44s31.833 23.833 49.5 31.5s35.5 11.667 53.5 12s33.333 -4.16699 46 -13.5zM196.001 534.001c-9.33301 6.66699 -20.3311 9.00293 -32.998 7.00293
s-25.667 -6.66699 -39 -14s-26.166 -16.833 -38.499 -28.5s-22.333 -23.834 -30 -36.501s-12.334 -25 -14.001 -37s1.5 -22.333 9.5 -31c5.33301 -6 11.666 -11.333 18.999 -16s15 -7 23 -7c13.333 0 25.166 6.16699 35.499 18.5s19.5 27.166 27.5 44.499
s15.5 35.166 22.5 53.499s13.5 33.833 19.5 46.5h-2zM224.003 545.004c-0.666992 -0.666992 -1 -1.66699 -1 -3c0 0.666992 0.166992 1.16699 0.5 1.5s0.5 0.833008 0.5 1.5z" />
    <glyph glyph-name="colon" unicode=":" horiz-adv-x="85" 
d="M45 274c5.33301 0 9.33203 -2 11.999 -6s3.83398 -8.33301 3.50098 -13s-2 -9.16699 -5 -13.5s-6.83301 -6.5 -11.5 -6.5c-5.33301 -0.666992 -9.5 1 -12.5 5s-4.66699 8.5 -5 13.5s1 9.66699 4 14s7.83301 6.5 14.5 6.5zM44.999 116c5.33301 0 9.33203 -2 11.999 -6
s3.83398 -8.33301 3.50098 -13s-2 -9.16699 -5 -13.5s-6.83301 -6.5 -11.5 -6.5c-5.33301 -0.666992 -9.5 1 -12.5 5s-4.66699 8.5 -5 13.5s1 9.66699 4 14s7.83301 6.5 14.5 6.5z" />
    <glyph glyph-name="semicolon" unicode=";" horiz-adv-x="88" 
d="M45 274c5.33301 0 9.33203 -2 11.999 -6s3.83398 -8.33301 3.50098 -13s-2 -9.16699 -5 -13.5s-6.83301 -6.5 -11.5 -6.5c-5.33301 -0.666992 -9.5 1 -12.5 5s-4.66699 8.5 -5 13.5s1 9.66699 4 14s7.83301 6.5 14.5 6.5zM41.999 60
c-3.33301 -2 -6.33008 -2.33203 -8.99707 -0.999023s-3.33398 4.33301 -2.00098 9c2.66699 6.66699 4.16699 12 4.5 16s0.166016 7 -0.500977 9s-1.66699 3.16699 -3 3.5s-2 0.833008 -2 1.5c-6 7.33301 -7.33301 13.666 -4 18.999s7.66602 8.33301 12.999 9
c8 0.666992 13.167 -1.83301 15.5 -7.5s3 -12.5 2 -20.5s-3 -15.667 -6 -23s-5.83301 -12.333 -8.5 -15z" />
    <glyph glyph-name="less" unicode="&#x3c;" horiz-adv-x="229" 
d="M51 166c-6.66699 1.33301 -11.0049 5.83594 -13.0049 13.5029s1 13.5 9 17.5c10.667 6 22.334 11.833 35.001 17.5s25 11.5 37 17.5s22.833 12.167 32.5 18.5s16.834 12.833 21.501 19.5c3.33301 3.33301 6.83301 4.16602 10.5 2.49902s5.5 -6.16699 5.5 -13.5
c-5.33301 -8 -12.666 -15.833 -21.999 -23.5s-19.166 -15 -29.499 -22s-21 -13.333 -32 -19l-29.5 -15.5c17.333 -6 33.833 -13.333 49.5 -22s31.834 -16.334 48.501 -23.001c3.33301 -4 4.66602 -8.33301 3.99902 -13s-4.33398 -6.66699 -11.001 -6
c-19.333 8 -38.166 16.667 -56.499 26s-38.166 17.666 -59.499 24.999z" />
    <glyph glyph-name="equal" unicode="=" horiz-adv-x="198" 
d="M31 189c-4 3.33301 -6.33301 6.66699 -7 10s1.66602 6.33301 6.99902 9h68c24 0 46.667 0.666992 68 2c12 -2 12.333 -8.33301 1 -19c-21.333 -1.33301 -44.166 -2 -68.499 -2h-68.5zM30 135.001c-8.66699 4.66699 -8.66699 11 0 19l138 2c12 -6 12 -12.333 0 -19z" />
    <glyph glyph-name="greater" unicode="&#x3e;" horiz-adv-x="229" 
d="M42 238c-2 2 -2.67285 5.66797 -2.00586 11.001s5.33398 6.66602 14.001 3.99902s17.834 -6 27.501 -10s19.334 -8.33301 29.001 -13s19.334 -8.83398 29.001 -12.501s19.167 -6.5 28.5 -8.5c9.33301 -2.66699 11.333 -8.66699 6 -18
c-13.333 -6.66699 -25.333 -13.167 -36 -19.5l-31 -18.5l-31 -18l-35 -19c-4 0 -7.5 2 -10.5 6s-2.5 7.33301 1.5 10c10.667 5.33301 19.834 10.333 27.501 15l23 14l23 14l27.5 16c-18.667 5.33301 -36.667 12.333 -54 21s-29.666 17.334 -36.999 26.001z" />
    <glyph glyph-name="question" unicode="?" horiz-adv-x="437" 
d="M93 344c0 -10.667 -5.33398 -14.3311 -16.001 -10.998c-16.667 20 -28.167 41 -34.5 63s-8.66602 43.667 -6.99902 65s6.83398 41.833 15.501 61.5s20 37.334 34 53.001s30.167 28.5 48.5 38.5s37.5 16.333 57.5 19c26 3.33301 51.667 4.33301 77 3
s48.166 -6.5 68.499 -15.5s37.166 -22.5 50.499 -40.5s21 -41.667 23 -71c1.33301 -24 -4.33398 -49.333 -17.001 -76s-28.834 -53.167 -48.501 -79.5s-41.167 -52.166 -64.5 -77.499l-65 -71c-20 -22 -36.5 -41.667 -49.5 -59s-18.833 -31.333 -17.5 -42
c-10 -10 -16.667 -10.667 -20 -2c-1.33301 12.667 3.5 28.167 14.5 46.5s25 38.5 42 60.5l56 69.5c20.333 24.333 39.333 49.166 57 74.499s32.334 50.5 44.001 75.5s17.5 49.167 17.5 72.5c0 22 -4.83301 41.167 -14.5 57.5s-22.167 29.166 -37.5 38.499
s-32.666 15.666 -51.999 18.999s-38.666 3 -57.999 -1c-32 -6 -58.167 -20 -78.5 -42s-35 -46.667 -44 -74s-12 -55.333 -9 -84s12.167 -52.334 27.5 -71.001zM141.999 45.0029c6 0 10.168 -1.66602 12.501 -4.99902s3.16602 -7 2.49902 -11s-2.5 -7.66699 -5.5 -11
s-6.83301 -5 -11.5 -5c-5.33301 -0.666992 -9.5 0.666016 -12.5 3.99902s-4.5 7 -4.5 11s1.5 7.83301 4.5 11.5s7.83301 5.5 14.5 5.5z" />
    <glyph glyph-name="at" unicode="@" horiz-adv-x="325" 
d="M272 214c0 33.333 -5.33008 59.335 -15.9971 78.002s-24.167 31.334 -40.5 38.001s-34 7.5 -53 2.5s-36.667 -14.667 -53 -29s-29.833 -33 -40.5 -56s-16 -49.167 -16 -78.5c0 -32.667 7 -60.667 21 -84s31.833 -38.833 53.5 -46.5s45.834 -5.5 72.501 6.5
s52.667 37.333 78 76c5.33301 6.66699 9.33301 7.83398 12 3.50098s3 -8.5 1 -12.5c-19.333 -29.333 -39.5 -51.333 -60.5 -66s-41.667 -23.834 -62 -27.501s-39.833 -2 -58.5 5s-35 17.5 -49 31.5s-25.167 31.167 -33.5 51.5s-12.5 42.166 -12.5 65.499
c0 24 4.16699 47.5 12.5 70.5s20.166 43.333 35.499 61s33.666 31.5 54.999 41.5s45 14 71 12c19.333 -1.33301 36 -8.16602 50 -20.499s25.333 -27.333 34 -45s14.334 -36.5 17.001 -56.5s2 -38.333 -2 -55s-11.5 -30.167 -22.5 -40.5s-25.5 -14.5 -43.5 -12.5
c-14 1.33301 -24.333 7.66602 -31 18.999s-10.667 23.666 -12 36.999c-9.33301 -12.667 -19 -24.334 -29 -35.001s-17.333 -15.667 -22 -15c-17.333 2 -29 7.66699 -35 17s-8.33301 19.833 -7 31.5s5.83301 23.334 13.5 35.001s16.667 21 27 28s21.166 10.333 32.499 10
s21.333 -6.5 30 -18.5c0.666992 0 1 0.333008 1 1c5.33301 1.33301 10.166 1.66602 14.499 0.999023s5.83301 -4 4.5 -10c-5.33301 -25.333 -5 -44.5 1 -57.5s13.667 -20 23 -21s18.166 4 26.499 15s12.5 27.5 12.5 49.5zM178.003 217.002
c-2.66699 10 -7.33301 15.6689 -14 17.002c-7.33301 0 -15 -4.16699 -23 -12.5s-14.167 -17.5 -18.5 -27.5s-6.33301 -19.167 -6 -27.5s4.83301 -12.833 13.5 -13.5c9.33301 9.33301 18 19.166 26 29.499s15.333 21.166 22 32.499v2z" />
    <glyph glyph-name="A" unicode="A" horiz-adv-x="1325" 
d="M373 183c-5.33301 -1.33301 -9.16504 -0.998047 -11.498 1.00195s-2.83301 6.66699 -1.5 14c10.667 9.33301 24.667 15.5 42 18.5s37 3.5 59 1.5s46 -5.66699 72 -11s53 -12 81 -20c30 54 58.167 108 84.5 162l71.5 150.5l55.5 123l35.5 80.5l19 42.5l33 73
c12.667 27.667 26.5 56.334 41.5 86.001s29.667 56.834 44 81.501s27.833 44.5 40.5 59.5s23.334 21.5 32.001 19.5c10.667 -2.66699 19.834 -14 27.501 -34s14.167 -44.667 19.5 -74s9.83301 -61.5 13.5 -96.5s6.5 -68.333 8.5 -100s3.5 -59.5 4.5 -83.5
s1.5 -40.333 1.5 -49c0 -18.667 -0.333008 -45.5 -1 -80.5s-1.16699 -75.167 -1.5 -120.5s-0.5 -94.833 -0.5 -148.5s0.666992 -108.5 2 -164.5c26.667 10.667 48 26.334 64 47.001c6.66699 6 12 2 16 -12c-21.333 -26.667 -48 -45.334 -80 -56.001
c2 -73.333 6 -146 12 -218s14.667 -137.333 26 -196s26 -107.834 44 -147.501s40.333 -63.5 67 -71.5c8 -8 6.33301 -14.333 -5 -19c-29.333 8.66699 -54.5 32 -75.5 70s-38.5 86 -52.5 144s-25.333 123.667 -34 197s-15.334 150 -20.001 230
c-33.333 -6.66699 -69.833 -8.16699 -109.5 -4.5s-80.334 10 -122.001 19s-83.5 19.5 -125.5 31.5l-121 34c-30.667 -55.333 -62.667 -109 -96 -161s-67.666 -99 -102.999 -141s-71.166 -77 -107.499 -105s-72.5 -45.833 -108.5 -53.5s-71.5 -3.33398 -106.5 12.999
s-68.833 48.166 -101.5 95.499c-2 5.33301 -1.33301 8.83301 2 10.5s8 2.16699 14 1.5c29.333 -40.667 60.166 -67.5 92.499 -80.5s65.166 -15.333 98.499 -7s67 26 101 53s67.5 60 100.5 99s65.5 82.833 97.5 131.5s62.667 99 92 151
c-26.667 7.33301 -51.834 13.666 -75.501 18.999s-45.334 8.83301 -65.001 10.5s-37.167 1.5 -52.5 -0.5s-28 -7 -38 -15zM1066 1047c-6.66699 -1.33301 -15.333 -10 -26 -26s-22.5 -35.833 -35.5 -59.5s-26.333 -49.667 -40 -78l-38 -81l-31 -68
c-9 -19.667 -14.833 -32.834 -17.5 -39.501l-35.5 -83l-53.5 -123l-69 -148.5c-25.333 -53 -52.666 -106.5 -81.999 -160.5l122 -34c42 -12 83.333 -22.333 124 -31s80 -14.667 118 -18s72.667 -1.66602 104 5.00098c-4 70.667 -6.83301 142.334 -8.5 215.001s-3 143 -4 211
s-1.83301 132 -2.5 192s-1.83398 113.167 -3.50098 159.5s-4.16699 84.166 -7.5 113.499s-8 47.333 -14 54z" />
    <glyph glyph-name="B" unicode="B" horiz-adv-x="1200" 
d="M470 612c-9.33301 -9.33301 -15.8379 -13.6641 -19.5049 -12.9971s-5.5 3.16699 -5.5 7.5s1.16699 9.5 3.5 15.5s4.83301 9.66699 7.5 11c4 1.33301 7 2.66602 9 3.99902c9.33301 18.667 16.166 38 20.499 58s7.16602 40.667 8.49902 62c2 59.333 -6 110.166 -24 152.499
s-41.333 75.833 -70 100.5s-60.167 40.167 -94.5 46.5s-66.5 3 -96.5 -10s-55.5 -35.833 -76.5 -68.5s-32.5 -76 -34.5 -130c-1.33301 -31.333 1.5 -62.666 8.5 -93.999s19.167 -60.333 36.5 -87c-2 -7.33301 -4.5 -11.333 -7.5 -12s-6.16699 -0.333984 -9.5 0.999023
c-16.667 26 -29 55 -37 87s-11.667 64.333 -11 97s5.66699 64.167 15 94.5s23.333 56.666 42 78.999s42.334 39.666 71.001 51.999s62.334 16.5 101.001 12.5h-1c26 -3.33301 51 -12.5 75 -27.5s46 -34.167 66 -57.5s37 -49.666 51 -78.999s23.833 -59.333 29.5 -90
s6.5 -61.334 2.5 -92.001s-14 -58.667 -30 -84c34.667 8.66699 71.5 11 110.5 7s78.333 -13.667 118 -29s78.834 -35.5 117.501 -60.5s74.334 -54 107.001 -87s61.5 -69.5 86.5 -109.5s44.167 -82.333 57.5 -127s19.833 -91 19.5 -139s-9.66602 -97 -27.999 -147
s-46.833 -100.167 -85.5 -150.5s-89.334 -99.833 -152.001 -148.5c-69.333 -54 -137.833 -89.833 -205.5 -107.5s-132.167 -21.5 -193.5 -11.5s-118.666 31.5 -171.999 64.5s-100.166 73.167 -140.499 120.5s-73 100 -98 158s-40.167 116.667 -45.5 176
s0.166992 117.333 16.5 174s46.166 107.667 89.499 153c9.33301 6 14 1.66699 14 -13c-37.333 -47.333 -62.833 -99.333 -76.5 -156s-17.334 -114.167 -11.001 -172.5s21.666 -115.166 45.999 -170.499s55.666 -105.5 93.999 -150.5s82.5 -82.667 132.5 -113
s104 -49.666 162 -57.999s118.833 -3.33301 182.5 15s128.167 53.833 193.5 106.5c30.667 24.667 58.834 52.834 84.501 84.501s47.834 65.5 66.501 101.5s33.334 73.667 44.001 113s17 78.666 19 117.999c2.66699 58.667 -4.66602 115.834 -21.999 171.501
s-42.5 107.167 -75.5 154.5s-72.667 89 -119 125s-97.166 63.667 -152.499 83c-32.667 11.333 -66.667 17.166 -102 17.499s-69.333 -5.83398 -102 -18.501zM328.995 721.002c2.66699 4 5.66406 6.33105 8.99707 6.99805s6.66602 -1.66602 9.99902 -6.99902
c-1.33301 -22 -3.66602 -49.667 -6.99902 -83l-10.5 -108c-3.66699 -38.667 -6.66699 -78.5 -9 -119.5s-3.16602 -80 -2.49902 -117s3.66699 -70.333 9 -100s14 -52.5 26 -68.5c2.66699 -12 -2.66602 -16 -15.999 -12c-13.333 17.333 -23.666 41 -30.999 71
s-12.5 63.5 -15.5 100.5s-4 75.833 -3 116.5s3.33301 80.667 7 120s8.5 76.333 14.5 111s12.333 64.334 19 89.001z" />
    <glyph glyph-name="C" unicode="C" horiz-adv-x="707" 
d="M540 480c-7.33301 2 -11.1709 4.50293 -11.5039 7.50293s0.166992 6.16699 1.5 9.5c18.667 10.667 37 28.667 55 54s34 54.5 48 87.5s25.5 67.833 34.5 104.5s14.167 72 15.5 106s-1.83398 64.667 -9.50098 92s-21.167 47.666 -40.5 60.999
c-7.33301 5.33301 -17.166 9.33301 -29.499 12s-23.166 4 -32.499 4c-38 0 -75.333 -11.667 -112 -35s-72 -53.666 -106 -90.999s-66 -79.5 -96 -126.5s-57.167 -94.167 -81.5 -141.5s-45.333 -92.5 -63 -135.5s-31.167 -79.5 -40.5 -109.5
c-17.333 -54 -31.333 -108.667 -42 -164s-16 -111.333 -16 -168c0 -47.333 5.66699 -92.666 17 -135.999s28.833 -82.166 52.5 -116.499s54 -62.833 91 -85.5s81.167 -36.334 132.5 -41.001c28.667 -2.66699 57.334 5.16602 86.001 23.499s56.5 42.833 83.5 73.5
s52.833 65.334 77.5 104.001s47 77.5 67 116.5s37.333 75.833 52 110.5s26 63 34 85c2 3.33301 4.33301 5.66602 7 6.99902s6.33398 -3.33398 11.001 -14.001c-8.66699 -24.667 -20.667 -55 -36 -91s-33.166 -74 -53.499 -114s-43 -79.833 -68 -119.5
s-51.667 -74.834 -80 -105.501s-57.833 -55 -88.5 -73s-62 -25.333 -94 -22c-53.333 5.33301 -101.5 20.166 -144.5 44.499s-79.667 55.5 -110 93.5s-53.666 81.167 -69.999 129.5s-24.5 99.5 -24.5 153.5c0 58 3.83301 111.5 11.5 160.5s21.5 100.5 41.5 154.5
c11.333 31.333 27.666 69.333 48.999 114s46.166 91.167 74.499 139.5s59.833 96.333 94.5 144s70.834 90.5 108.501 128.5s76.5 68.667 116.5 92s79.667 35 119 35c11.333 0 23.833 -1.66699 37.5 -5s25.167 -8 34.5 -14c22 -14.667 37.5 -36.5 46.5 -65.5
s13.167 -61.5 12.5 -97.5s-5.66699 -73.667 -15 -113s-21.5 -76.5 -36.5 -111.5s-32 -66 -51 -93s-38.833 -46.5 -59.5 -58.5z" />
    <glyph glyph-name="D" unicode="D" horiz-adv-x="1099" 
d="M169 666c-6 -11.333 -12.6631 -11.668 -19.9961 -1.00098c-0.666992 27.333 4.66602 55.666 15.999 84.999s27 57.833 47 85.5s43.167 53.834 69.5 78.501s54 46.167 83 64.5s58.5 32.833 88.5 43.5s58.333 16 85 16c48.667 -0.666992 94.834 -12.5 138.501 -35.5
s84 -53.5 121 -91.5s70 -81.333 99 -130s53.167 -99 72.5 -151s33.666 -103.5 42.999 -154.5s12.333 -97.5 9 -139.5c-8 -115.333 -28.333 -214.666 -61 -297.999s-73 -152.5 -121 -207.5s-101.333 -97.333 -160 -127s-118 -48.667 -178 -57s-118.667 -7.33301 -176 3
s-108.5 28 -153.5 53s-81.667 56 -110 93s-43.5 77.667 -45.5 122s11 91.5 39 141.5s76 100.333 144 151c10.667 2 14.667 -3.33301 12 -16c-62 -44 -105.5 -88.5 -130.5 -133.5s-35.833 -88 -32.5 -129s18.5 -78.833 45.5 -113.5s61.667 -63.834 104 -87.501
s90.166 -40.667 143.499 -51s107.666 -11.833 162.999 -4.5s109.5 24.833 162.5 52.5s100.833 67.834 143.5 120.501s77.667 118.834 105 198.501s42.666 175.167 45.999 286.5c1.33301 39.333 -1.33398 83.666 -8.00098 132.999s-17.5 99.333 -32.5 150
s-34.167 100.167 -57.5 148.5s-50.833 91.166 -82.5 128.499s-67.834 67.5 -108.501 90.5s-85.667 34.5 -135 34.5c-25.333 0 -52.166 -5 -80.499 -15s-56.166 -23.667 -83.499 -41s-53.5 -37.5 -78.5 -60.5s-47 -47.667 -66 -74s-33.833 -53.166 -44.5 -80.499
s-15.667 -54.333 -15 -81zM459.004 630.998c3.33301 3.33301 6.50586 5.66895 9.50586 7.00195s6.5 -1.33398 10.5 -8.00098c-4.66699 -94.667 -8.83398 -189 -12.501 -283s-0.833984 -188.333 8.49902 -283c-4 -6 -7.5 -8.66699 -10.5 -8s-6.16699 2.66699 -9.5 6
c-4.66699 47.333 -8.83398 95 -12.501 143s-5.83398 96 -6.50098 144s0.666016 95.667 3.99902 143s9.66602 93.666 18.999 138.999z" />
    <glyph glyph-name="E" unicode="E" horiz-adv-x="786" 
d="M576 756c-9.33301 6 -11.668 11.998 -7.00098 17.998c26 9.33301 49 23 69 41s36.333 37.667 49 59s21.5 43 26.5 65s5.33301 42 1 60s-13.5 32.833 -27.5 44.5s-33.667 17.5 -59 17.5c-19.333 0 -42.333 -3.83301 -69 -11.5s-54.334 -18 -83.001 -31
s-57.167 -28.5 -85.5 -46.5s-53.666 -37.167 -75.999 -57.5s-40.5 -41.5 -54.5 -63.5s-21 -44 -21 -66c0 -41.333 9 -74.666 27 -99.999s41.333 -44.666 70 -57.999s60.834 -21.666 96.501 -24.999s70.834 -3.66602 105.501 -0.999023c34 8 70 14 108 18
c4 -0.666992 6.66699 -2.16699 8 -4.5s0 -7.16602 -4 -14.499c-25.333 -6 -52.333 -11 -81 -15c-82.667 -18 -154.5 -45.833 -215.5 -83.5s-112.167 -81.334 -153.5 -131.001s-73.333 -103 -96 -160s-37.167 -114 -43.5 -171s-5 -111.667 4 -164s24.5 -98.833 46.5 -139.5
s50 -73 84 -97s72.667 -36 116 -36c41.333 0 80 9.83301 116 29.5s69.333 45.667 100 78s59 69 85 110s49.667 82.833 71 125.5s40.666 84.5 57.999 125.5l45 109.5c8 8.66699 14.333 6.33398 19 -6.99902l-47.5 -113c-17.667 -42 -37.5 -85 -59.5 -129
s-46.5 -86.833 -73.5 -128.5s-56.5 -78.834 -88.5 -111.501s-66.667 -59 -104 -79s-77.666 -30 -120.999 -30c-51.333 0 -97 11.5 -137 34.5s-73.5 54 -100.5 93s-47.167 84.167 -60.5 135.5s-18.833 105.166 -16.5 161.499s13.166 113.166 32.499 170.499
s47.833 111.666 85.5 162.999s85.167 98 142.5 140s125.666 75.333 204.999 100c-30.667 1.33301 -60.167 5.83301 -88.5 13.5s-53.666 19.334 -75.999 35.001s-40.5 36.167 -54.5 61.5s-22 56.666 -24 93.999c-2 32.667 4 62.667 18 90s32.667 51.833 56 73.5
s50 40.834 80 57.501s60.5 30.5 91.5 41.5s60.833 19.167 89.5 24.5s53.334 8 74.001 8c29.333 0 52.5 -6.5 69.5 -19.5s28.5 -29.833 34.5 -50.5s6.66699 -43.5 2 -68.5s-13.834 -49.5 -27.501 -73.5s-31.667 -46 -54 -66s-47.833 -35.333 -76.5 -46z" />
    <glyph glyph-name="F" unicode="F" horiz-adv-x="1038" 
d="M595 126c-1.33301 -10.667 -7.66113 -11.3359 -18.9941 -2.00293c-2.66699 30.667 2.16602 55 14.499 73s29.333 31.667 51 41s46.834 15.666 75.501 18.999s58.334 5.66602 89.001 6.99902c6 78 11 156.333 15 235s7.5 152.334 10.5 221.001s6.16699 130 9.5 184
s7.66602 95.667 12.999 125c-37.333 -40 -79.333 -75.333 -126 -106s-95.167 -58.5 -145.5 -83.5s-100.833 -47.833 -151.5 -68.5l-144 -60c-45.333 -19.333 -86.166 -38.666 -122.499 -57.999s-65.5 -40.333 -87.5 -63c-25.333 -26 -41.666 -51.167 -48.999 -75.5
s-8 -46.333 -2 -66s17.5 -36.167 34.5 -49.5s37 -21.833 60 -25.5s48 -2 75 5s53.5 20.833 79.5 41.5c6.66699 2.66699 10.667 2.33398 12 -0.999023s1.66602 -8.33301 0.999023 -15c-28.667 -23.333 -58.167 -38.666 -88.5 -45.999s-58.5 -8.33301 -84.5 -3
s-48.833 15.666 -68.5 30.999s-33 34.333 -40 57s-6.5 47.834 1.5 75.501s26.333 56.167 55 85.5c24 24 55.5 46.333 94.5 67s82.167 41.167 129.5 61.5l150.5 63c53 21.667 105.167 45.667 156.5 72s100.333 55.833 147 88.5s88 70.334 124 113.001v-1l2 3
c4.66699 3.33301 8 3.33301 10 0s2.33301 -8.33301 1 -15c-0.666992 -4.66699 -0.833984 -19 -0.500977 -43s0.5 -54.833 0.5 -92.5v-131.5c0 -50 -0.5 -103.333 -1.5 -160s-2.83301 -115.834 -5.5 -177.501s-6.33398 -123.167 -11.001 -184.5c36 2 69.667 5.83301 101 11.5
s56.333 17.167 75 34.5c8 9.33301 12.667 4.66602 14 -14.001c-20.667 -19.333 -48.167 -32 -82.5 -38s-70.5 -10.333 -108.5 -13c-7.33301 -86 -17.333 -168.833 -30 -248.5s-29 -149.5 -49 -209.5s-44.5 -107 -73.5 -141s-63.167 -48.333 -102.5 -43
c-16 2 -31.333 9.33301 -46 22s-27.834 28.334 -39.501 47.001s-21.667 39.334 -30 62.001s-14.166 45 -17.499 67s-3.83301 42.833 -1.5 62.5s8.16602 36.167 17.499 49.5c11.333 8 16.666 4 15.999 -12c-8 -11.333 -12.667 -25.833 -14 -43.5s-0.5 -36.5 2.5 -56.5
s8.16699 -40.167 15.5 -60.5s16.166 -38.833 26.499 -55.5s21.666 -30.667 33.999 -42s25.5 -18 39.5 -20c30 -4 56 10.333 78 43s40.667 77.834 56 135.501s28.166 124.667 38.499 201s18.833 156.166 25.5 239.499c-28.667 -2 -56.167 -4.5 -82.5 -7.5
s-49.333 -8.5 -69 -16.5s-35 -19.5 -46 -34.5s-15.167 -35.167 -12.5 -60.5z" />
    <glyph glyph-name="G" unicode="G" horiz-adv-x="960" 
d="M673 264c-2 6 -2.99902 11.001 -2.99902 15.001s4.33301 4.66699 13 2c32 -19.333 65 -34.5 99 -45.5s70 -14.5 108 -10.5c5.33301 -1.33301 8.66602 -3.66602 9.99902 -6.99902s-1.33398 -7.33301 -8.00098 -12c-9.33301 -1.33301 -18.333 -2.16602 -27 -2.49902
s-17.334 0.166992 -26.001 1.5c10 -29.333 16.667 -64.333 20 -105s3.83301 -84.334 1.5 -131.001s-8 -95 -17 -145s-21.167 -98.833 -36.5 -146.5s-33.666 -92.834 -54.999 -135.501s-46 -80 -74 -112s-59.333 -57.5 -94 -76.5s-72.334 -28.5 -113.001 -28.5
c-7.33301 5.33301 -10.5 9.33301 -9.5 12s3.83301 5 8.5 7c36.667 0 69.667 8.5 99 25.5s55.833 40 79.5 69s44.334 62.667 62.001 101s32.834 79 45.501 122s23.334 87 32.001 132s15.334 88.333 20.001 130s7.66699 80.667 9 117s1.66602 67.166 0.999023 92.499
c-16.667 -78.667 -40.334 -151.167 -71.001 -217.5s-65.667 -124.5 -105 -174.5s-81.5 -90.333 -126.5 -121s-90 -49.334 -135 -56.001s-88.667 0 -131 20s-80.166 55.5 -113.499 106.5s-60.833 119 -82.5 204s-34.5 189.5 -38.5 313.5
c-2.66699 78.667 4.16602 154.167 20.499 226.5s39.333 140 69 203s64.834 120.333 105.501 172s84 96.167 130 133.5s93.333 66.333 142 87s96 31.5 142 32.5s89.333 -8.83301 130 -29.5s76 -53.667 106 -99s53.167 -104.166 69.5 -176.499s23.166 -159.833 20.499 -262.5
c-6 -4.66699 -10.333 -6.5 -13 -5.5s-4.66699 3.16699 -6 6.5c0 124.667 -12.667 226.5 -38 305.5s-58.5 138.333 -99.5 178s-87.667 61.334 -140 65.001s-105.833 -7 -160.5 -32s-107.834 -63 -159.501 -114s-97.5 -111.333 -137.5 -181s-71.667 -147 -95 -232
s-33.666 -174.5 -30.999 -268.5c3.33301 -126 15.333 -231.333 36 -316s46.834 -151.5 78.501 -200.5s67.5 -81.667 107.5 -98s81.167 -18.833 123.5 -7.5s84.5 34.666 126.5 69.999s81 80 117 134s67.333 115.833 94 185.5s46 144.5 58 224.5
c-24.667 4 -48.334 10.833 -71.001 20.5s-45 21.167 -67 34.5z" />
    <glyph glyph-name="H" unicode="H" horiz-adv-x="1113" 
d="M1012 1150c6.66699 12 13.0068 10.668 19.0068 -3.99902c-19.333 -108.667 -33 -223.834 -41 -345.501s-11 -246.167 -9 -373.5c70.667 26.667 133.667 47.5 189 62.5s98 21.167 128 18.5c6 -6.66699 4.66699 -13.334 -4 -20.001
c-28.667 3.33301 -70.334 -2.33398 -125.001 -17.001s-117 -35.334 -187 -62.001c3.33301 -148.667 13.166 -295 29.499 -439s39.166 -279 68.499 -405c-4.66699 -5.33301 -8.33398 -7.83301 -11.001 -7.5s-5.33398 1.5 -8.00098 3.5
c-28.667 125.333 -51.334 259.666 -68.001 402.999s-26.667 289.333 -30 438c-64.667 -25.333 -132.667 -53.833 -204 -85.5l-213 -98.5c1.33301 -64 3.33301 -125.167 6 -183.5s6 -111 10 -158s8.5 -86.5 13.5 -118.5s10.833 -53 17.5 -63h-1c0.666992 0 1 -0.333008 1 -1
c-2 -12 -7.66699 -15 -17 -9c-6 6.66699 -12 17.334 -18 32.001c-27.333 45.333 -58 82 -92 110s-70.667 49.333 -110 64s-81 24 -125 28s-89.333 4.66699 -136 2c-15.333 -0.666992 -30.833 -1.66699 -46.5 -3s-31.5 -3 -47.5 -5c-6 0.666992 -9.5 2 -10.5 4
s1.5 5.66699 7.5 11c24 18 52.667 37.667 86 59c52 32.667 114.333 68.834 187 108.501s150 79.5 232 119.5c-2 54.667 -3 110.167 -3 166.5s0.5 111.5 1.5 165.5s2.83301 105.667 5.5 155s6 94.5 10 135.5s8.66699 76.667 14 107s11.333 53.5 18 69.5
c4.66699 6.66699 11 5 19 -5c-5.33301 -23.333 -9.66602 -61.666 -12.999 -114.999s-6 -115.5 -8 -186.5s-3.16699 -147.333 -3.5 -229s0.5 -162.5 2.5 -242.5l212.5 98.5c71 31.667 138.833 59.834 203.5 84.501c-2.66699 129.333 0.166016 256 8.49902 380
s22.166 241 41.499 351zM55.0068 -50.999c-8 -6.66699 -7.33496 -10 1.99805 -10c12.667 2 25.667 3 39 3c45.333 2.66699 89 2 131 -2s81.667 -12.333 119 -25s72.5 -30.5 105.5 -53.5s63.167 -52.167 90.5 -87.5c-10 48 -18.167 109 -24.5 183s-11.166 154 -14.499 240
l-124 -63l-113 -60l-98 -55l-79 -47c-6.66699 -4 -12.667 -8 -18 -12s-10.666 -7.66699 -15.999 -11z" />
    <glyph glyph-name="I" unicode="I" horiz-adv-x="413" 
d="M40 827c-12 -10 -18.668 -8.66309 -20.001 4.00391c4 6 14.5 13.167 31.5 21.5s37 17.666 60 27.999l73 32.5c25.667 11.333 49.5 23 71.5 35s40.5 24.167 55.5 36.5s23.167 24.5 24.5 36.5c1.33301 4 3.33301 6.5 6 7.5s7.33398 -1.5 14.001 -7.5
c3.33301 -32 6.16602 -74.833 8.49902 -128.5s3.5 -113.834 3.5 -180.501s-1.5 -137.667 -4.5 -213s-8.16699 -150.5 -15.5 -225.5s-16.833 -147.667 -28.5 -218s-26.334 -133.833 -44.001 -190.5s-38.5 -104.5 -62.5 -143.5s-51.667 -64.5 -83 -76.5
c-1.33301 -0.666992 -4.66602 -1.5 -9.99902 -2.5s-8.66602 -1.16699 -9.99902 -0.5c-15.333 2.66699 -27.333 8 -36 16s-15 17.667 -19 29s-6.5 23.666 -7.5 36.999s-1.5 26.666 -1.5 39.999c0 20.667 2.5 48.5 7.5 83.5s12 73.333 21 115s19.5 84.834 31.5 129.501
s24.833 86.667 38.5 126s28 74.333 43 105s29.833 53 44.5 67c4.66699 2.66699 7.83398 3.83398 9.50098 3.50098s2.83398 -1.5 3.50098 -3.5s0.833984 -4.33301 0.500977 -7s-0.5 -5.33398 -0.5 -8.00098c-10.667 -10 -22.5 -27.5 -35.5 -52.5s-26 -54.833 -39 -89.5
s-25.833 -72.5 -38.5 -113.5s-23.834 -82.333 -33.501 -124s-17.334 -82.167 -23.001 -121.5s-8.66699 -74.333 -9 -105s3 -55.834 10 -75.501s18.167 -30.5 33.5 -32.5c1.33301 0 3.83301 0.333008 7.5 1s6.16699 1.33398 7.5 2.00098
c27.333 8.66699 51.5 31.167 72.5 67.5s39 82 54 137s27.5 117 37.5 186s18.167 140.167 24.5 213.5s11 146.833 14 220.5s5.16699 142.5 6.5 206.5s2 121.167 2 171.5v116.5c-10 -10 -24 -20.5 -42 -31.5s-37.5 -21.833 -58.5 -32.5s-42.5 -21 -64.5 -31l-61 -27.5l-47 -21
c-12.667 -5.66699 -20.334 -9.83398 -23.001 -12.501z" />
    <glyph glyph-name="J" unicode="J" horiz-adv-x="1263" 
d="M219 556c-2.66699 -4 -5.49805 -6.33789 -8.49805 -7.00488s-6.5 2.33301 -10.5 9c4 48 16.5 89.667 37.5 125s47.667 66.5 80 93.5s69.166 51 110.499 72s84.5 40.833 129.5 59.5l136.5 55.5c46 18.333 89.833 38.666 131.5 60.999s80 47.5 115 75.5s64.167 61 87.5 99
l17 -6c-4 -60.667 -6 -123 -6 -187s0.166992 -128.667 0.5 -194s0 -130.666 -1 -195.999s-4.16699 -129.833 -9.5 -193.5s-13.5 -126.167 -24.5 -187.5s-26.5 -120.333 -46.5 -177c47.333 5.33301 87.5 11.5 120.5 18.5s61 15.167 84 24.5s42.333 20.666 58 33.999
s29.834 29.333 42.501 48c8.66699 10 14 6.33301 16 -11c-14 -20.667 -29.833 -38.5 -47.5 -53.5s-39.334 -28 -65.001 -39s-56 -20.333 -91 -28s-77.167 -14.5 -126.5 -20.5c-18 -46 -39.833 -90.333 -65.5 -133s-56 -82.667 -91 -120s-75 -72.166 -120 -104.499
s-96.167 -61.166 -153.5 -86.499c-16.667 -7.33301 -38.334 -13.666 -65.001 -18.999s-56 -9.33301 -88 -12s-65.167 -3.66699 -99.5 -3s-67.333 3.83398 -99 9.50098s-60.667 13.667 -87 24s-47.333 24 -63 41s-24.834 37.333 -27.501 61s4 51.5 20 83.5
c18 36.667 44.5 68.167 79.5 94.5s75.5 48.833 121.5 67.5s96.667 34.167 152 46.5s112.666 22.833 171.999 31.5s119.5 15.834 180.5 21.501s120.167 11.5 177.5 17.5c30.667 84.667 52.667 173.834 66 267.501s23 188.334 29 284.001s10.333 190.167 13 283.5
s9 182 19 266c-26.667 -34.667 -58.167 -64.834 -94.5 -90.501s-75.166 -48.667 -116.499 -69s-84 -38.833 -128 -55.5l-129.5 -51c-42.333 -17.333 -82.666 -35.666 -120.999 -54.999s-72.5 -41.833 -102.5 -67.5s-54.667 -55.334 -74 -89.001s-31 -73.167 -35 -118.5z
M27.002 -236.005c-14 -28.667 -19.4961 -53.6719 -16.4961 -75.0049s12.167 -39.5 27.5 -54.5s35.666 -27.167 60.999 -36.5s53.166 -16.333 83.499 -21s61.666 -7.16699 93.999 -7.5s63.5 0.833984 93.5 3.50098s57.167 6.83398 81.5 12.501s43.833 12.167 58.5 19.5
c95.333 48.667 172.666 108.834 231.999 180.501s106.333 151.167 141 238.5l-176 -18c-60 -6 -119 -13.167 -177 -21.5s-113.667 -18.166 -167 -29.499s-102.166 -25.666 -146.499 -42.999s-82.833 -38 -115.5 -62s-57.334 -52.667 -74.001 -86z" />
    <glyph glyph-name="K" unicode="K" horiz-adv-x="538" 
d="M747 1069c5.33301 3.33301 8.67188 3.1709 10.0049 -0.496094l4 -11.5l-108.5 -125l-113.5 -134l-118.5 -135c-40.333 -44.667 -81.5 -87.334 -123.5 -128.001c1.33301 -50 1.5 -100.667 0.5 -152s-3.16699 -102.333 -6.5 -153c40.667 -43.333 83.667 -93.333 129 -150
l137.5 -176.5l139 -182c46.333 -60.333 91.333 -115.5 135 -165.5s85.167 -92.333 124.5 -127s75 -56.667 107 -66c12.667 -2 12 -8.33301 -2 -19c-32.667 5.33301 -68.667 23 -108 53s-80.833 68 -124.5 114s-88.834 97.667 -135.501 155l-140 175.5l-137.5 176
c-45 57.667 -87.833 109.5 -128.5 155.5c-4 -58 -8.83301 -113.667 -14.5 -167s-11.667 -102.166 -18 -146.499s-12.833 -83 -19.5 -116s-13 -57.833 -19 -74.5c-7.33301 -4 -14 -3.33301 -20 2c13.333 78.667 23.5 165.5 30.5 260.5s11.833 192.167 14.5 291.5
c-38 39.333 -72.5 70.166 -103.5 92.499s-58.167 31.833 -81.5 28.5c-5.33301 1.33301 -8.16602 3.83301 -8.49902 7.5s0.166992 6.83398 1.5 9.50098c31.333 18 63.333 40.167 96 66.5s66 55.5 100 87.5c0 16 -0.333008 40.667 -1 74s-2.33398 70.166 -5.00098 110.499
s-6.83398 81.666 -12.501 123.999s-13.667 80.5 -24 114.5s-23.5 61.167 -39.5 81.5s-35.333 28.833 -58 25.5c-14 -2 -26.333 -6.83301 -37 -14.5s-20.334 -16.834 -29.001 -27.501s-16.334 -22.167 -23.001 -34.5l-19 -35.5c-7.33301 -4 -12.166 -4.83301 -14.499 -2.5
s-3.5 6.16602 -3.5 11.499c6.66699 12.667 14 25.667 22 39s17.167 25.666 27.5 36.999s21.666 21.333 33.999 30s26.166 14.334 41.499 17.001c33.333 6 61.833 -3.16699 85.5 -27.5s43 -59.5 58 -105.5s26.333 -100.667 34 -164s12.5 -131 14.5 -203
c40.667 40.667 81.5 83.667 122.5 129l119 134.5l111 128.5zM245.006 485.005c-52 -48 -103.999 -89 -155.999 -123c21.333 1.33301 44.666 -5.5 69.999 -20.5s53 -36.5 83 -64.5c2 70.667 3 140 3 208z" />
    <glyph glyph-name="L" unicode="L" horiz-adv-x="287" 
d="M-14 203c-12 -6.66699 -18.335 -4.99902 -19.002 5.00098c15.333 56.667 37.166 108.5 65.499 155.5s61.166 91.5 98.499 133.5c16.667 70 35.334 136.333 56.001 199s42.667 117.667 66 165s47.5 84.833 72.5 112.5s50.167 41.5 75.5 41.5
c8.66699 0 15.667 -3.66699 21 -11v1c22 -26 36.833 -50.833 44.5 -74.5s10 -46.5 7 -68.5s-10.333 -43.167 -22 -63.5s-26 -40 -43 -59s-35.333 -37.5 -55 -55.5l-57.5 -53l-51.5 -46.5l-49.5 -47.5c-15.333 -56 -29.666 -113.833 -42.999 -173.5
s-24.5 -118.834 -33.5 -177.501s-15.667 -115.5 -20 -170.5s-5.33301 -106.167 -3 -153.5s8.5 -89.5 18.5 -126.5s24.667 -66.5 44 -88.5c52 12 101.5 15.5 148.5 10.5s93.167 -14.833 138.5 -29.5s90.333 -32 135 -52s91 -38.5 139 -55.5s98.167 -30.333 150.5 -40
s108.5 -11.834 168.5 -6.50098c6.66699 -2 7.33398 -8.33301 2.00098 -19c-61.333 -6 -118.5 -4 -171.5 6s-103.5 23.5 -151.5 40.5s-94.5 35.333 -139.5 55s-90.167 36.834 -135.5 51.501s-91.833 24.334 -139.5 29.001s-97.834 0.666992 -150.501 -12
c-22 4.66699 -39.833 20 -53.5 46s-24 59.5 -31 100.5s-10.667 88.167 -11 141.5s2.16699 110 7.5 170s13 122 23 186s22 127 36 189c-31.333 -36.667 -58.666 -75.834 -81.999 -117.501s-41.666 -87.5 -54.999 -137.5zM282.998 646.001l52.9971 48.001
c18.667 16.667 36 33.834 52 51.501s29.833 36.167 41.5 55.5s19.334 39.166 23.001 59.499s2.16699 41.5 -4.5 63.5s-20.334 44.667 -41.001 68c-0.666992 1.33301 -1.66699 2.16602 -3 2.49902s-2.33301 0.833008 -3 1.5c-11.333 -0.666992 -24.666 -12 -39.999 -34
s-31.666 -52 -48.999 -90s-35.166 -82.5 -53.499 -133.5s-35.833 -105.833 -52.5 -164.5z" />
    <glyph glyph-name="M" unicode="M" horiz-adv-x="1671" 
d="M7 1203c-7.33301 6.66699 -7.67969 13.3359 -1.0127 20.0029c47.333 0 86.833 -16.5 118.5 -49.5s57 -77.333 76 -133s32.833 -119.834 41.5 -192.501s13.834 -148.834 15.501 -228.501s1 -160 -2 -241s-6.66699 -157.667 -11 -230l-12 -195
c-3.66699 -57.667 -5.16699 -103.167 -4.5 -136.5c4.66699 13.333 11.5 35.333 20.5 66l32 106.5c12.333 40.333 26.333 83.666 42 129.999s32.334 92.5 50.001 138.5s36.334 90 56.001 132s40 78.333 61 109s42.333 54 64 70s43.5 21.333 65.5 16s39.167 -17.333 51.5 -36
s21.166 -41.334 26.499 -68.001s7.83301 -56 7.5 -88s-1.66602 -64.5 -3.99902 -97.5s-5.16602 -65 -8.49902 -96s-5.66602 -58.5 -6.99902 -82.5s-0.833008 -43.167 1.5 -57.5s7.83301 -21.5 16.5 -21.5c16 0 34 14.167 54 42.5s41.5 65.833 64.5 112.5
s46.833 99.667 71.5 159l76 182.5l78.5 182.5c26.333 59.333 52.5 112.333 78.5 159s51.5 84.334 76.5 113.001s48.833 43 71.5 43c38.667 0 70.334 -10.667 95.001 -32s43.5 -50.833 56.5 -88.5s21 -82 24 -133s2.83301 -105.833 -0.5 -164.5
s-9.66602 -119.667 -18.999 -183s-19.666 -126.166 -30.999 -188.499s-23.166 -122.833 -35.499 -181.5l-33.5 -161c-10 -48.667 -18.333 -91.334 -25 -128.001s-10 -64 -10 -82c0 -9.33301 0.333008 -23.5 1 -42.5s3 -37.667 7 -56s10.333 -33.833 19 -46.5
s20.667 -17.334 36 -14.001c10 2 21.333 10.833 34 26.5s25.834 35.5 39.501 59.5s27.5 51.333 41.5 82l41.5 94.5l39.5 96.5l34.5 89l27 71c7.66699 20 13.167 34 16.5 42l39 90c6 6 11.667 3.33301 17 -8l-38 -90c-5.33301 -11.333 -14.166 -33.333 -26.499 -66
l-43.5 -112.5c-16.667 -42.333 -35 -86.5 -55 -132.5s-39.833 -88.333 -59.5 -127s-38.667 -70.5 -57 -95.5s-34.166 -37.833 -47.499 -38.5c-22.667 -2 -41 1 -55 9s-24.833 20.167 -32.5 36.5s-12.667 36.5 -15 60.5s-3.16602 51 -2.49902 81
c0.666992 20.667 3.5 49.667 8.5 87s11.333 80.166 19 128.499l25.5 158.5l27.5 177c9 60.667 17.167 121.667 24.5 183s12.833 120.333 16.5 177s5 109.5 4 158.5s-5.16699 91.667 -12.5 128s-18.666 64.833 -33.999 85.5s-35.333 31 -60 31
c-20.667 0 -42.667 -14.333 -66 -43s-47.5 -66.334 -72.5 -113.001s-50.5 -99.667 -76.5 -159l-77.5 -182.5l-76.5 -182.5c-25.333 -59.333 -50 -112.333 -74 -159s-46.833 -84.167 -68.5 -112.5s-41.834 -42.5 -60.501 -42.5c-16 0 -28.167 7.83301 -36.5 23.5
s-14.166 36.167 -17.499 61.5s-4.83301 54.333 -4.5 87s1 66.167 2 100.5s1.83301 68 2.5 101s-0.333008 62.333 -3 88s-7.66699 46.667 -15 63s-18.666 24.833 -33.999 25.5c-20 1.33301 -40.333 -9.5 -61 -32.5s-40.834 -52.667 -60.501 -89
s-38.334 -76.833 -56.001 -121.5s-33.834 -88 -48.501 -130s-27.167 -80.167 -37.5 -114.5l-22.5 -74.5c-4 -12 -8.66699 -27 -14 -45s-11.333 -36.5 -18 -55.5l-20 -54.5c-6.66699 -17.333 -13.334 -30.666 -20.001 -39.999c-3.33301 -5.33301 -7.33301 -9.5 -12 -12.5
s-10 -0.833008 -16 6.5c-6.66699 8 -11 28 -13 60s-2.66699 72.333 -2 121s2.16699 103.834 4.5 165.501s4.33301 126.334 6 194.001s2.5 136.334 2.5 206.001s-1.66699 137.167 -5 202.5s-9.33301 126.166 -18 182.499s-20.667 105 -36 146s-34.666 72.333 -57.999 94
s-51.666 30.167 -84.999 25.5z" />
    <glyph glyph-name="N" unicode="N" horiz-adv-x="1062" 
d="M6 -573c-4.66699 -4 -8.66406 -6.33789 -11.9971 -7.00488s-6 1.66602 -8 6.99902c1.33301 15.333 2.16602 42 2.49902 80s0.5 83.833 0.5 137.5s0.166992 113.5 0.5 179.5s1.16602 135 2.49902 207s3.16602 145 5.49902 219s6 145.667 11 215s11.333 134.666 19 195.999
s17 115.333 28 162s24 84.334 39 113.001s32.5 44.667 52.5 48c10 2 21 -6.66699 33 -26s24.167 -44.5 36.5 -75.5s24.166 -65.333 35.499 -103l31.5 -108.5c9.66699 -34.667 17.834 -65.5 24.501 -92.5s11.334 -45.167 14.001 -54.5c4.66699 -16.667 11 -41 19 -73
s17.667 -68.5 29 -109.5l38 -132.5c14 -47.333 29.167 -94.5 45.5 -141.5s33.333 -92.167 51 -135.5s36 -81.666 55 -114.999s38.333 -60.166 58 -80.499s39.167 -30.833 58.5 -31.5c23.333 -0.666992 45.5 12.333 66.5 39s40.833 63.334 59.5 110.001
s36.667 101.667 54 165s34.333 130.833 51 202.5l50.5 223l51.5 226.5c17.333 74 35.333 145 54 213s38.5 128.833 59.5 182.5s43.333 98.5 67 134.5s49.167 59.333 76.5 70c11.333 4.66699 16.666 1 15.999 -11c-29.333 -12.667 -55.833 -37.667 -79.5 -75
s-45.167 -83.666 -64.5 -138.999s-37 -117.333 -53 -186s-31.333 -140.334 -46 -215.001l-43 -228c-14 -77.333 -28.833 -151.833 -44.5 -223.5s-32.5 -138.834 -50.5 -201.501s-38 -117.167 -60 -163.5s-46.667 -82.333 -74 -108s-58.333 -37.167 -93 -34.5
c-24 1.33301 -47.5 14.333 -70.5 39s-45.333 57.334 -67 98.001s-42.834 88 -63.501 142s-40.667 111.333 -60 172s-37.833 122.834 -55.5 186.501l-51 186.5l-47 172c-15 54 -29.167 101.667 -42.5 143s-25.833 74.5 -37.5 99.5s-22.5 38.5 -32.5 40.5
c-8.66699 -3.33301 -16.834 -18.333 -24.501 -45s-15.167 -62.167 -22.5 -106.5s-14.166 -95.666 -20.499 -153.999s-12.333 -120.833 -18 -187.5s-11 -135.834 -16 -207.501s-9.5 -142.667 -13.5 -213s-7.5 -138.333 -10.5 -204l-8 -181.5
c-2.33301 -55.333 -4.16602 -103.666 -5.49902 -144.999s-2 -72.666 -2 -93.999z" />
    <glyph glyph-name="O" unicode="O" horiz-adv-x="939" 
d="M523 1014c18 7.33301 35.667 11 53 11c26.667 0 51.167 -7.16699 73.5 -21.5s42.666 -33.666 60.999 -57.999s35 -52.5 50 -84.5s28.167 -65.667 39.5 -101s21.166 -71.333 29.499 -108s15.166 -71.5 20.499 -104.5s9.16602 -63.333 11.499 -91s3.5 -50.5 3.5 -68.5
c0 -53.333 -3.33301 -108.5 -10 -165.5s-18 -112.833 -34 -167.5s-37 -106.5 -63 -155.5s-58.333 -92 -97 -129s-84 -66.333 -136 -88s-111.667 -32.5 -179 -32.5c-56 0 -104.667 10.833 -146 32.5s-75.666 50.5 -102.999 86.5s-47.666 77.5 -60.999 124.5
s-19.666 96 -18.999 147s8 102.167 22 153.5s34.833 99.333 62.5 144s61.834 84.167 102.501 118.5s87.667 60.166 141 77.499c-8 50 -11 100 -9 150s10 96.667 24 140s34.333 81.5 61 114.5s60.667 58.167 102 75.5zM383 545c10 -2 11.334 -8.33398 4.00098 -19.001l-20 -6
c6.66699 -38.667 16.334 -76.167 29.001 -112.5s27.834 -70.166 45.501 -101.499s37.5 -59.333 59.5 -84s45.667 -44 71 -58c6 -11.333 2.66699 -17 -10 -17c-26.667 14.667 -51.5 34.667 -74.5 60s-43.5 54.166 -61.5 86.499s-33.667 67.166 -47 104.499
s-23.666 76 -30.999 116c-50 -17.333 -94 -42.666 -132 -75.999s-69.667 -71.333 -95 -114s-44.5 -88.5 -57.5 -137.5s-19.667 -97.833 -20 -146.5s5.66699 -95.334 18 -140.001s31 -84.167 56 -118.5s56.5 -61.666 94.5 -81.999s82.667 -30.5 134 -30.5
c50.667 0 98.167 9.16699 142.5 27.5s84.5 43.166 120.5 74.499s67.167 67.833 93.5 109.5s46.166 85.834 59.499 132.501c18 60.667 30.5 123 37.5 187s10.5 127.667 10.5 191c0 15.333 -0.833008 36.833 -2.5 64.5s-4.33398 59 -8.00098 94s-8.83398 72 -15.501 111
s-15 77 -25 114s-22 71.5 -36 103.5s-30.333 58.667 -49 80s-39.834 36 -63.501 44s-50.167 6 -79.5 -6c-38.667 -16 -70.5 -39.833 -95.5 -71.5s-44 -68 -57 -109s-20.5 -85.167 -22.5 -132.5s0.666992 -95 8 -143c3.33301 0.666992 6.5 1.33398 9.5 2.00098
s6.16699 1.66699 9.5 3z" />
    <glyph glyph-name="P" unicode="P" horiz-adv-x="1087" 
d="M19 614c-4.66699 -6.66699 -8.66211 -9.50391 -11.9951 -8.50391s-5.66602 4.83301 -6.99902 11.5c10 68.667 34.167 129.834 72.5 183.501s85.666 99.167 141.999 136.5s118.833 66.666 187.5 87.999s138.167 34.333 208.5 39s138.666 0.666992 204.999 -12
s125.166 -34.167 176.499 -64.5s92.666 -69.666 123.999 -117.999s47 -106.166 47 -173.499c0 -44.667 -8.5 -94.667 -25.5 -150s-40.333 -110.666 -70 -165.999s-65 -107.833 -106 -157.5s-85.333 -91 -133 -124s-97.834 -55.167 -150.501 -66.5s-105.667 -6.33301 -159 15
l6 18c52 -20 102.333 -24.5 151 -13.5s94.5 32.5 137.5 64.5s82.333 71.833 118 119.5s66.334 98 92.001 151s45.667 106.167 60 159.5s21.5 101.333 21.5 144c0 54.667 -9.83301 102.667 -29.5 144s-46.334 76.333 -80.001 105s-73 51.334 -118 68.001
s-92.833 27.667 -143.5 33s-103 5.33301 -157 0s-106.833 -15.666 -158.5 -30.999s-100.834 -35.333 -147.501 -60s-88 -53.667 -124 -87s-65.333 -70.833 -88 -112.5s-36 -86.834 -40 -135.501zM572.005 708.996c8.66699 6.66699 13.666 8.33105 14.999 4.99805
s2.33301 -7.66602 3 -12.999c-18.667 -46.667 -35 -98 -49 -154s-25.167 -114.333 -33.5 -175s-13.833 -122.667 -16.5 -186s-2.33398 -125.5 0.999023 -186.5s10 -119.833 20 -176.5s23.333 -108.667 40 -156c-0.666992 -10.667 -7 -13 -19 -7
c-17.333 48 -31.666 101.167 -42.999 159.5s-19.666 119 -24.999 182s-7.33301 127 -6 192s6.33301 128.333 15 190s21 120.334 37 176.001s36.333 105.5 61 149.5z" />
    <glyph glyph-name="Q" unicode="Q" horiz-adv-x="1127" 
d="M638 -308c6 -36 13.8428 -75.1631 23.5098 -117.496s22.167 -81.833 37.5 -118.5s34.166 -67.334 56.499 -92.001s48.833 -37 79.5 -37c28 0 58 9.16699 90 27.5s65 41 99 68l104.5 86c35.667 30.333 71.5 57.166 107.5 80.499s72 40.666 108 51.999s71.333 12 106 2
c6.66699 -11.333 5 -18 -5 -20c-34.667 8 -69.5 5.33301 -104.5 -8s-70 -32.5 -105 -57.5s-70 -53.167 -105 -84.5l-103 -88c-33.667 -27.333 -66.834 -50.5 -99.501 -69.5s-64.334 -28.5 -95.001 -28.5c-34.667 0 -64.334 13.333 -89.001 40s-45.5 60 -62.5 100
s-30.5 83 -40.5 129s-18 88.667 -24 128c-30 -10 -63.667 -15 -101 -15c-71.333 0 -134.333 17.667 -189 53s-100.5 82.166 -137.5 140.499s-65 125.166 -84 200.499s-28.833 152.833 -29.5 232.5s8.16602 158.667 26.499 237s46.166 149.5 83.499 213.5
s84.666 118.167 141.999 162.5s124.666 72.166 201.999 83.499c76.667 11.333 144.667 4.16602 204 -21.501s110.166 -63.5 152.499 -113.5s76.166 -109.167 101.499 -177.5s42.5 -139.666 51.5 -213.999s10 -148.166 3 -221.499s-21.833 -140.333 -44.5 -201
s-53 -111.667 -91 -153s-83.333 -66.666 -136 -75.999c-14.667 -28 -33 -52.333 -55 -73s-48 -37 -78 -49zM605.01 -226.996c1.33301 6.66699 3.49512 10.499 6.49512 11.499s8.16699 -2.5 15.5 -10.5c1.33301 -8 2.5 -17 3.5 -27s2.5 -21 4.5 -33
c23.333 10.667 43.5 24 60.5 40s31.5 34.667 43.5 56c-25.333 -1.33301 -52.333 1.5 -81 8.5s-59 18.833 -91 35.5c-2.66699 7.33301 -3.5 12.833 -2.5 16.5s5.16699 4.83398 12.5 3.50098c34 -19.333 65.667 -31.333 95 -36s57 -3.33398 83 3.99902
c11.333 28 19.666 58.5 24.999 91.5s8 66.833 8 101.5c0 97.333 -16.333 192.833 -49 286.5s-77.334 179.5 -134.001 257.5c-1.33301 7.33301 -1 12.666 1 15.999s7.66699 2.33301 17 -3c28.667 -40 55.334 -81.667 80.001 -125s45.667 -88 63 -134s31 -93 41 -141
s15 -96.667 15 -146c0 -34 -2.5 -67 -7.5 -99s-13.167 -62.333 -24.5 -91c38.667 20 71.834 52.5 99.501 97.5s49.334 97.167 65.001 156.5s25.334 123.333 29.001 192s0.833984 136.834 -8.49902 204.501s-25.333 132 -48 193s-52.334 113.333 -89.001 157
s-80.334 76.334 -131.001 98.001s-108.667 26.834 -174 15.501c-61.333 -10.667 -115.5 -31.334 -162.5 -62.001s-87.667 -68.167 -122 -112.5s-62.166 -94 -83.499 -149s-36.666 -112.667 -45.999 -173s-13.166 -121.5 -11.499 -183.5s9 -122 22 -180s31 -112.333 54 -163
s50.833 -95 83.5 -133s69.834 -68 111.501 -90s87.5 -33 137.5 -33c36.667 0 69 5 97 15z" />
    <glyph glyph-name="R" unicode="R" horiz-adv-x="1009" 
d="M55 294c0 -13.333 -4.99902 -17.335 -14.999 -12.002c-37.333 50.667 -58.666 102.167 -63.999 154.5s1 103.666 19 153.999s46.167 98.5 84.5 144.5s82.666 87.833 132.999 125.5s104.833 70.334 163.5 98.001s117.834 48.334 177.501 62.001s117.667 19 174 16
s107.5 -16 153.5 -39s84.5 -57.167 115.5 -102.5s50.833 -103.666 59.5 -174.999c6 -50 2.33301 -100.333 -11 -151s-34 -99.834 -62 -147.501s-61.667 -92.5 -101 -134.5s-82.166 -79.5 -128.499 -112.5s-94.333 -60.5 -144 -82.5s-98.834 -36.333 -147.501 -43
c-15.333 -2 -31.333 -3 -48 -3c2 -16 9.16699 -36.5 21.5 -61.5s28.333 -52.167 48 -81.5s42.334 -59.666 68.001 -90.999s52.334 -61.333 80.001 -90s56 -55 85 -79s56.667 -43.167 83 -57.5s50.833 -22.666 73.5 -24.999s41.667 3.5 57 17.5c13.333 12 22.5 26 27.5 42
s8.66699 32.667 11 50s4.33301 34.833 6 52.5s5.5 34.167 11.5 49.5c8 15.333 14 13 18 -7c-5.33301 -12 -8.83301 -24.667 -10.5 -38s-3.16699 -26.666 -4.5 -39.999h1c-4 -52.667 -15.667 -89.834 -35 -111.501s-43.166 -32 -71.499 -31s-59.833 11.5 -94.5 31.5
s-70 45.667 -106 77s-71 66.166 -105 104.499s-64.5 76.666 -91.5 114.999s-49 74.5 -66 108.5s-26.167 62 -27.5 84c49.333 0 98.666 8.5 147.999 25.5s96.5 40.333 141.5 70s87 64.5 126 104.5s72.667 83 101 129s50.666 93.833 66.999 143.5s24.333 98.834 24 147.501
s-9.83301 95.667 -28.5 141s-48.334 87 -89.001 125c-33.333 30.667 -74.833 50.167 -124.5 58.5s-102.834 7.33301 -159.501 -3s-114.5 -28.333 -173.5 -54s-114.833 -57 -167.5 -94s-99.834 -78.333 -141.501 -124s-73.167 -93.167 -94.5 -142.5s-30.333 -99.5 -27 -150.5
s23.333 -100.167 60 -147.5zM408.001 371.998c3.33301 5.33301 6.50195 7.50098 9.50195 6.50098s6.16699 -4.16699 9.5 -9.5c-8 -57.333 -17 -116.5 -27 -177.5s-18.167 -122.5 -24.5 -184.5s-9.66602 -123.5 -9.99902 -184.5s5.16699 -120.167 16.5 -177.5
c-2.66699 -9.33301 -6.33398 -12.666 -11.001 -9.99902c-2.66699 1.33301 -5.33398 3.66602 -8.00098 6.99902c-22 121.333 -28.333 241.666 -19 360.999s30.666 242.333 63.999 369z" />
    <glyph glyph-name="S" unicode="S" horiz-adv-x="952" 
d="M1139 482c-8 -3.33301 -12.6709 -3.66699 -14.0039 -1s-2 6.33398 -2 11.001c53.333 94.667 84.5 176 93.5 244s1.83301 124.333 -21.5 169s-60.166 78.334 -110.499 101.001s-107.833 35.834 -172.5 39.501s-133.667 -1.33301 -207 -15s-145 -34.667 -215 -63
s-135.333 -62.833 -196 -103.5s-110.5 -86.334 -149.5 -137.001s-64.333 -105.334 -76 -164.001s-3.5 -120 24.5 -184c8 -19.333 22.333 -38.166 43 -56.499s44.5 -35.833 71.5 -52.5s56.333 -32.667 88 -48s63 -29.333 94 -42s60.167 -23.834 87.5 -33.501l69 -24.5h-1
l72.5 -24c31 -10 64.333 -21.667 100 -35s71.834 -28.333 108.501 -45s69.834 -34.667 99.501 -54s54 -39.833 73 -61.5s28.5 -44.167 28.5 -67.5c0 -35.333 -12.5 -66.166 -37.5 -92.499s-56.333 -47.666 -94 -63.999s-78.167 -27 -121.5 -32s-83.333 -3.33301 -120 5
s-66.667 23.666 -90 45.999s-33.666 52.5 -30.999 90.5c1.33301 2 2.5 4.16699 3.5 6.5s2.33301 4 4 5s3.5 0.666992 5.5 -1s4.33301 -5.5 7 -11.5c-2 -26.667 3.66699 -48.5 17 -65.5s31 -30 53 -39s47 -14.5 75 -16.5s55.833 -1.16699 83.5 2.5s53.667 9.33398 78 17.001
s43.833 16.5 58.5 26.5c38 26 61.833 51.5 71.5 76.5s8.66699 49.167 -3 72.5s-32.5 46 -62.5 68s-65.167 43 -105.5 63s-84.5 39.167 -132.5 57.5s-95.667 35.5 -143 51.5l-169 59.5c-56 20.333 -107.333 41.666 -154 63.999s-86.834 45.833 -120.501 70.5
s-56.834 51.334 -69.501 80.001c-9.33301 21.333 -16.666 43.666 -21.999 66.999s-8 46.666 -8 69.999c0 58.667 15.333 114.167 46 166.5s71.5 100.166 122.5 143.499s109.5 81.833 175.5 115.5s134.667 61 206 82s142.666 35 213.999 42s137.333 6 198 -3
s113.834 -27 159.501 -54s78.334 -63.833 98.001 -110.5s24.167 -104 13.5 -172s-42 -148 -94 -240z" />
    <glyph glyph-name="T" unicode="T" horiz-adv-x="737" 
d="M580 1000c1.33301 3.33301 3.16504 5.66406 5.49805 6.99707s7.16602 -1 14.499 -7v-24l82.5 16l81.5 16c28.667 5.33301 61.334 11.833 98.001 19.5l112 23l112.5 22c37 7 70.167 12.833 99.5 17.5s53.666 7.33398 72.999 8.00098s30.666 -1.33301 33.999 -6
c6 -6.66699 7.5 -13.667 4.5 -21s-8.66699 -14.666 -17 -21.999s-18.666 -14.333 -30.999 -21s-24.666 -12.667 -36.999 -18s-23.666 -9.83301 -33.999 -13.5s-17.833 -5.83398 -22.5 -6.50098c-6.66699 8 -7 14.333 -1 19c7.33301 1.33301 16.833 4.33301 28.5 9
s23.334 10 35.001 16s22.5 12.333 32.5 19s17.667 12.667 23 18c-52.667 -5.33301 -106.667 -12.333 -162 -21s-111.5 -18.5 -168.5 -29.5l-172 -34l-172.5 -33.5c-0.666992 -39.333 -1.33398 -86 -2.00098 -140s-1.33398 -112.333 -2.00098 -175
s-1.16699 -128.167 -1.5 -196.5s-0.166016 -136.333 0.500977 -204s2 -133.5 4 -197.5s4.66699 -123.333 8 -178s7.83301 -102.834 13.5 -144.501s12.5 -74.167 20.5 -97.5c-2.66699 -9.33301 -8.66699 -11.666 -18 -6.99902c-22.667 63.333 -40 130.833 -52 202.5
s-20.333 145.667 -25 222s-6.5 153.833 -5.5 232.5s3.5 156.834 7.5 234.501s8.83301 153.834 14.5 228.501s10.834 146.334 15.501 215.001c-76 -13.333 -150 -24.666 -222 -33.999s-141.333 -14 -208 -14c-11.333 0 -25.833 0.5 -43.5 1.5s-35 3.83301 -52 8.5
s-31.5 11.667 -43.5 21s-18.333 22.666 -19 39.999c4.66699 3.33301 8.33398 4.66602 11.001 3.99902s5.33398 -1.66699 8.00098 -3c0.666992 -13.333 6.66699 -23.5 18 -30.5s24.666 -12 39.999 -15s30.666 -4.83301 45.999 -5.5s27 -1 35 -1
c71.333 0 143 5.16699 215 15.5s144 22.5 216 36.5z" />
    <glyph glyph-name="U" unicode="U" horiz-adv-x="1163" 
d="M8 978c6.66699 11.333 13.0029 10.999 19.0029 -1.00098c-1.33301 -16.667 -2 -33.167 -2 -49.5v-49.5c0 -14 0.166992 -40 0.5 -78s1 -83.5 2 -136.5s2.66699 -111.667 5 -176s5.83301 -129.833 10.5 -196.5s10.5 -132.667 17.5 -198s15.5 -125.666 25.5 -180.999
s22 -103.5 36 -144.5s30 -70.833 48 -89.5c17.333 -18 35.833 -29.333 55.5 -34s39.5 -4.83398 59.5 -0.500977s40 12.666 60 24.999s39 26.333 57 42s35.167 32.5 51.5 50.5s30.833 35 43.5 51c42 54 81.833 116.167 119.5 186.5s72.667 144.333 105 222s62 156.667 89 237
s50.667 157.333 71 231s37.333 141.834 51 204.501s23.5 115 29.5 157c1.33301 3.33301 3.83301 6 7.5 8s11.167 -1.66699 22.5 -11c-6.66699 -82 -10.667 -169 -12 -261s-0.833008 -185 1.5 -279s6 -186.5 11 -277.5s10.5 -175.833 16.5 -254.5
c-2 -13.333 -6.16699 -22.166 -12.5 -26.499s-11.833 0.166992 -16.5 13.5c-6 40.667 -11.333 86.5 -16 137.5s-8.66699 104.167 -12 159.5s-5.83301 112 -7.5 170s-2.5 114.833 -2.5 170.5s0.833008 108.667 2.5 159s4.5 95.833 8.5 136.5
c-10.667 -48.667 -23.834 -102.5 -39.501 -161.5s-33.5 -120.667 -53.5 -185s-42.333 -129.833 -67 -196.5s-51.334 -132.167 -80.001 -196.5s-59.667 -125.833 -93 -184.5s-68.333 -111.667 -105 -159l-48.5 -59c-17.667 -20.667 -36.334 -40 -56.001 -58
s-40.167 -34 -61.5 -48s-43 -23.5 -65 -28.5s-44.167 -4.83301 -66.5 0.5s-44.5 18.333 -66.5 39c-32 30 -58.667 69.833 -80 119.5s-38.666 105.5 -51.999 167.5s-23 128 -29 198s-9.66699 140.167 -11 210.5s-0.833008 139 1.5 206s5.16602 128.5 8.49902 184.5
s7 104.5 11 145.5s6.66699 70.5 8 88.5z" />
    <glyph glyph-name="V" unicode="V" horiz-adv-x="575" 
d="M-91 776c-10 3.33301 -14.4961 6.33398 -13.4961 9.00098s2.5 5.66699 4.5 9c40.667 2 74.834 -6.66699 102.501 -26s50.667 -46.166 69 -80.499s32.333 -74.833 42 -121.5s16.667 -96.5 21 -149.5s6.5 -107.667 6.5 -164s-0.5 -111.666 -1.5 -165.999s-2 -106 -3 -155
s-0.5 -92.333 1.5 -130s6.33301 -68.334 13 -92.001s17 -37.5 31 -41.5c18.667 2.66699 38.5 23 59.5 61s43.667 87.333 68 148l79.5 208c28.667 78 60 158.667 94 242s71 166.5 111 249.5s83.833 159.667 131.5 230s99.5 131.666 155.5 183.999s116.667 89.5 182 111.5
c4 -1.33301 7.5 -2.83301 10.5 -4.5s1.5 -6.5 -4.5 -14.5c-54.667 -22.667 -106 -55.334 -154 -98.001s-92.833 -91.667 -134.5 -147s-80.5 -115.166 -116.5 -179.499s-69 -129.166 -99 -194.499s-57.333 -129.333 -82 -192l-66 -173c-2.66699 -6.66699 -7 -18.5 -13 -35.5
l-22 -60l-29.5 -75l-34 -80.5c-11.667 -26.667 -23.834 -52.5 -36.501 -77.5s-24.834 -46.833 -36.501 -65.5s-23 -33.334 -34 -44.001s-20.833 -15 -29.5 -13c-20.667 4 -37 18 -49 42s-20.833 55 -26.5 93s-9.33398 81.5 -11.001 130.5s-2.33398 100.5 -2.00098 154.5
l1 166c0.333008 56.667 -0.833984 111.5 -3.50098 164.5s-7.16699 102.833 -13.5 149.5s-16.5 87.167 -30.5 121.5s-32 61.166 -54 80.499s-50 28 -84 26z" />
    <glyph glyph-name="W" unicode="W" horiz-adv-x="1290" 
d="M4 439c-10.667 -0.666992 -15.0098 4.33398 -13.0098 15.001c11.333 9.33301 21.5 19.5 30.5 30.5l27.5 33.5l31.5 38c13 15.333 27 30.166 42 44.499s30.5 26.833 46.5 37.5s31 16 45 16c30.667 0 54.5 -10.667 71.5 -32s29.333 -49.5 37 -84.5s11.5 -75 11.5 -120
s-1.33301 -91.5 -4 -139.5s-6 -95.333 -10 -142s-6.66699 -89 -8 -127s0 -69.833 4 -95.5s12.667 -41.5 26 -47.5c10.667 -5.33301 23.334 -2.5 38.001 8.5s30.334 27.167 47.001 48.5s34 46.666 52 75.999s35.833 60.333 53.5 93s34.667 65.667 51 99l45 93.5l35.5 77
l22 48.5l8 18c8.66699 18.667 16.667 26.834 24 24.501s14 -10.833 20 -25.5s11.167 -33 15.5 -55s8 -43.5 11 -64.5s5.16699 -39.333 6.5 -55s2 -24.167 2 -25.5c2 -54 2.66699 -108.833 2 -164.5l-2 -161.5c-0.666992 -52 -0.833984 -100.667 -0.500977 -146
s2.5 -85 6.5 -119s10.167 -60.833 18.5 -80.5s20.5 -29.5 36.5 -29.5c24.667 0 49.334 18.833 74.001 56.5s50 88 76 151s52.5 135.5 79.5 217.5l85.5 256.5l94.5 268c33 89.667 68.167 173.667 105.5 252s77.166 147.666 119.499 207.999s87.833 105.833 136.5 136.5
c11.333 6.66699 15.333 1.33398 12 -15.999c-36 -26.667 -70.333 -62.667 -103 -108s-64.167 -97 -94.5 -155s-59.5 -120.833 -87.5 -188.5s-55 -137 -81 -208l-76 -214l-72 -206.5c-23.333 -66 -46.333 -127.5 -69 -184.5s-45 -106.667 -67 -149s-44 -75.5 -66 -99.5
s-44.333 -36 -67 -36c-14.667 0 -27.667 8.5 -39 25.5s-21 39.5 -29 67.5s-14.667 60.333 -20 97s-9.66602 74.5 -12.999 113.5s-5.83301 78.167 -7.5 117.5s-3 75.833 -4 109.5s-1.5 63 -1.5 88v54.5l-4 161l-1 51c-1.33301 21.333 -2.66602 30.666 -3.99902 27.999
s-2.66602 -5.5 -3.99902 -8.5s-2.66602 -6.16699 -3.99902 -9.5l-33.5 -74.5c-15.667 -35 -34.167 -74.333 -55.5 -118s-44.666 -88.5 -69.999 -134.5s-50.5 -87.167 -75.5 -123.5s-49.167 -64.666 -72.5 -84.999s-43.666 -26.833 -60.999 -19.5
c-15.333 6.66699 -27 23 -35 49s-13.667 58.167 -17 96.5s-5.16602 80.666 -5.49902 126.999s-0.333008 93.333 0 141s0.333008 94 0 139s-2.5 85 -6.5 120s-10.5 63 -19.5 84s-21.5 31.5 -37.5 31.5c-12 0 -25.167 -5.16699 -39.5 -15.5s-28.5 -22.666 -42.5 -36.999
s-27.167 -28.833 -39.5 -43.5s-22.166 -26 -29.499 -34l-28 -34c-9.33301 -11.333 -19.666 -22 -30.999 -32z" />
    <glyph glyph-name="X" unicode="X" horiz-adv-x="734" 
d="M18 -237c43.333 44 84.166 91.1689 122.499 141.502s74.833 102.333 109.5 156s67.667 108 99 163l92 161.5l-53 185c-17.333 58.667 -35.833 111.5 -55.5 158.5s-41.167 86.833 -64.5 119.5s-50 55.667 -80 69c-3.33301 5.33301 -4.16602 9.33301 -2.49902 12
s7.16699 3.33398 16.5 2.00098c35.333 -12.667 66.833 -33.667 94.5 -63s52.5 -64.833 74.5 -106.5s42 -88.5 60 -140.5s35 -107 51 -165l56.5 102c23 41.333 48.667 85 77 131s58.5 92 90.5 138s64.5 87.167 97.5 123.5s65.667 65.166 98 86.499s62.833 30.666 91.5 27.999
c4 -3.33301 6.33301 -6.5 7 -9.5s-2.33301 -6.5 -9 -10.5c-28 2.66699 -58 -7.5 -90 -30.5s-64.333 -53.5 -97 -91.5s-65 -80.667 -97 -128s-62 -94.166 -90 -140.499s-53 -89.5 -75 -129.5l-53 -94l61.5 -230c21 -79.333 44.5 -157.333 70.5 -234s56.167 -150 90.5 -220
s75.5 -132.667 123.5 -188s103.833 -101.333 167.5 -138s137.834 -59.667 222.501 -69c3.33301 -3.33301 5 -6.83301 5 -10.5s-3 -6.5 -9 -8.5c-83.333 10.667 -157.5 33.5 -222.5 68.5s-122.833 78.5 -173.5 130.5s-95.167 110.833 -133.5 176.5
s-72.166 134.667 -101.499 207s-55.333 146.333 -78 222l-64 221.5l-92 -160c-31.333 -54 -64 -107.167 -98 -159.5s-69.833 -102.833 -107.5 -151.5s-77.834 -94 -120.501 -136c-4.66699 -0.666992 -8.33398 -0.333984 -11.001 0.999023s-3 4.66602 -1 9.99902z" />
    <glyph glyph-name="Y" unicode="Y" horiz-adv-x="800" 
d="M104 796c2.66699 3.33301 5.33203 5.00195 7.99902 5.00195s6.33398 -3.66699 11.001 -11c-36.667 -94 -61.334 -171 -74.001 -231s-16.167 -106 -10.5 -138s19 -51.833 40 -59.5s47 -5.66699 78 6s65.667 31.167 104 58.5s77.833 59.666 118.5 96.999
s80.834 78.333 120.501 123s76.167 89.834 109.5 135.501s62.333 90.5 87 134.5s42 84.333 52 121c6.66699 8 12.667 7 18 -3c6.66699 -46 10.834 -101.333 12.501 -166s0 -134.167 -5 -208.5s-13.5 -151.5 -25.5 -231.5s-28.333 -158.5 -49 -235.5
s-45.834 -150.167 -75.501 -219.5s-64.5 -130.666 -104.5 -183.999s-85.667 -96.5 -137 -129.5s-108.666 -51.5 -171.999 -55.5c-12.667 6.66699 -13.334 13.334 -2.00098 20.001c55.333 0 105.333 13.833 150 41.5s84.5 65.667 119.5 114s65.833 104.666 92.5 168.999
s49.834 132.666 69.501 204.999s36.167 146.666 49.5 222.999s24 150.666 32 222.999s13.833 140.666 17.5 204.999s6.16699 120.833 7.5 169.5c-17.333 -41.333 -40.5 -84.666 -69.5 -129.999s-61.667 -90.5 -98 -135.5s-74.833 -88.167 -115.5 -129.5
s-81 -78.666 -121 -111.999s-78.833 -61 -116.5 -83s-71.334 -36.333 -101.001 -43s-54.167 -4 -73.5 8s-31 35.667 -35 71s0.666992 83.666 14 144.999s38 138.333 74 231z" />
    <glyph glyph-name="Z" unicode="Z" horiz-adv-x="667" 
d="M111 981c-1.33301 5.33301 -0.998047 9.32715 1.00195 11.9941s6.66699 2.66699 14 0c7.33301 -10 20 -18.333 38 -25s38.667 -12.167 62 -16.5s48.5 -7.83301 75.5 -10.5s52.833 -4.66699 77.5 -6s47.334 -2.16602 68.001 -2.49902s36.667 -0.5 48 -0.5
c17.333 0 37 0.166992 59 0.5s45.167 1 69.5 2s49.333 2.33301 75 4s51.167 3.5 76.5 5.5c28 32.667 56 58.167 84 76.5s56.333 27.5 85 27.5c12 0 23 -2.66699 33 -8s19.667 -11.666 29 -18.999c2.66699 -2.66699 5 -5.66699 7 -9s3 -7 3 -11c0 -8 -5 -15.167 -15 -21.5
s-23.667 -12.333 -41 -18s-37.5 -10.667 -60.5 -15s-47.167 -8.16602 -72.5 -11.499c-19.333 -26 -38.833 -55.333 -58.5 -88s-38.834 -66.5 -57.501 -101.5s-36.5 -70.167 -53.5 -105.5l-46.5 -99l-37 -82.5l-25 -55.5l-49 -109l-60.5 -130l-68.5 -139
c-24 -47.333 -48.667 -92.666 -74 -135.999l33 -5c42.667 -6 87.5 -11.5 134.5 -16.5s94 -7.16699 141 -6.5s93 5.5 138 14.5s87.167 24.5 126.5 46.5c12 3.33301 15 -2.33398 9 -17.001c-40.667 -23.333 -84 -39.666 -130 -48.999s-93 -14.333 -141 -15
s-95.833 1.5 -143.5 6.5s-93.5 10.5 -137.5 16.5l-40 7c-26 -44 -51.833 -83.833 -77.5 -119.5s-51.167 -65.167 -76.5 -88.5c-8.66699 -8.66699 -18.5 -16.667 -29.5 -24s-22.833 -11 -35.5 -11c-16.667 0 -29.5 6.66699 -38.5 20s-14.167 30 -15.5 50s1.5 41.5 8.5 64.5
s18.333 44.5 34 64.5s36 36.667 61 50s54.833 20 89.5 20c16 0 32 -1 48 -3c24.667 50.667 50 106 76 166l80 186l83.5 193c28.333 64.667 57.166 126.834 86.499 186.501s59 115.5 89 167.5s60.333 97 91 135c-29.333 -3.33301 -58.333 -5.83301 -87 -7.5l-79 -4.5
c-24 -1.33301 -44.833 -2.16602 -62.5 -2.49902s-30.167 -0.5 -37.5 -0.5c-12.667 0 -29.834 0.166992 -51.501 0.5s-45.334 1.16602 -71.001 2.49902s-52.167 3.5 -79.5 6.5s-53.166 7 -77.499 12s-45.833 11.333 -64.5 19s-32 16.834 -40 27.501zM207.002 -123.006
c-24.667 -1.33301 -47.501 -5.99902 -68.501 -13.999s-39.333 -19.333 -55 -34s-28 -32.167 -37 -52.5s-13.5 -43.166 -13.5 -68.499c0 -5.33301 0.5 -11.5 1.5 -18.5s2.66699 -13.667 5 -20s5.83301 -11.666 10.5 -15.999s10.667 -6.5 18 -6.5c10 0 19.333 3.16699 28 9.5
s16.667 12.833 24 19.5c19.333 19.333 39.5 46.166 60.5 80.499s42.833 74.166 65.5 119.499c-7.33301 0.666992 -14.166 1.16699 -20.499 1.5s-12.5 0.166016 -18.5 -0.500977zM958.001 975.995c2 0.666992 5.16797 1.83301 9.50098 3.5s8.66602 3.5 12.999 5.5
s8 4.33301 11 7s4.5 5.66699 4.5 9l-4 6v-1c-6.66699 6.66699 -14 12 -22 16s-16.667 6 -26 6c-15.333 0 -31.833 -7 -49.5 -21s-36.167 -32.667 -55.5 -56c23.333 3.33301 45 7 65 11s38 8.66699 54 14z" />
    <glyph glyph-name="bracketleft" unicode="[" horiz-adv-x="131" 
d="M148 710c8.66699 -6 8.00195 -12.666 -1.99805 -19.999c-4.66699 0.666992 -10.667 2 -18 4s-14.833 3.5 -22.5 4.5s-15 1.5 -22 1.5s-12.5 -1.33301 -16.5 -4c-3.33301 -24 -6.33301 -53.5 -9 -88.5s-4.83398 -72.5 -6.50098 -112.5s-3 -81.5 -4 -124.5
s-1.66699 -84.833 -2 -125.5s-0.166016 -78.834 0.500977 -114.501s1.66699 -66.167 3 -91.5c10 -3.33301 20.167 -5 30.5 -5h31.5c2 -2.66699 3.66699 -5.5 5 -8.5s-0.333984 -6.5 -5.00098 -10.5c-4.66699 0 -11.167 -0.166992 -19.5 -0.5
s-16.833 -0.166016 -25.5 0.500977s-16.334 2.5 -23.001 5.5s-11 7.5 -13 13.5c-4 5.33301 -7.16699 18.5 -9.5 39.5s-4 47 -5 78s-1.5 65.333 -1.5 103s0.5 76 1.5 115s2.5 77.167 4.5 114.5s4.5 71.166 7.5 101.499s6.16699 55.666 9.5 75.999s7 32.833 11 37.5
c6 6.66699 13.5 11.334 22.5 14.001s18.167 4 27.5 4s18.5 -0.833008 27.5 -2.5s16.5 -3.16699 22.5 -4.5z" />
    <glyph glyph-name="backslash" unicode="\" horiz-adv-x="274" 
d="M24 640c0.666992 2.66699 2.16797 4.5 4.50098 5.5s7.16602 1.16699 14.499 0.5l236 -654c-3.33301 -10.667 -9.33301 -13 -18 -7z" />
    <glyph glyph-name="bracketright" unicode="]" horiz-adv-x="131" 
d="M7 680c-3.33301 9.33301 -0.00292969 15.002 9.99707 17.002c6 -2 14.333 -2 25 0s21.167 3.66699 31.5 5s19.333 1.33301 27 0s11.834 -6 12.501 -14c2.66699 -55.333 2.83398 -109.833 0.500977 -163.5s-5.83301 -106.667 -10.5 -159s-9.66699 -104.166 -15 -155.499
s-9.66602 -102 -12.999 -152c-0.666992 -6.66699 -3.66699 -11.667 -9 -15s-11.5 -5.5 -18.5 -6.5s-14.167 -1.33301 -21.5 -1s-13 0.5 -17 0.5c-6 7.33301 -5.66699 13.666 1 18.999c16.667 -1.33301 31.667 -1 45 1c-1.33301 54.667 -1 108.5 1 161.5
s4.66699 105.5 8 157.5l10.5 156c3.66699 52 7.16699 104.333 10.5 157l-14 -7c-9.33301 -2.66699 -20 -4.83398 -32 -6.50098s-22.667 0.166016 -32 5.49902z" />
    <glyph glyph-name="asciicircum" unicode="^" horiz-adv-x="146" 
d="M36 308c-13.333 -6 -19.666 -4.00098 -18.999 5.99902l7 22c3.33301 10.667 7.16602 21.5 11.499 32.5s8.83301 20.833 13.5 29.5s9.33398 13.334 14.001 14.001c8 0.666992 15 -2.16602 21 -8.49902s11.167 -14 15.5 -23s8.16602 -18 11.499 -27
s6.66602 -15.5 9.99902 -19.5c0 -8.66699 -1.66699 -12.834 -5 -12.501s-6.66602 0.5 -9.99902 0.5c-9.33301 9.33301 -17 20.5 -23 33.5s-12.333 25.167 -19 36.5c-5.33301 -14 -10.333 -28 -15 -42s-9 -28 -13 -42z" />
    <glyph glyph-name="underscore" unicode="_" horiz-adv-x="277" 
d="M-1 29c-7.33301 7.33301 -7.33301 14 0 20c42 0.666992 84.167 2.5 126.5 5.5s84.833 4.5 127.5 4.5c3.33301 -1.33301 5.5 -3.33301 6.5 -6s-1.16699 -7 -6.5 -13c-42.667 0 -85.167 -1.66699 -127.5 -5s-84.5 -5.33301 -126.5 -6z" />
    <glyph glyph-name="grave" unicode="`" horiz-adv-x="110" 
d="M26 363c-9.33301 13.333 -6.33105 23.667 9.00195 31c4 0.666992 8.83301 -2.83301 14.5 -10.5s11.167 -16.667 16.5 -27s10 -20.333 14 -30s6.66699 -16.5 8 -20.5c-4.66699 -5.33301 -8.33398 -7.83301 -11.001 -7.5s-5.66699 2.5 -9 6.5l-7 13.5
c-3.33301 6.33301 -7 12.833 -11 19.5s-8.33301 12.5 -13 17.5s-8.33398 7.5 -11.001 7.5z" />
    <glyph glyph-name="a" unicode="a" horiz-adv-x="249" 
d="M177 201c0 -6 -0.664062 -13.8301 -1.99707 -23.4971s-2.16602 -19.334 -2.49902 -29.001s0.5 -18.667 2.5 -27s6 -14.166 12 -17.499s12.333 -2 19 4s13 13.667 19 23s11.167 19 15.5 29s7.16602 17 8.49902 21c3.33301 2.66699 6.33301 4 9 4s6 -3.66699 10 -11
c-16 -38.667 -32.333 -65.334 -49 -80.001s-31.334 -19.5 -44.001 -14.5s-22.167 19 -28.5 42s-7.5 52.833 -3.5 89.5l-18 -29c-3.33301 -5.33301 -8.5 -14.166 -15.5 -26.499s-15 -24.333 -24 -36s-18.667 -21.334 -29 -29.001s-20.5 -9.83398 -30.5 -6.50098
c-16 5.33301 -26.833 14.333 -32.5 27s-7.5 26.167 -5.5 40.5s7.33301 28.5 16 42.5s19.667 25.5 33 34.5s28.166 13.833 44.499 14.5s33.166 -5 50.499 -17c4.66699 6 9.66699 10.833 15 14.5s10.166 5 14.499 4s7.83301 -4.83301 10.5 -11.5
s4.33398 -17.334 5.00098 -32.001zM36.0029 101.003c4 -2.66699 9.66504 0.000976562 16.998 8.00098s14.833 17.667 22.5 29s14.5 22.333 20.5 33l12 21c4 7.33301 8 13.666 12 18.999c-11.333 8.66699 -22.333 12.667 -33 12s-20.167 -4.5 -28.5 -11.5
s-15.5 -16 -21.5 -27s-10.167 -22 -12.5 -33s-2.66602 -21.167 -0.999023 -30.5s5.83398 -16 12.501 -20z" />
    <glyph glyph-name="b" unicode="b" horiz-adv-x="242" 
d="M26 177c6 14 13.3291 27.3301 21.9961 39.9971s18.667 23.334 30 32.001s24 14.5 38 17.5s29.333 2.16699 46 -2.5c12 -4 20.833 -10 26.5 -18s9 -17.167 10 -27.5s0 -21.333 -3 -33s-7.5 -22.834 -13.5 -33.501c12 -0.666992 23.167 0.833008 33.5 4.5
s19.166 12.167 26.499 25.5c8.66699 5.33301 14.334 2.33301 17.001 -9c-10 -20.667 -23 -33 -39 -37s-32.333 -5 -49 -3c-8 -11.333 -16.667 -20.666 -26 -27.999s-18.666 -11 -27.999 -11s-17.833 3.83301 -25.5 11.5s-12.167 15.834 -13.5 24.501s1.5 16.334 8.5 23.001
s20.833 9 41.5 7l23 -3c4 9.33301 7.33301 18.833 10 28.5s4 19.167 4 28.5c0 21.333 -7.33301 33.666 -22 36.999s-30.667 -1 -48 -13s-33.333 -30.5 -48 -55.5s-22 -55.167 -22 -90.5c-2 -5.33301 -5.33301 -7.33301 -10 -6s-7.66699 3.33301 -9 6
c-3.33301 18 -5.66602 43.333 -6.99902 76s-1.66602 68.667 -0.999023 108s2.66699 79.833 6 121.5s8.16602 80.834 14.499 117.501s14.333 68.5 24 95.5s21.5 45.5 35.5 55.5h-1c12 11.333 22.333 14.5 31 9.5s15.334 -15.5 20.001 -31.5s7.66699 -36 9 -60
s1 -49.333 -1 -76s-5.83301 -53.167 -11.5 -79.5s-13 -49.833 -22 -70.5s-19.667 -37.167 -32 -49.5s-26.166 -17.5 -41.499 -15.5c-2 -43.333 -3 -82 -3 -116zM119.996 562.997c0 2.66699 -0.166016 9.16406 -0.499023 19.4971s-1 20.833 -2 31.5s-3 20.334 -6 29.001
s-6.83301 13 -11.5 13c-11.333 -3.33301 -20.833 -16 -28.5 -38s-14.334 -49.167 -20.001 -81.5s-10.167 -68.166 -13.5 -107.499s-6 -78.333 -8 -117c12 -2 22.667 2 32 12s17.333 23.167 24 39.5s12.167 34.5 16.5 54.5s7.83301 39.667 10.5 59s4.5 36.833 5.5 52.5
s1.5 26.834 1.5 33.501zM96.9971 133.994c0.666992 -5.33301 2.83203 -10 6.49902 -14s8.16699 -6 13.5 -6l7 3c6.66699 6.66699 12.334 13.667 17.001 21c-10 2 -19 3.16699 -27 3.5s-13.667 -2.16699 -17 -7.5z" />
    <glyph glyph-name="c" unicode="c" horiz-adv-x="194" 
d="M117 178c-10 -2 -13.665 3.33594 -10.998 16.0029c5.33301 4 7.83301 9 7.5 15s-2.16602 11.667 -5.49902 17s-7.33301 9.83301 -12 13.5s-9 5.16699 -13 4.5c-7.33301 -2 -15.166 -6.83301 -23.499 -14.5s-16 -17.334 -23 -29.001s-12.833 -24.667 -17.5 -39
s-7 -29.166 -7 -44.499c0 -17.333 4 -29 12 -35s18.167 -8.33301 30.5 -7s26 5.83301 41 13.5s29.167 16.667 42.5 27s25.166 21.333 35.499 33s17.166 22.5 20.499 32.5c8 10 14.333 8 19 -6c-3.33301 -10 -10 -21 -20 -33s-21.833 -23.667 -35.5 -35
s-28.667 -21.5 -45 -30.5s-32.333 -15.667 -48 -20s-30.5 -5.33301 -44.5 -3s-25.333 9.16602 -34 20.499c-8.66699 10.667 -11.667 26.167 -9 46.5s9 40.666 19 60.999s22.667 38.5 38 54.5s31.666 25 48.999 27c8 1.33301 15.833 -1.33398 23.5 -8.00098
s13.667 -14.667 18 -24s6.16602 -19 5.49902 -29s-5 -18 -13 -24z" />
    <glyph glyph-name="d" unicode="d" horiz-adv-x="324" 
d="M186 64c14 -4.66699 28.168 -2.99902 42.501 5.00098s28 18.667 41 32s24.333 27.5 34 42.5s16.5 27.5 20.5 37.5c6.66699 6.66699 12.667 4.33398 18 -6.99902c-5.33301 -12.667 -13.5 -27.667 -24.5 -45s-23.833 -33.166 -38.5 -47.499s-30.5 -25.5 -47.5 -33.5
s-33.833 -9 -50.5 -3c-19.333 6.66699 -34.666 21.167 -45.999 43.5s-19.666 49.5 -24.999 81.5l-6 -10l-13 -22.5c-5.33301 -9 -11.166 -17.5 -17.499 -25.5s-13.5 -14.833 -21.5 -20.5s-16.333 -7.83398 -25 -6.50098c-14 2 -24 8.16699 -30 18.5s-9 22.166 -9 35.499
s2.83301 26.833 8.5 40.5s13.667 25 24 34s22.666 14.333 36.999 16s30.166 -3.16602 47.499 -14.499c-2.66699 31.333 -3 64.666 -1 99.999s5.66699 70.166 11 104.499s12.333 67 21 98s18.167 58 28.5 81s21.666 40.833 33.999 53.5s24.833 17.667 37.5 15
c22 -4 36.167 -15.5 42.5 -34.5s7.5 -42.333 3.5 -70s-11.833 -58 -23.5 -91s-24.834 -65.667 -39.501 -98s-29.334 -62.333 -44.001 -90l-37 -67.5c0.666992 -12 1.83398 -26.167 3.50098 -42.5s4.16699 -32 7.5 -47s8 -28.333 14 -40s13.667 -19.167 23 -22.5z
M236.001 647.001c-10 0.666992 -19.334 -5.99902 -28.001 -19.999s-16.5 -32.667 -23.5 -56s-13 -49.5 -18 -78.5s-9.5 -57.833 -13.5 -86.5s-7.16699 -55.834 -9.5 -81.501s-3.83301 -46.5 -4.5 -62.5l38.5 76.5c13.667 27.667 26.334 55.5 38.001 83.5s22 55.167 31 81.5
s15.167 50 18.5 71s2.83301 38 -1.5 51s-13.5 20.167 -27.5 21.5zM30 104.002c4.66699 -1.33301 9.99707 0.831055 15.9971 6.49805s11.667 12.334 17 20.001s10.333 15.334 15 23.001l10 16.5l14 24c-11.333 11.333 -21.666 17.166 -30.999 17.499
s-17.666 -2.5 -24.999 -8.5s-13.166 -14.167 -17.499 -24.5s-7.16602 -20.833 -8.49902 -31.5s-1.33301 -20.167 0 -28.5s4.66602 -13.166 9.99902 -14.499z" />
    <glyph glyph-name="e" unicode="e" horiz-adv-x="181" 
d="M54 104c14 -11.333 27.5029 -15.8311 40.5029 -13.498s25.167 8.33301 36.5 18s21.333 21.334 30 35.001s15.334 26.5 20.001 38.5c3.33301 3.33301 6.33301 4.83301 9 4.5s5.66699 -4.16602 9 -11.499c-6 -15.333 -14.667 -31 -26 -47s-24.333 -29.333 -39 -40
s-30.5 -16.834 -47.5 -18.501s-34.167 4.16602 -51.5 17.499c-14.667 11.333 -25.334 25.166 -32.001 41.499s-8.83398 33 -6.50098 50s9.5 33.167 21.5 48.5s29 27 51 35c13.333 4.66699 23.166 3.5 29.499 -3.5s9.16602 -15.833 8.49902 -26.5
s-4.16699 -20.834 -10.5 -30.501s-15.5 -14.5 -27.5 -14.5c-14 0 -24.667 6 -32 18c-6 -16.667 -7.66699 -35 -5 -55s10 -35.333 22 -46zM69.0029 207.002c4.66699 0 8.33105 1.99902 10.998 5.99902s4.5 8.33301 5.5 13s0.833008 9 -0.5 13s-4 5.66699 -8 5
c-11.333 -0.666992 -20.666 -6 -27.999 -16c0.666992 -5.33301 2.83398 -10.166 6.50098 -14.499s8.16699 -6.5 13.5 -6.5z" />
    <glyph glyph-name="f" unicode="f" horiz-adv-x="177" 
d="M177 182c3.33301 3.33301 6.16797 5 8.50098 5s6.16602 -3.66699 11.499 -11c-6.66699 -21.333 -15.5 -36.833 -26.5 -46.5s-23.167 -15.334 -36.5 -17.001s-27.166 0.166016 -41.499 5.49902s-28.5 12 -42.5 20c6 -16 10.833 -34.333 14.5 -55s5.66699 -40.167 6 -58.5
s-1.16699 -34 -4.5 -47s-9 -20.167 -17 -21.5c-12 -2 -22 6.83301 -30 26.5s-13.667 46 -17 79s-4.66602 71 -3.99902 114s3.33398 86.833 8.00098 131.5s11.5 88.167 20.5 130.5s20.167 79.5 33.5 111.5s28.666 57 45.999 75s36.666 25 57.999 21
c10.667 -2 17.834 -14 21.501 -36s4 -49.167 1 -81.5s-8.83301 -67 -17.5 -104s-19.834 -71.667 -33.501 -104s-29.334 -59.5 -47.001 -81.5s-36.834 -34 -57.501 -36l-2 -27c12 -9.33301 25.167 -18.166 39.5 -26.499s28.5 -13.666 42.5 -15.999s26.833 0 38.5 7
s20.834 21.167 27.501 42.5zM162.002 626c-13.333 2.66699 -25.499 -1.33203 -36.499 -11.999s-21 -26 -30 -46s-17 -43.833 -24 -71.5s-13 -57 -18 -88s-9.33301 -62.5 -13 -94.5s-6.5 -62.667 -8.5 -92c16.667 0.666992 32.5 10.834 47.5 30.501s28.333 44.167 40 73.5
s21.667 61.166 30 95.499s14.5 66.5 18.5 96.5s5.66699 55.167 5 75.5s-4.33398 31.166 -11.001 32.499zM27.0029 59.001c0 -3.33301 0.498047 -9.33008 1.49805 -17.9971s2.16699 -17.834 3.5 -27.501s3.5 -18.334 6.5 -26.001s6.5 -11.834 10.5 -12.501
c0.666992 6 1 16.667 1 32s-0.666992 31.833 -2 49.5s-3.66602 35 -6.99902 52s-7.66602 30.5 -12.999 40.5c-1.33301 -21.333 -2 -39.833 -2 -55.5s0.333008 -27.167 1 -34.5z" />
    <glyph glyph-name="g" unicode="g" horiz-adv-x="247" 
d="M132 222c5.33301 4.66699 10.0039 5.16602 14.0039 1.49902s7 -8.16699 9 -13.5c7.33301 -16 13 -36.5 17 -61.5s6.33301 -52.167 7 -81.5c14 17.333 26.833 35.5 38.5 54.5s21.5 38.833 29.5 59.5c5.33301 6.66699 11.666 4.33398 18.999 -6.99902
c-20 -50.667 -49 -96.334 -87 -137.001c-0.666992 -31.333 -3.5 -62.5 -8.5 -93.5s-12 -58.833 -21 -83.5s-20.333 -44.834 -34 -60.501s-29.834 -23.5 -48.501 -23.5c-15.333 0 -27.833 4.5 -37.5 13.5s-14.5 21.167 -14.5 36.5c0 16 4.66699 33.667 14 53
s20.666 38.5 33.999 57.5s27.333 36.667 42 53s27.667 29.833 39 40.5l3 2c0.666992 18.667 0.666992 36.834 0 54.501s-1.5 34 -2.5 49s-2.16699 28 -3.5 39s-3 19.5 -5 25.5l-18 -21l-19.5 -23c-9.66699 -11.333 -20.334 -22.666 -32.001 -33.999
s-23.167 -20.833 -34.5 -28.5s-20.333 -9.83398 -27 -6.50098c-12.667 6.66699 -20.167 16.667 -22.5 30s-1.16602 27.333 3.50098 42s12 28.5 22 41.5s21.667 23 35 30s27.166 9.83301 41.499 8.5s27.833 -9.66602 40.5 -24.999zM51.0039 -201.001
c16 -6.66699 29.6709 -4.99805 41.0039 5.00195s20.666 25 27.999 45s13.166 43.833 17.499 71.5s7.16602 55.834 8.49902 84.501c-6.66699 -6.66699 -15.167 -15.834 -25.5 -27.501s-20.833 -24.334 -31.5 -38.001s-20.667 -27.834 -30 -42.501s-16.333 -28.5 -21 -41.5
s-6.33398 -24.5 -5.00098 -34.5s7.33301 -17.333 18 -22zM18.0078 103.001c2.66699 0 7.50098 3.16797 14.501 9.50098s14.833 14.333 23.5 24l27.5 31l27.5 31.5c-8.66699 11.333 -17.334 17.666 -26.001 18.999s-17 -0.5 -25 -5.5s-15.167 -12.333 -21.5 -22
s-11.5 -20 -15.5 -31s-6.66699 -21.667 -8 -32s-0.333008 -18.5 3 -24.5z" />
    <glyph glyph-name="h" unicode="h" horiz-adv-x="229" 
d="M26 142c6.66699 13.333 14.4971 26.8359 23.4971 40.5029s18.5 26.334 28.5 38.001s20 22 30 31s19.333 15.5 28 19.5c4.66699 2.66699 11 1.5 19 -3.5s13 -10.833 15 -17.5c0.666992 -2 1 -7.66699 1 -17v-32.5v-39c0 -13.667 0.333008 -26.334 1 -38.001
s1.66699 -21.334 3 -29.001s3.33301 -11.5 6 -11.5s6 3.16699 10 9.5s7.66699 13.5 11 21.5s6.33301 15.833 9 23.5s4.66699 12.834 6 15.501l12 29c5.33301 8.66699 11.333 6 18 -8l-11 -28l-8 -21.5c-3.33301 -9 -7.33301 -18 -12 -27s-10 -16.833 -16 -23.5
s-12.333 -10 -19 -10c-13.333 0 -22.333 8.16699 -27 24.5s-7.5 35 -8.5 56s-1.16699 41.5 -0.5 61.5s-0.333008 33.667 -3 41c-1.33301 4 -4.16602 5.16699 -8.49902 3.5s-9 -4.5 -14 -8.5s-9.5 -8.33301 -13.5 -13s-6.33301 -7.33398 -7 -8.00098
c-7.33301 -8 -15 -17.667 -23 -29s-15.667 -23.333 -23 -36s-13.666 -25.5 -18.999 -38.5s-8.33301 -24.833 -9 -35.5h-1v-3c-4 -3.33301 -7.83301 -5 -11.5 -5s-6.16699 2.66699 -7.5 8v2c-0.666992 13.333 -2 32.333 -4 57s-4 52.5 -6 83.5s-3.66699 64.167 -5 99.5
s-1.66602 70.166 -0.999023 104.499s3 67.333 7 99s10.167 59.667 18.5 84s19.333 43.666 33 57.999s30.5 21.5 50.5 21.5c23.333 0 40 -10.5 50 -31.5s15.167 -47.667 15.5 -80s-3.5 -68 -11.5 -107s-18.667 -76.333 -32 -112s-28.5 -67.5 -45.5 -95.5
s-33.833 -47 -50.5 -57c0.666992 -12 1.16699 -23.5 1.5 -34.5s0.5 -21.5 0.5 -31.5zM97.9971 672.003c-14.667 0.666992 -26.667 -5.66602 -36 -18.999s-16.833 -31.333 -22.5 -54s-9.83398 -48.834 -12.501 -78.501s-4.33398 -61 -5.00098 -94s-0.666992 -66.333 0 -100
s1.33398 -65.5 2.00098 -95.5c14.667 12.667 29.167 32.167 43.5 58.5s27.166 55.666 38.499 87.999s20.333 65.833 27 100.5s10.334 66.167 11.001 94.5s-2.66602 51.833 -9.99902 70.5s-19.333 28.334 -36 29.001z" />
    <glyph glyph-name="i" unicode="i" horiz-adv-x="109" 
d="M13 235c4 4.66699 7.66602 6.66699 10.999 6s6.33301 -2.66699 9 -6c0 -5.33301 -0.833008 -15.5 -2.5 -30.5s-2.83398 -30.5 -3.50098 -46.5s-0.333984 -30.333 0.999023 -43s5 -19 11 -19c7.33301 0 14.666 3.33301 21.999 10s14.333 14.667 21 24
s12.334 18.833 17.001 28.5s8 17.167 10 22.5c4.66699 6.66699 8.33398 8.5 11.001 5.5s5.33398 -7.16699 8.00098 -12.5c-3.33301 -7.33301 -7.83301 -16.5 -13.5 -27.5s-12.5 -21.667 -20.5 -32s-16.5 -19.166 -25.5 -26.499s-18.5 -11 -28.5 -11
c-15.333 0 -26.666 6.83301 -33.999 20.5s-11.5 29.5 -12.5 47.5s0.5 35.667 4.5 53s9 29.666 15 36.999zM28.999 275c-6 1.33301 -9.83496 4.16992 -11.502 8.50293s-1.66699 8.66602 0 12.999s4.83398 7.66602 9.50098 9.99902s10.334 2.5 17.001 0.5
c2 -0.666992 2.83301 -2.83398 2.5 -6.50098s-1.5 -7.5 -3.5 -11.5s-4.33301 -7.5 -7 -10.5s-5 -4.16699 -7 -3.5z" />
    <glyph glyph-name="j" unicode="j" horiz-adv-x="144" 
d="M1 229c4 1.33301 7.49805 1.83594 10.498 1.50293s5.83301 -3.16602 8.5 -8.49902c1.33301 -12 4.33301 -34.5 9 -67.5s8.66699 -70.5 12 -112.5c20 19.333 39.167 39.833 57.5 61.5s33.5 47.5 45.5 77.5c3.33301 3.33301 6.33301 5.16602 9 5.49902
s5.66699 -3.83398 9 -12.501c-14 -36 -31.667 -66.167 -53 -90.5s-43.666 -46.5 -66.999 -66.5c2 -36 2.5 -72 1.5 -108s-5 -68.333 -12 -97s-17.5 -51.834 -31.5 -69.501s-33 -25.834 -57 -24.501c-10.667 0.666992 -19.667 3.66699 -27 9s-13.166 12 -17.499 20
s-7.33301 16.833 -9 26.5s-2.5 19.167 -2.5 28.5c0 24.667 3.33301 46.834 10 66.501s15.5 37.667 26.5 54s23.667 31.666 38 45.999l44.5 42.5c-0.666992 24 -1.66699 47.5 -3 70.5s-2.33301 44.167 -3 63.5s-1 36.333 -1 51s0.666992 25.667 2 33zM-93.002 -197.997
c0 -6 0.498047 -12.667 1.49805 -20s2.83301 -14.333 5.5 -21s6.5 -12.167 11.5 -16.5s11.167 -6.5 18.5 -6.5c14.667 0 26.334 7 35.001 21s15.167 32.667 19.5 56s7 49.833 8 79.5s1.16699 60.167 0.5 91.5c-13.333 -12 -26.166 -24.333 -38.499 -37
s-23 -26.334 -32 -41.001s-16.167 -30.667 -21.5 -48s-8 -36.666 -8 -57.999zM8.99609 315.003c2.66699 0.666992 4.83398 -0.49707 6.50098 -3.49707s3 -6.5 4 -10.5s1.33301 -7.83301 1 -11.5s-1.5 -5.83398 -3.5 -6.50098c-6.66699 -2.66699 -11.834 -2.66699 -15.501 0
s-6 6.16699 -7 10.5s-0.333008 8.66602 2 12.999s6.5 7.16602 12.5 8.49902z" />
    <glyph glyph-name="k" unicode="k" horiz-adv-x="227" 
d="M123 267c2 6.66699 4.84082 9.50586 8.50781 8.50586s7.5 -3.16699 11.5 -6.5c0.666992 -8.66699 -3.5 -18 -12.5 -28s-19.833 -20 -32.5 -30s-25.167 -19.167 -37.5 -27.5s-21.5 -14.833 -27.5 -19.5c0 -6 5 -15 15 -27s21.5 -24 34.5 -36s26 -22.5 39 -31.5
s22.833 -13.167 29.5 -12.5c8.66699 0.666992 17 6.16699 25 16.5s15.333 22.333 22 36s12.334 27.334 17.001 41.001s8.66699 24.167 12 31.5c3.33301 3.33301 6.5 5.16602 9.5 5.49902s5.83301 -4.16699 8.5 -13.5l-11 -26l1 1l-12.5 -30.5
c-5 -12.333 -10.833 -24.5 -17.5 -36.5s-14.334 -22.333 -23.001 -31s-18.334 -13.334 -29.001 -14.001c-5.33301 0 -13 3.16699 -23 9.5s-21 14.166 -33 23.499s-23.833 19.666 -35.5 30.999s-21.5 22 -29.5 32c1.33301 -15.333 2.66602 -29.666 3.99902 -42.999
s3.66602 -24.333 6.99902 -33c-4 -10.667 -10 -13 -18 -7c-6.66699 9.33301 -12.334 25 -17.001 47s-8.33398 47.5 -11.001 76.5s-4 60.5 -4 94.5s1 68 3 102s5.5 66.667 10.5 98s11.167 59.166 18.5 83.499s16.166 43.666 26.499 57.999s22.166 21.166 35.499 20.499
c16 -0.666992 28.5 -9.33398 37.5 -26.001s14.333 -37.667 16 -63s0.333984 -52.833 -3.99902 -82.5s-11.333 -57.5 -21 -83.5s-21.834 -48.667 -36.501 -68s-31.334 -31 -50.001 -35v-87c8 6.66699 17.333 13.667 28 21l31 22c10 7.33301 18.333 14.333 25 21
s10 12.667 10 18zM88.0078 610.006c-7.33301 0.666992 -13.8311 -4.33301 -19.498 -15s-10.667 -25 -15 -43s-8 -38.5 -11 -61.5s-5.33301 -46.5 -7 -70.5s-3 -47.167 -4 -69.5s-1.83301 -41.833 -2.5 -58.5c15.333 4.66699 29 15.5 41 32.5s22 37.167 30 60.5
s13.833 47.833 17.5 73.5s5.16699 49.667 4.5 72s-3.83398 40.833 -9.50098 55.5s-13.834 22.667 -24.501 24z" />
    <glyph glyph-name="l" unicode="l" horiz-adv-x="180" 
d="M30 213c0 -5.33301 0.168945 -15.498 0.501953 -30.498s1.16602 -30.667 2.49902 -47s3.66602 -31.166 6.99902 -44.499s8 -21.333 14 -24c7.33301 -3.33301 17.5 -0.5 30.5 8.5s26 20 39 33s24.833 26.5 35.5 40.5s17.667 24.667 21 32
c2.66699 3.33301 5.33398 5.33301 8.00098 6s6 -3.66602 10 -12.999c-3.33301 -9.33301 -11.166 -21.833 -23.499 -37.5s-26.166 -30.667 -41.499 -45s-31 -26 -47 -35s-29.333 -11.5 -40 -7.5c-12.667 5.33301 -22.834 18.166 -30.501 38.499s-13.167 45.5 -16.5 75.5
s-4.83301 63.333 -4.5 100s2.5 73.5 6.5 110.5s9.66699 72.833 17 107.5s15.666 65 24.999 91s19.666 46.167 30.999 60.5s23.333 20.166 36 17.499c18.667 -4 32.167 -16.667 40.5 -38s12.5 -46.666 12.5 -75.999s-3.5 -60.333 -10.5 -93s-16.667 -62.834 -29 -90.501
s-26.5 -50.334 -42.5 -68.001s-32.667 -25.834 -50 -24.501c-0.666992 -9.33301 -1 -17.833 -1 -25.5v-21.5zM109.002 630.002c-2 0.666992 -4.33398 0 -7.00098 -2s-5 -4.5 -7 -7.5s-3.83301 -6 -5.5 -9s-2.83398 -5.16699 -3.50098 -6.5c-8 -16.667 -15.167 -38 -21.5 -64
s-11.666 -54 -15.999 -84s-7.83301 -60.5 -10.5 -91.5s-4.66699 -59.833 -6 -86.5c14.667 -2 28.5 5 41.5 21s24.667 36.5 35 61.5s18.5 52.667 24.5 83s9.5 58.833 10.5 85.5s-1.16699 49.5 -6.5 68.5s-14.666 29.5 -27.999 31.5z" />
    <glyph glyph-name="m" unicode="m" horiz-adv-x="294" 
d="M-1 205c1.33301 5.33301 3.3291 9.6748 5.99609 13.0078s7.33398 3.33301 14.001 0c2 -2.66699 3.66699 -7.33398 5 -14.001s2.33301 -14.334 3 -23.001s1 -17.334 1 -26.001v-22c0.666992 6.66699 2.66699 14.334 6 23.001s7.33301 17 12 25s9.5 15 14.5 21
s9.83301 10 14.5 12c3.33301 1.33301 6.83301 1.66602 10.5 0.999023s6.83398 -3 9.50098 -7s4.5 -10.5 5.5 -19.5s0.5 -21.167 -1.5 -36.5c7.33301 9.33301 13.166 17.166 17.499 23.499l17.5 25.5v-1c2 2.66699 4.83301 7.33398 8.5 14.001s7.83398 13.334 12.501 20.001
s9.5 12.5 14.5 17.5s9.5 7.83301 13.5 8.5c13.333 0.666992 23.333 -2.33301 30 -9s11.334 -15.5 14.001 -26.5s3.66699 -23 3 -36s-1.83398 -25.333 -3.50098 -37l-4.5 -30.5c-1.33301 -8.66699 -1.66602 -14 -0.999023 -16c6.66699 0 14 3 22 9s15.333 13 22 21
s12.667 16.333 18 25s9 16 11 22c3.33301 3.33301 6.33301 5 9 5s6 -4 10 -12c-2.66699 -6.66699 -7.5 -15.334 -14.5 -26.001s-15 -21 -24 -31s-18.5 -18.333 -28.5 -25s-19.333 -9.33398 -28 -8.00098c-8.66699 2 -14.834 7.83301 -18.501 17.5s-6 20.5 -7 32.5
s-1.16699 24 -0.5 36s1 21 1 27v9c0 4.66699 -0.333008 9.5 -1 14.5s-1.5 9.5 -2.5 13.5s-2.83301 5.66699 -5.5 5c-6 -8 -11.833 -16.167 -17.5 -24.5s-11.167 -16.833 -16.5 -25.5c-0.666992 -1.33301 -3.16699 -5.33301 -7.5 -12s-9.33301 -13.834 -15 -21.501
s-11.667 -15 -18 -22s-12.166 -12 -17.499 -15s-9.83301 -2.66699 -13.5 1s-5.5 12.167 -5.5 25.5c0 7.33301 0.666992 15.166 2 23.499s1 16.166 -1 23.499c-2 -4 -5 -11 -9 -21s-8.5 -20.333 -13.5 -31s-10.167 -20 -15.5 -28s-9.66602 -11.333 -12.999 -10l1 -1
c-10 0.666992 -17 5.66699 -21 15s-6.5 19.666 -7.5 30.999s-0.833008 22.5 0.5 33.5s2.33301 18.833 3 23.5z" />
    <glyph glyph-name="n" unicode="n" horiz-adv-x="201" 
d="M4 227c4.66699 8.66699 10.9932 8.66895 18.9932 0.00195312c0 -18.667 -0.166992 -36.834 -0.5 -54.501s0.166992 -35.5 1.5 -53.5l19 41c2.66699 6 6.5 14.167 11.5 24.5s10.833 20.5 17.5 30.5s13.834 18.5 21.501 25.5s15.834 10.167 24.501 9.5
c14 -1.33301 23.5 -9 28.5 -23s7.66699 -29.5 8 -46.5s-0.5 -33.167 -2.5 -48.5s-2.66699 -25 -2 -29c0 -4 2.33301 -3.33301 7 2s9.66699 12.166 15 20.499s10.333 16.666 15 24.999s7.33398 13.166 8.00098 14.499l4 8l3 9
c4.66699 7.33301 8.33398 9.66602 11.001 6.99902s5.33398 -7.33398 8.00098 -14.001c-1.33301 -4 -4.83301 -11.667 -10.5 -23s-12.334 -22.666 -20.001 -33.999s-16.167 -20.666 -25.5 -27.999s-18.333 -8.33301 -27 -3c-6.66699 4 -11.167 13.5 -13.5 28.5
s-3.66602 30.833 -3.99902 47.5s-0.666016 31.834 -0.999023 45.501s-1.83301 20.834 -4.5 21.501c-5.33301 1.33301 -10.5 -1.16699 -15.5 -7.5s-10.167 -14.333 -15.5 -24s-10.666 -20.5 -15.999 -32.5s-10.5 -23 -15.5 -33s-10 -18.333 -15 -25
s-9.83301 -9.66699 -14.5 -9c-14 1.33301 -22.5 13.5 -25.5 36.5s-0.833008 53.5 6.5 91.5z" />
    <glyph glyph-name="o" unicode="o" 
d="M33 227c8.66699 0.666992 11.666 -5.33203 8.99902 -17.999c-8 -4 -13 -12.167 -15 -24.5s-1.66699 -25 1 -38s7.66699 -24.667 15 -35s16.333 -15.5 27 -15.5c5.33301 0 10.5 2.5 15.5 7.5s9.16699 11.167 12.5 18.5c-9.33301 8.66699 -17.333 19.667 -24 33
s-11.167 26.166 -13.5 38.499s-2 22.833 1 31.5s10.167 13 21.5 13c12 0 21.5 -3.33301 28.5 -10s11.833 -15.167 14.5 -25.5s3.66699 -21.666 3 -33.999s-3 -24.5 -7 -36.5c8.66699 -5.33301 17.334 -4.33301 26.001 3s17.667 23 27 47
c3.33301 1.33301 6.33301 2.16602 9 2.49902s5.66699 -2.83398 9 -9.50098l-9 -21.5c-3.33301 -7.66699 -7.5 -15 -12.5 -22s-10.833 -12.833 -17.5 -17.5s-14 -7 -22 -7c-6.66699 0 -12.667 1.33301 -18 4c-5.33301 -10 -11.833 -18.333 -19.5 -25s-15.834 -10 -24.501 -10
c-19.333 0 -35.166 6.66699 -47.499 20s-20.5 28.5 -24.5 45.5s-3.33301 33.833 2 50.5s16.333 28.334 33 35.001zM98.999 211.001c-9.33301 8 -14.333 9.49902 -15 4.49902s0.333008 -11.167 3 -18.5l9.5 -27.5c3 -8.33301 6.5 -15.5 10.5 -21.5
c3.33301 12 4.5 23.833 3.5 35.5s-4.83301 20.834 -11.5 27.501z" />
    <glyph glyph-name="p" unicode="p" horiz-adv-x="198" 
d="M198 182c10 9.33301 16.001 6.99414 18.001 -7.00586c-4.66699 -11.333 -13.5 -19.333 -26.5 -24s-26.833 -8.66699 -41.5 -12l-3 -9c-2.66699 -10 -8 -19.167 -16 -27.5s-16.167 -14.166 -24.5 -17.499s-16.166 -3.5 -23.499 -0.5s-12 10.5 -14 22.5
c-2 14 2.83301 24.5 14.5 31.5s25.167 12.5 40.5 16.5c4 16 6 31.333 6 46s-3.66699 23.334 -11 26.001c-8 2.66699 -15.5 1.83398 -22.5 -2.49902s-13.667 -10.833 -20 -19.5s-12.166 -19.334 -17.499 -32.001s-10.333 -26 -15 -40c9.33301 -28 17 -56.833 23 -86.5
s8.83301 -56.667 8.5 -81s-4.33301 -44.166 -12 -59.499s-20.5 -22.666 -38.5 -21.999c-12 0.666992 -20.5 8.33398 -25.5 23.001s-7.5 33.334 -7.5 56.001s2.5 47.834 7.5 75.501s11.833 54.5 20.5 80.5c-7.33301 25.333 -15.5 48.5 -24.5 69.5s-18.5 37.5 -28.5 49.5
c-2.66699 11.333 1.66602 16 12.999 14c9.33301 -8.66699 18.666 -21.334 27.999 -38.001s18.333 -35.667 27 -57c12 28 25.5 50.667 40.5 68s30.833 24.333 47.5 21v1c7.33301 -2 13.166 -6 17.499 -12s7.66602 -13 9.99902 -21s3.5 -16.667 3.5 -26
s-0.333008 -18.333 -1 -27c11.333 2.66699 21.333 5.5 30 8.5s14.334 7.16699 17.001 12.5zM10.001 -42.0059l0.000976562 -12.501c0 -5.66699 0.5 -11.5 1.5 -17.5s2.33301 -11.5 4 -16.5s4.5 -7.83301 8.5 -8.5c7.33301 -1.33301 12.666 2.83398 15.999 12.501s5 23 5 40
s-1.5 36.5 -4.5 58.5s-7.16699 44.333 -12.5 67c-6 -27.333 -10.5 -52.5 -13.5 -75.5s-4.5 -38.833 -4.5 -47.5zM86.002 106.993l4 -3.99805c4.66699 0 9 2.66699 13 8s7.66699 12.333 11 21c-8 -2.66699 -14.667 -5.83398 -20 -9.50098s-8 -8.83398 -8 -15.501z" />
    <glyph glyph-name="q" unicode="q" horiz-adv-x="185" 
d="M114 223c10 -7.33301 9.99902 -13.998 -0.000976562 -19.998l-13 -18l-4 -14c-6.66699 -21.333 -12.167 -43.5 -16.5 -66.5s-8.16602 -46.167 -11.499 -69.5c9.33301 12.667 20 25.834 32 39.501l35.5 40.5c11.667 13.333 22 25.833 31 37.5s14.833 21.5 17.5 29.5
c6.66699 8.66699 13 6.66699 19 -6c-4 -12 -12.667 -26.5 -26 -43.5s-27.833 -34.167 -43.5 -51.5l-43.5 -49.5c-13.333 -15.667 -22 -27.834 -26 -36.501c0 -1.33301 -0.166992 -2.33301 -0.5 -3s-0.5 -1.66699 -0.5 -3l3 2c11.333 1.33301 20.5 -3 27.5 -13
s12 -23.167 15 -39.5s4.16699 -34.333 3.5 -54s-3 -38.334 -7 -56.001s-9.33301 -33 -16 -46s-14.667 -21.167 -24 -24.5c-7.33301 -2.66699 -13.333 1.16602 -18 11.499s-8.33398 25 -11.001 44s-4.16699 41 -4.5 66s0.333984 51.167 2.00098 78.5s4.16699 54.833 7.5 82.5
s8 53.167 14 76.5c-7.33301 -8.66699 -14.833 -15.834 -22.5 -21.501s-15.5 -6.16699 -23.5 -1.5c-11.333 6 -18.833 14.333 -22.5 25s-4.33398 22 -2.00098 34s7 23.333 14 34s15.5 19.334 25.5 26.001s21 10.167 33 10.5s24 -4.16699 36 -13.5
c6.66699 8 13.334 12.333 20.001 13zM58.999 -152.998c0 -11.333 0.334961 -22.833 1.00195 -34.5s2.33398 -23.167 5.00098 -34.5c6 0.666992 11.167 5.83398 15.5 15.501s7.66602 21.667 9.99902 36s3.66602 29.666 3.99902 45.999s-0.333984 31.5 -2.00098 45.5
s-4.33398 25.833 -8.00098 35.5s-8.5 14.5 -14.5 14.5c-3.33301 0 -5.66602 0.333008 -6.99902 1c-1.33301 -21.333 -2.33301 -42.5 -3 -63.5s-1 -41.5 -1 -61.5zM23.001 109.002c2 -1.33301 4.99805 0.666016 8.99805 5.99902s8.16699 11.333 12.5 18l12.5 20
c4 6.66699 6.66699 11 8 13l17 29c-10.667 10 -21 12.167 -31 6.5s-18.167 -14.5 -24.5 -26.5s-10.166 -24.667 -11.499 -38s1.33398 -22.666 8.00098 -27.999z" />
    <glyph glyph-name="r" unicode="r" horiz-adv-x="128" 
d="M58 72c6 -2.66699 12.6699 0.837891 20.0029 10.5049s14.333 21.167 21 34.5s12.667 26.5 18 39.5s9 21.5 11 25.5c3.33301 4.66699 6.5 6.66699 9.5 6s5.16699 -5.33398 6.5 -14.001l-5 -14l-12.5 -30.5c-5.66699 -13.667 -12.334 -26.834 -20.001 -39.501
s-16.334 -23 -26.001 -31s-19.5 -9.66699 -29.5 -5c-14 6.66699 -22.167 15.334 -24.5 26.001s-2.16602 21.167 0.500977 31.5s6 19.5 10 27.5s5 13 3 15c-6 5.33301 -13 8.16602 -21 8.49902s-15.667 1.83301 -23 4.5c-8.66699 3.33301 -14.834 9.33301 -18.501 18
s-5 17.5 -4 26.5s4.16699 16.667 9.5 23s13 9.16602 23 8.49902c6.66699 -0.666992 11.667 -3.16699 15 -7.5s5.16602 -9.5 5.49902 -15.5s-0.5 -12.333 -2.5 -19s-4.33301 -12.667 -7 -18c15.333 -2.66699 26.5 -6.83398 33.5 -12.501s11.333 -11.834 13 -18.501
s1.66699 -13.834 0 -21.501s-3.66699 -15.167 -6 -22.5s-3.83301 -14.166 -4.5 -20.499s1 -11.5 5 -15.5zM4.00293 223.005c-3.33301 0.666992 -5.33203 -2.33203 -5.99902 -8.99902s0 -13.334 2 -20.001c3.33301 6.66699 5.66602 13.167 6.99902 19.5s0.333008 9.5 -3 9.5z
" />
    <glyph glyph-name="s" unicode="s" horiz-adv-x="114" 
d="M55 154c14 4 26.8359 8 38.5029 12s18.5 9.33301 20.5 16c3.33301 8 6.33301 10.333 9 7s5.66699 -7.66602 9 -12.999c-4 -12 -12.333 -20.5 -25 -25.5s-26.334 -9.5 -41.001 -13.5c1.33301 -2 2.66602 -5 3.99902 -9c3.33301 -21.333 0.5 -37.333 -8.5 -48
s-19.667 -17 -32 -19s-23.833 -0.333008 -34.5 5s-16 13.333 -16 24c0 13.333 4.5 24.166 13.5 32.499s20.167 15.166 33.5 20.499c-4 7.33301 -8.5 13.833 -13.5 19.5s-9.66699 11.334 -14 17.001s-7.83301 11.167 -10.5 16.5s-3.33398 11 -2.00098 17
c1.33301 8.66699 5 15.834 11 21.501s12.333 9.16699 19 10.5s13 0.666016 19 -2.00098s10 -8 12 -16v1c2 -8 1.33301 -16.167 -2 -24.5s-8.33301 -14.833 -15 -19.5c4 -5.33301 8.33301 -10.333 13 -15s8.66699 -9.66699 12 -15zM11.0029 112
c-9.33301 -10 -13.1689 -17.832 -11.502 -23.499s5.33398 -8.83398 11.001 -9.50098s11.5 1.33301 17.5 6s8.66699 12.667 8 24l-3 17c-9.33301 -4 -16.666 -8.66699 -21.999 -14zM28 222.001l-2.99805 2c-10.667 0 -15.834 -2.5 -15.501 -7.5
s3.16602 -11.167 8.49902 -18.5c4 2 7 5.5 9 10.5s2.33301 9.5 1 13.5z" />
    <glyph glyph-name="t" unicode="t" horiz-adv-x="171" 
d="M-67 315c-2.66699 1.33301 -5.49805 3.83105 -8.49805 7.49805s-2.5 7.16699 1.5 10.5c12.667 5.33301 26.334 8.83301 41.001 10.5s30 2.16699 46 1.5l11 62c3.33301 4.66699 6.66602 6.66699 9.99902 6s6.66602 -2.66699 9.99902 -6c0 -8 -0.333008 -17.5 -1 -28.5
s-1.66699 -22.833 -3 -35.5c28 -1.33301 55.833 -3.16602 83.5 -5.49902s52.167 -0.166016 73.5 6.50098c8.66699 -2.66699 10.667 -8.66699 6 -18c-10.667 -3.33301 -22.5 -5.5 -35.5 -6.5s-26.667 -1.33301 -41 -1s-28.833 1 -43.5 2s-29.334 1.83301 -44.001 2.5
c-1.33301 -18.667 -2.83301 -38.167 -4.5 -58.5s-2.83398 -39.833 -3.50098 -58.5s-0.666992 -35.667 0 -51s2.66699 -27.666 6 -36.999c4.66699 -15.333 11 -25.333 19 -30s16.5 -5.83398 25.5 -3.50098s18.333 7.33301 28 15s18.667 16.5 27 26.5s15.5 20 21.5 30
s10.333 18.667 13 26c2 2.66699 4.16699 4.5 6.5 5.5s6.16602 -3.16699 11.499 -12.5c-3.33301 -10.667 -8.66602 -22.167 -15.999 -34.5s-16.166 -24.166 -26.499 -35.499s-21.5 -20.833 -33.5 -28.5s-24.167 -12.167 -36.5 -13.5s-24.666 1.5 -36.999 8.5
s-23.5 19.833 -33.5 38.5c-4.66699 8.66699 -7.66699 21.167 -9 37.5s-1.5 34.166 -0.5 53.499s2.66699 39.833 5 61.5s5.16602 42.5 8.49902 62.5c-15.333 0 -29.5 -0.666992 -42.5 -2s-24.5 -4 -34.5 -8z" />
    <glyph glyph-name="u" unicode="u" horiz-adv-x="232" 
d="M10 219c8 6.66699 14.666 5.33105 19.999 -4.00195c-4.66699 -18 -7 -37.667 -7 -59c0 -20 1.66699 -32.833 5 -38.5s7.83301 -6.66699 13.5 -3s12.334 10.667 20.001 21s15.667 22 24 35l25.5 38c8.66699 12.333 16.667 22.166 24 29.499
c7.33301 6.66699 12.833 8.16699 16.5 4.5s6.33398 -10.167 8.00098 -19.5s2.5 -20.5 2.5 -33.5v-38c0 -12.333 0.5 -23 1.5 -32s2.83301 -14.167 5.5 -15.5c6 -2.66699 12.333 -0.666992 19 6s13 14.834 19 24.501s11.333 19.167 16 28.5s7.66699 15.666 9 18.999
c3.33301 2.66699 6.33301 3.83398 9 3.50098s5.66699 -4.16602 9 -11.499c-18.667 -39.333 -36.5 -65.666 -53.5 -78.999s-31.5 -17.166 -43.5 -11.499s-20.667 19.167 -26 40.5s-6 46.666 -2 75.999l-18 -30c-7.33301 -12 -15.333 -23.5 -24 -34.5s-17.5 -20.5 -26.5 -28.5
s-17.167 -11.667 -24.5 -11c-11.333 0.666992 -19.833 6.16699 -25.5 16.5s-9 22.333 -10 36s-0.333008 27.167 2 40.5s6.16602 23.333 11.499 30z" />
    <glyph glyph-name="v" unicode="v" horiz-adv-x="168" 
d="M-14 215c-0.666992 10 1.49902 15.0049 6.49902 15.0049s10.833 -1 17.5 -3c6.66699 -9.33301 11.167 -19.666 13.5 -30.999s3.83301 -22.833 4.5 -34.5l2 -34.5c0.666992 -11.333 2.33398 -21.333 5.00098 -30c8.66699 5.33301 17.334 13.666 26.001 24.999
s16.334 23 23.001 35c-7.33301 4.66699 -12.833 10.667 -16.5 18s-5 14.666 -4 21.999s4.66699 14 11 20s16.166 10.667 29.499 14c6 1.33301 10.333 0.5 13 -2.5s3.83398 -7.83301 3.50098 -14.5s-1.66602 -14.334 -3.99902 -23.001s-5.5 -17.667 -9.5 -27
c5.33301 -2 11.166 -3 17.499 -3s12.5 0.666992 18.5 2s11.167 3.66602 15.5 6.99902s7.5 7.33301 9.5 12c5.33301 2.66699 9.66602 0 12.999 -8c-6 -14.667 -17.333 -23.834 -34 -27.501s-32.334 -2.83398 -47.001 2.49902c-9.33301 -18 -20 -34.667 -32 -50
s-22.667 -24 -32 -26c-9.33301 0 -16.333 6.33301 -21 19s-8.5 27 -11.5 43s-5.66699 31.833 -8 47.5s-5.5 26.5 -9.5 32.5zM104.999 215.005c-3.33301 0.666992 -6.16699 -0.165039 -8.5 -2.49805s-4.16602 -5.83301 -5.49902 -10.5s-1.83301 -9.5 -1.5 -14.5
s1.5 -9.5 3.5 -13.5c5.33301 11.333 9.16602 20.666 11.499 27.999s2.5 11.666 0.5 12.999z" />
    <glyph glyph-name="w" unicode="w" horiz-adv-x="270" 
d="M2 206c2.66699 4.66699 5.16504 8.1709 7.49805 10.5039s5.83301 1.5 10.5 -2.5c2 -4.66699 3.33301 -13.334 4 -26.001s1.16699 -25.667 1.5 -39s1 -25.166 2 -35.499s3.5 -15.833 7.5 -16.5l10 21l14.5 31.5c5 11 10 20.667 15 29s9.5 12.5 13.5 12.5
c8.66699 0 15.834 -5.66699 21.501 -17s10.5 -23.5 14.5 -36.5l10.5 -34.5c3 -10 6.5 -14 10.5 -12c6.66699 4 13 11.333 19 22s11.333 21.667 16 33c-12.667 7.33301 -21.667 16.666 -27 27.999c-8 15.333 -9 28.833 -3 40.5s14.167 19.667 24.5 24s20.333 4.33301 30 0
s13.834 -14.833 12.501 -31.5c-0.666992 -8 -2.16699 -16.5 -4.5 -25.5s-5.16602 -18.167 -8.49902 -27.5c13.333 -3.33301 26.666 -3 39.999 1s22 12.667 26 26c5.33301 4.66699 9.33301 6 12 4s5 -5.66699 7 -11c-10 -20.667 -23.667 -33.167 -41 -37.5
s-34 -3.83301 -50 1.5c-6 -14.667 -12.833 -27.834 -20.5 -39.501s-15.167 -19.834 -22.5 -24.501c-11.333 -7.33301 -21 -8.33301 -29 -3s-14.667 13.5 -20 24.5s-9.66602 22.667 -12.999 35s-6 21.833 -8 28.5l-8 -21v1l-6.5 -15.5c-3 -7 -6.5 -14 -10.5 -21
s-8.33301 -13 -13 -18s-9.33398 -7.16699 -14.001 -6.5c-10.667 0.666992 -18.667 6.66699 -24 18s-9 24.166 -11 38.499s-2.5 28.333 -1.5 42s2.83301 23.5 5.5 29.5zM190.998 192.004c0.666992 17.333 -0.5 27.835 -3.5 31.502s-6.33301 3.5 -10 -0.5
s-6.5 -10.167 -8.5 -18.5s-1.66699 -15.833 1 -22.5c3.33301 -8.66699 8.33301 -15.334 15 -20.001c1.33301 5.33301 2.5 10.666 3.5 15.999s1.83301 10 2.5 14z" />
    <glyph glyph-name="x" unicode="x" horiz-adv-x="140" 
d="M-4 86c-10.667 -4.66699 -16.998 -2.66406 -18.998 6.00293c7.33301 18.667 18.666 39.334 33.999 62.001c-8 16.667 -14.167 33 -18.5 49s-4.83301 28 -1.5 36c4 7.33301 10.667 8.33301 20 3c1.33301 -5.33301 3.66602 -13.333 6.99902 -24s7.66602 -22.667 12.999 -36
l47 57c10.667 2 15.667 -2.33301 15 -13l-25 -29.5c-9.33301 -11 -18.666 -22.833 -27.999 -35.5c7.33301 -16 15 -30.333 23 -43s15 -19 21 -19c4 0 8.83301 3.66699 14.5 11s11.334 15.666 17.001 24.999s10.834 18.666 15.501 27.999s7.66699 15.666 9 18.999
c6.66699 6 13 4 19 -6c-2 -4.66699 -6 -12.334 -12 -23.001s-12.833 -21.5 -20.5 -32.5s-15.334 -20.667 -23.001 -29s-14.167 -12.5 -19.5 -12.5c-10.667 0 -21.334 5.33301 -32.001 16s-20.667 23.667 -30 39c-12 -16.667 -20.667 -32.667 -26 -48z" />
    <glyph glyph-name="y" unicode="y" horiz-adv-x="248" 
d="M-3 208c4.66699 10 9.50098 14.3301 14.501 12.9971s10.167 -5.66602 15.5 -12.999c-2.66699 -34.667 -2.16699 -59.5 1.5 -74.5s9 -23.333 16 -25s15.167 2.16602 24.5 11.499s18.5 21.166 27.5 35.499s17.667 29.333 26 45s14.5 29.5 18.5 41.5
c3.33301 2.66699 8.16602 5.83398 14.499 9.50098s11.5 1.83398 15.5 -5.49902c-2 -19.333 -2.83301 -45.5 -2.5 -78.5s0.5 -68.833 0.5 -107.5c17.333 20 33.333 40.333 48 61s25 40.667 31 60c2.66699 2 5.16699 3.5 7.5 4.5s6.16602 -2.5 11.499 -10.5
c-8 -25.333 -21.167 -50.166 -39.5 -74.499s-37.833 -48.166 -58.5 -71.499c-0.666992 -36 -2.16699 -71.5 -4.5 -106.5s-7 -66.5 -14 -94.5s-16.667 -50.667 -29 -68s-28.833 -26 -49.5 -26c-25.333 0 -42.5 5.83301 -51.5 17.5s-12.333 26.5 -10 44.5
s8.66602 38.167 18.999 60.5s22 44.166 35 65.499s26.167 40.833 39.5 58.5l31 40.5c0.666992 34.667 1 66 1 94s0.666992 48.667 2 62c-16 -28 -33.167 -49.5 -51.5 -64.5s-34.666 -21.833 -48.999 -20.5s-25.666 11.333 -33.999 30s-10.5 47.334 -6.5 86.001z
M72.001 -247.003c12 0 21.834 6.83301 29.501 20.5s13.667 31.667 18 54s7.66602 47.666 9.99902 75.999s3.83301 56.833 4.5 85.5l-28.5 -40c-11 -16 -21.667 -32.667 -32 -50s-19.5 -34.666 -27.5 -51.999s-12.833 -33 -14.5 -47s0.333008 -25.333 6 -34
s17.167 -13 34.5 -13z" />
    <glyph glyph-name="z" unicode="z" horiz-adv-x="163" 
d="M163 182c4 5.33301 6.83105 6.99902 8.49805 4.99902s3.5 -6.33301 5.5 -13c-8 -19.333 -19.833 -36.666 -35.5 -51.999s-32.167 -30 -49.5 -44c7.33301 -14 11 -29.667 11 -47s-3.16699 -33.166 -9.5 -47.499s-15.5 -26.166 -27.5 -35.499s-26 -13 -42 -11
c-10 1.33301 -17.667 5.16602 -23 11.499s-8 14.5 -8 24.5c0 20.667 7.16699 39.667 21.5 57s29.833 32.666 46.5 45.999c-5.33301 8 -12.5 13.667 -21.5 17s-20.833 3 -35.5 -1c-2 8 -1 19.167 3 33.5s10.333 28.833 19 43.5c-12 0 -20.667 0.666992 -26 2
c-6 6 -6 12.333 0 19c5.33301 0 11.5 0.166992 18.5 0.5s14.167 0.833008 21.5 1.5c6 8.66699 12.333 16.5 19 23.5s13.334 12.5 20.001 16.5s13 6 19 6s11.333 -2.66699 16 -8c8 -9.33301 11.5 -17.5 10.5 -24.5s-4.83301 -12.833 -11.5 -17.5
s-15.334 -8.33398 -26.001 -11.001s-21.334 -4.66699 -32.001 -6l-20.5 -32.5c-6.33301 -10.333 -10.166 -17.166 -11.499 -20.499c13.333 -0.666992 24.833 -3.16699 34.5 -7.5s17.834 -10.166 24.501 -17.499c2.66699 1.33301 4.66699 2.66602 6 3.99902
c18.667 14 33.834 27.833 45.501 41.5s21.5 28.167 29.5 43.5zM12.998 -27.001c0 -9.33301 4.33594 -15 13.0029 -17c6.66699 -1.33301 13.167 1.16699 19.5 7.5s11.666 14.666 15.999 24.999s7.16602 21.833 8.49902 34.5s0.666016 24.334 -2.00098 35.001
c-15.333 -13.333 -28.333 -26.833 -39 -40.5s-16 -28.5 -16 -44.5zM95.001 202.999c2.66699 1.33301 5.00098 3 7.00098 5s1.66699 4.66699 -1 8c-2.66699 2 -6.5 1 -11.5 -3s-10.5 -9.66699 -16.5 -17c9.33301 2 16.666 4.33301 21.999 7z" />
    <glyph glyph-name="braceleft" unicode="{" horiz-adv-x="189" 
d="M149 703c9.33301 -8.66699 9.33301 -15.3281 0 -19.9951c-9.33301 -0.666992 -15 -8.33398 -17 -23.001s-3 -33 -3 -55s0.333008 -45.833 1 -71.5s-0.833008 -49.667 -4.5 -72s-10.334 -41.5 -20.001 -57.5s-24.5 -25.333 -44.5 -28c15.333 -16 25.333 -33.333 30 -52
s6.83398 -37.834 6.50098 -57.501s-1.66602 -39.334 -3.99902 -59.001s-2.83301 -38.5 -1.5 -56.5c0 -6 0.5 -13.333 1.5 -22s2.83301 -17 5.5 -25s6.5 -14.5 11.5 -19.5s11.5 -7.16699 19.5 -6.5c12 1.33301 18 7.66602 18 18.999c1.33301 7.33301 3.83301 10.333 7.5 9
s7.5 -4 11.5 -8c0 -10 -2.33301 -18.167 -7 -24.5s-10.667 -10.666 -18 -12.999s-15.166 -2.66602 -23.499 -0.999023s-15.833 5.16699 -22.5 10.5c-13.333 11.333 -22.333 24.166 -27 38.499s-7 29.666 -7 45.999s1 33.666 3 51.999s2.66699 36.833 2 55.5
s-3.66699 37.667 -9 57s-15.333 38 -30 56c-5.33301 7.33301 -4.83301 12.5 1.5 15.5s13.166 4.83301 20.499 5.5c17.333 2 29.666 11 36.999 27s12 35.333 14 58s2.5 47.167 1.5 73.5s-0.666992 50.5 1 72.5s5.66699 40.167 12 54.5s17.5 21.5 33.5 21.5z" />
    <glyph glyph-name="bar" unicode="|" horiz-adv-x="69" 
d="M42 30c-6.66699 -12 -13.332 -12 -19.999 0l7 689c3.33301 16 9.66602 16 18.999 0z" />
    <glyph glyph-name="braceright" unicode="}" horiz-adv-x="189" 
d="M61 703c16 0 27.167 -7.17285 33.5 -21.5059s10.333 -32.5 12 -54.5s2 -46.167 1 -72.5s-0.5 -50.833 1.5 -73.5s6.66699 -42 14 -58s19.666 -25 36.999 -27c7.33301 -0.666992 14.166 -2.5 20.499 -5.5s6.83301 -8.16699 1.5 -15.5
c-14.667 -18.667 -24.667 -37.5 -30 -56.5s-8.33301 -37.833 -9 -56.5s0 -37.167 2 -55.5s3 -35.666 3 -51.999s-2.33301 -31.666 -7 -45.999s-13.667 -27.166 -27 -38.499c-6.66699 -5.33301 -14.167 -8.83301 -22.5 -10.5s-16.166 -1.33398 -23.499 0.999023
s-13.333 6.66602 -18 12.999s-7 14.5 -7 24.5c4 4 7.83301 6.66699 11.5 8s6.16699 -1.66699 7.5 -9c0 -11.333 6 -17.666 18 -18.999c8 -0.666992 14.5 1.5 19.5 6.5s8.83301 11.5 11.5 19.5s4.5 16.333 5.5 25s1.5 16 1.5 22c1.33301 18 0.833008 36.833 -1.5 56.5
s-3.66602 39.334 -3.99902 59.001s1.83398 38.834 6.50098 57.501s14.667 36 30 52c-20 2.66699 -34.833 12 -44.5 28s-16.334 35.167 -20.001 57.5s-5.16699 46.333 -4.5 72s1 49.5 1 71.5s-1.16699 40.333 -3.5 55s-7.83301 22.334 -16.5 23.001
c-9.33301 4.66699 -9.33301 11.334 0 20.001z" />
    <glyph glyph-name="asciitilde" unicode="~" horiz-adv-x="321" 
d="M84 433c-10 -4.66699 -15.9971 -2.33301 -17.9971 7c8 18.667 16.833 30.834 26.5 36.501s19.5 7.66699 29.5 6s20 -5.16699 30 -10.5s19.833 -10 29.5 -14s19.167 -5.66699 28.5 -5s18 6.66699 26 18c3.33301 3.33301 6.5 3.66602 9.5 0.999023
s5.16699 -6.66699 6.5 -12c-10.667 -17.333 -21.334 -28.5 -32.001 -33.5s-21.334 -6.5 -32.001 -4.5s-20.834 5.66699 -30.501 11s-19 10 -28 14s-17.333 5.5 -25 4.5s-14.5 -7.16699 -20.5 -18.5z" />
    <glyph glyph-name="exclamdown" unicode="&#xa1;" horiz-adv-x="95" 
d="M43 530c8 3.33301 13.167 4.66602 15.5 3.99902s3.83301 -2.33398 4.5 -5.00098c0 -50 0.833008 -100.167 2.5 -150.5s2.66699 -97.666 3 -141.999s-0.666992 -83.666 -3 -117.999s-6.83301 -60.5 -13.5 -78.5c-2 -3.33301 -4.33301 -6 -7 -8s-6.66699 0.666992 -12 8
c-1.33301 82 -1.5 163.667 -0.5 245s4.5 163 10.5 245zM49 628c6.66699 1.33301 11.834 -0.333008 15.501 -5s5.66699 -10.167 6 -16.5s-0.833984 -12.666 -3.50098 -18.999s-6.66699 -10.5 -12 -12.5s-10.166 -0.666992 -14.499 4s-7.5 10.5 -9.5 17.5
s-1.83301 13.667 0.5 20s8.16602 10.166 17.499 11.499z" />
    <glyph glyph-name="cent" unicode="&#xa2;" horiz-adv-x="340" 
d="M185 8c-6.66699 -12 -13.3359 -12 -20.0029 0l1 117c-12 -6.66699 -24 -10.667 -36 -12c-24.667 -1.33301 -44 6.16699 -58 22.5s-23.167 37.5 -27.5 63.5s-4.5 54.833 -0.5 86.5s11.667 62.334 23 92.001s25.833 56.167 43.5 79.5s37.834 39.666 60.501 48.999l1 91
c3.33301 16 9.66602 16 18.999 0l-1 -85c3.33301 0.666992 6.33301 1.16699 9 1.5s5.66699 0.5 9 0.5c6.66699 0 13.834 -1.33301 21.501 -4s14.667 -6.33398 21 -11.001s12 -10.167 17 -16.5s8.5 -13.166 10.5 -20.499c0 -7.33301 -2.33301 -11.333 -7 -12
s-8.66699 1.66602 -12 6.99902c-12 15.333 -23.667 25.333 -35 30s-22.666 5.33398 -33.999 2.00098l-3 -327c14 11.333 27.667 23.333 41 36l33 31c3.33301 6 7.33301 7 12 3s5 -10 1 -18l-39 -38c-15.333 -14.667 -31.666 -27.667 -48.999 -39zM128.998 135
c10.667 0 23.333 4.66797 38 14.001l3 330c-14 -10.667 -27 -26.667 -39 -48s-22.167 -44.833 -30.5 -70.5s-14.5 -51.834 -18.5 -78.501s-5.16699 -51 -3.5 -73s6.5 -40 14.5 -54s20 -20.667 36 -20z" />
    <glyph glyph-name="sterling" unicode="&#xa3;" horiz-adv-x="375" 
d="M133 273c-6 -3.33301 -10.166 -4.33008 -12.499 -2.99707s-4.16602 5 -5.49902 11c1.33301 2.66699 6 5.33398 14 8.00098s17.667 5.66699 29 9c2 27.333 4.16699 54.5 6.5 81.5s6.16602 50.833 11.499 71.5s13.166 37.167 23.499 49.5s24.166 17.5 41.499 15.5
c18 -2 32.667 -9.66699 44 -23s18.5 -28.333 21.5 -45s1.66699 -32.834 -4 -48.501s-16.5 -26.834 -32.5 -33.501c-8 3.33301 -12 6.66602 -12 9.99902s1.66699 6.66602 5 9.99902c9.33301 3.33301 15.666 10 18.999 20s4.5 20.667 3.5 32s-3.83301 22.166 -8.5 32.499
s-10.667 18.166 -18 23.499c-14.667 8.66699 -26 9.16699 -34 1.5s-14 -20.667 -18 -39s-6.66699 -40.833 -8 -67.5s-3 -54.334 -5 -83.001c12 2.66699 23 4.83398 33 6.50098s17 2.5 21 2.5c6.66699 -9.33301 6.33398 -16.333 -0.999023 -21
c-3.33301 0 -10.333 -0.5 -21 -1.5s-22 -2.5 -34 -4.5c-2 -26.667 -5 -52.5 -9 -77.5s-10 -47.5 -18 -67.5c12.667 -4.66699 25.334 -8.5 38.001 -11.5s24.834 -4.16699 36.501 -3.5s22.667 3.33398 33 8.00098s19.833 12.667 28.5 24c4.66699 5.33301 8 6.33301 10 3
s3.66699 -8.66602 5 -15.999c-11.333 -14.667 -23.333 -25 -36 -31s-25.834 -9.16699 -39.501 -9.5s-27.667 1.5 -42 5.5s-28.5 8.66699 -42.5 14c-9.33301 -17.333 -21.833 -30.333 -37.5 -39s-35.167 -10.334 -58.5 -5.00098c-19.333 4 -33.333 11.667 -42 23
s-12.5 22.666 -11.5 33.999s6.5 21 16.5 29s24.333 10.667 43 8c10 -1.33301 20.833 -4 32.5 -8s23.5 -8.33301 35.5 -13c6.66699 16.667 11.5 36 14.5 58s5.5 44.667 7.5 68c-6 -1.33301 -11.167 -2.66602 -15.5 -3.99902s-6.83301 -2.66602 -7.5 -3.99902zM64.001 156.003
c-6.66699 0.666992 -14.502 -0.166016 -23.502 -2.49902s-14.167 -8.16602 -15.5 -17.499c-0.666992 -4 0.5 -8 3.5 -12s6.5 -7.5 10.5 -10.5s8.33301 -5.5 13 -7.5s8.33398 -3 11.001 -3c15.333 -2.66699 28 -0.833984 38 5.49902s18.667 15.833 26 28.5
c-11.333 4.66699 -22.166 8.66699 -32.499 12s-20.5 5.66602 -30.5 6.99902z" />
    <glyph glyph-name="currency" unicode="&#xa4;" horiz-adv-x="301" 
d="M50 400c-2.66699 7.33301 -2.50293 12.0068 0.49707 14.0068s7.16699 2.33301 12.5 1c4.66699 -5.33301 9.5 -10.166 14.5 -14.499l15.5 -13.5c12 12 26 20 42 24c0.666992 4 3.33398 6.33301 8.00098 7c10.667 -1.33301 20.834 -4.33301 30.501 -9s19.167 -10 28.5 -16
h-1c2.66699 -2.66699 5 -4.33398 7 -5.00098c5.33301 5.33301 11 11.666 17 18.999s13.333 15.666 22 24.999c9.33301 4.66699 14.666 0.666992 15.999 -12c-7.33301 -6.66699 -14.166 -14 -20.499 -22l-18.5 -23c12 -11.333 20.333 -22.5 25 -33.5
s6.83398 -21.833 6.50098 -32.5s-2.83301 -20.834 -7.5 -30.501s-11 -18.834 -19 -27.501l18 -31c6 -10 11.667 -23 17 -39c0 -13.333 -6 -15.333 -18 -6c-3.33301 11.333 -8 21.666 -14 30.999s-12 19.666 -18 30.999c-15.333 -13.333 -32.666 -23 -51.999 -29
s-36 -7 -50 -3c-12.667 2.66699 -23.334 10 -32.001 22c-6.66699 -8 -13.5 -15.667 -20.5 -23s-14.5 -13.666 -22.5 -18.999c-6.66699 -2 -11.334 -2.16699 -14.001 -0.5s-2 7.16699 2 16.5c7.33301 7.33301 14.333 15.166 21 23.499s13.667 16.5 21 24.5
c-7.33301 18.667 -9.83301 39.334 -7.5 62.001s9.5 42.667 21.5 60c-5.33301 5.33301 -10.666 10.166 -15.999 14.499s-10.333 9.16602 -15 14.499zM96.9971 279.007c3.33301 0.666992 6.16211 -0.333984 8.49512 -3.00098s3.5 -7.66699 3.5 -15l-15 -17c6 -8 13 -14 21 -18
c2.66699 -1.33301 7.5 -1.16602 14.5 0.500977s14.833 4.66699 23.5 9s17.334 9.83301 26.001 16.5s16.334 14.334 23.001 23.001c0.666992 4 2 6 4 6c7.33301 11.333 11.666 23.166 12.999 35.499s-2.66699 25.5 -12 39.5c-8.66699 -8.66699 -17.667 -15.334 -27 -20.001
c-3.33301 1.33301 -5.66602 3.33301 -6.99902 6s-0.333008 7 3 13c3.33301 1.33301 9.33301 7 18 17l-3 3c-5.33301 5.33301 -11.5 9.5 -18.5 12.5s-14.167 5.5 -21.5 7.5l-2 -2c-9.33301 -1.33301 -17.5 -3.83301 -24.5 -7.5s-13.167 -8.16699 -18.5 -13.5
c4.66699 -7.33301 8.33398 -14.333 11.001 -21c0.666992 -6.66699 -0.666016 -10.167 -3.99902 -10.5s-8 0.833984 -14 3.50098l-6 11c-8 -13.333 -12.667 -27.833 -14 -43.5s0.333984 -30.5 5.00098 -44.5z" />
    <glyph glyph-name="yen" unicode="&#xa5;" horiz-adv-x="286" 
d="M148 220c-6.66699 0 -11.333 1.00391 -14 3.00391s-2.33398 6.66699 0.999023 14c10.667 8.66699 23.334 15.334 38.001 20.001l2 27c-9.33301 -3.33301 -17.166 -6.5 -23.499 -9.5s-9.83301 -6.16699 -10.5 -9.5c-4 -3.33301 -7.83301 -5.16602 -11.5 -5.49902
s-6.83398 2.5 -9.50098 8.5c1.33301 6.66699 3.16602 11.5 5.49902 14.5s5.83301 6.16699 10.5 9.5c2.66699 1.33301 7.83398 3.16602 15.501 5.49902s16.167 5.16602 25.5 8.49902c3.33301 27.333 7 53.833 11 79.5s10 48.834 18 69.501c-8 -10 -17 -20.667 -27 -32
s-20 -21.833 -30 -31.5s-19.667 -18 -29 -25s-17 -10.833 -23 -11.5c-20 -2.66699 -35.167 1.66602 -45.5 12.999s-17.333 25.666 -21 42.999s-4.33398 35.5 -2.00098 54.5s6.5 34.833 12.5 47.5c3.33301 7.33301 7 10.333 11 9s7.66699 -4.33301 11 -9
c0 -10 -0.666992 -22.667 -2 -38s-1.5 -30.333 -0.5 -45s3.83301 -27.334 8.5 -38.001s13 -16 25 -16c6.66699 0 14.834 4.33301 24.501 13s20 19.167 31 31.5s22 25.333 33 39s21.167 25.167 30.5 34.5s17.5 15.5 24.5 18.5s11.833 0.166992 14.5 -8.5
c-11.333 -20 -19.833 -47.167 -25.5 -81.5s-10.834 -70.5 -15.501 -108.5c20 5.33301 34.333 8 43 8c5.33301 -3.33301 8.5 -6.83301 9.5 -10.5s-2.16699 -7.16699 -9.5 -10.5c-8.66699 0 -23.667 -2.66699 -45 -8l-3 -27c7.33301 2 14.333 3.5 21 4.5s13 2.16699 19 3.5
c12.667 -6 13.334 -13.333 2.00098 -22l-45 -8c-4 -29.333 -8.5 -56.166 -13.5 -80.499s-12 -44 -21 -59s-20.333 -23.833 -34 -26.5s-30.5 3.66602 -50.5 18.999c-4 9.33301 -5.33301 15.666 -4 18.999s6 3.66602 14 0.999023c14 -14 25.5 -20.5 34.5 -19.5
s16.333 7.5 22 19.5s10 28.167 13 48.5s5.5 42.833 7.5 67.5c-8 -2.66699 -15.667 -7 -23 -13z" />
    <glyph glyph-name="brokenbar" unicode="&#xa6;" horiz-adv-x="93" 
d="M52 30c-6.66699 -12 -13.333 -12 -20 0l3 325h20zM55.001 422c-3.33301 0 -6.49902 0.166992 -9.49902 0.5s-6.16699 0.833008 -9.5 1.5l3 295c3.33301 16 9.66602 16 18.999 0z" />
    <glyph glyph-name="dieresis" unicode="&#xa8;" horiz-adv-x="177" 
d="M58 341c5.33301 0 9.33203 -2 11.999 -6s3.83398 -8.33301 3.50098 -13s-2 -9 -5 -13s-6.83301 -6.33301 -11.5 -7c-5.33301 -0.666992 -9.5 1 -12.5 5s-4.66699 8.5 -5 13.5s1 9.66699 4 14s7.83301 6.5 14.5 6.5zM128.999 341c5.33301 0 9.33203 -2 11.999 -6
s3.83398 -8.33301 3.50098 -13s-2 -9 -5 -13s-6.83301 -6.33301 -11.5 -7c-5.33301 -0.666992 -9.5 1 -12.5 5s-4.66699 8.5 -5 13.5s1 9.66699 4 14s7.83301 6.5 14.5 6.5z" />
    <glyph glyph-name="registered" unicode="&#xae;" horiz-adv-x="356" 
d="M154 337c40 0 72.333 -7.83301 97 -23.5s42.5 -35.167 53.5 -58.5s15.833 -48.5 14.5 -75.5s-8.5 -52.167 -21.5 -75.5s-31 -42.833 -54 -58.5s-50.167 -23.5 -81.5 -23.5c-28.667 0 -53.167 7.33301 -73.5 22s-36.333 33.167 -48 55.5s-19 46.5 -22 72.5
s-1.5 50.167 4.5 72.5s17 41 33 56s37 22.5 63 22.5c8 9.33301 19.667 14 35 14zM162 42c24.667 0 46.0039 6.83301 64.0039 20.5s32 30.667 42 51s15.667 42.333 17 66s-2.33398 45.667 -11.001 66s-22.834 37.333 -42.501 51s-45.5 20.5 -77.5 20.5
c-6.66699 0 -12.334 -1.83301 -17.001 -5.5s-6.66699 -9.16699 -6 -16.5c-3.33301 -3.33301 -6.5 -5.5 -9.5 -6.5s-6.5 1.16699 -10.5 6.5v8c-20 -2 -35.833 -9.83301 -47.5 -23.5s-19.5 -30.167 -23.5 -49.5s-4.5 -40 -1.5 -62s9.66699 -42.333 20 -61
s24.166 -34.167 41.499 -46.5s38 -18.5 62 -18.5zM128.004 208l18.0029 7.00195c2.66699 -10 4.66699 -20 6 -30l13.5 13c5 4.66699 9.33301 9.16699 13 13.5s6.33398 8.66602 8.00098 12.999s1.5 8.5 -0.5 12.5c-4 6 -11.333 9 -22 9s-21.167 -2.33301 -31.5 -7
s-19 -11.167 -26 -19.5s-8.5 -17.5 -4.5 -27.5c-1.33301 -3.33301 -3.33301 -5.66602 -6 -6.99902s-7 -1.33301 -13 0c-5.33301 15.333 -3.5 28.666 5.5 39.999s21 20.333 36 27s30.5 10.5 46.5 11.5s28.167 -1.5 36.5 -7.5s10.5 -15.5 6.5 -28.5s-18.333 -30.5 -43 -52.5
c-4.66699 -4.66699 -9.33398 -8.33398 -14.001 -11.001c0 -2 1.66699 -5.16699 5 -9.5s7.16602 -8.66602 11.499 -12.999s8.66602 -8.16602 12.999 -11.499s7.5 -5.33301 9.5 -6c3.33301 -6 4 -10.333 2 -13s-4.33301 -4.66699 -7 -6
c-3.33301 1.33301 -9 5.66602 -17 12.999s-15.333 15 -22 23v-1c-4.66699 -9.33301 -8.83398 -13.333 -12.501 -12s-7.16699 3.66602 -10.5 6.99902c0 11.333 0.166992 23.5 0.5 36.5s-1.16699 25.167 -4.5 36.5h3z" />
    <glyph glyph-name="acute" unicode="&#xb4;" horiz-adv-x="110" 
d="M39 310c-6.66699 -4.66699 -11.167 -6.33203 -13.5 -4.99902s-4.16602 3 -5.49902 5c0 6 1.33301 13.833 4 23.5s6.5 19 11.5 28s11 16.667 18 23s14.5 8.83301 22.5 7.5c6.66699 -6.66699 7 -13 1 -19c-1.33301 -3.33301 -4 -8 -8 -14l-12 -18.5l-11.5 -18
c-3.66699 -5.66699 -5.83398 -9.83398 -6.50098 -12.501z" />
    <glyph glyph-name="cedilla" unicode="&#xb8;" horiz-adv-x="321" 
d="M87 106c10.667 5.33301 15.3311 0.666016 13.998 -14.001c-6 -6 -6 -16.667 0 -32c5.33301 -15.333 5.33301 -29.166 0 -41.499s-12.666 -21.5 -21.999 -27.5s-19.166 -7.83301 -29.499 -5.5s-17.833 10.5 -22.5 24.5c2 8.66699 8 11 18 7
c1.33301 -2.66699 3 -5.5 5 -8.5s4.66699 -4.16699 8 -3.5c8 1.33301 12.167 5.33301 12.5 12s0 15 -1 25s-0.833008 20.667 0.5 32s7 22 17 32z" />
    <glyph glyph-name="questiondown" unicode="&#xbf;" horiz-adv-x="437" 
d="M318 331c-3.33301 10.667 2.33398 13.6699 17.001 9.00293c22.667 -36.667 35.667 -70.834 39 -102.501s0.166016 -60.334 -9.50098 -86.001s-24.334 -47.834 -44.001 -66.501s-41.5 -33 -65.5 -43s-48.667 -15.333 -74 -16s-48.333 4.16602 -69 14.499
s-37.667 26.5 -51 48.5s-20 50.667 -20 86c0 26 4.16699 49.667 12.5 71s18.833 41.333 31.5 60s27 36.5 43 53.5l47.5 52c15.667 17.667 30 36.334 43 56.001s23.5 41.5 31.5 65.5c2 5.33301 4.5 8 7.5 8s6.83301 -4.66699 11.5 -14
c-11.333 -34.667 -27.5 -66.334 -48.5 -95.001l-62.5 -85.5c-20.667 -28.333 -38.667 -57.666 -54 -87.999s-23 -63.833 -23 -100.5c0 -36 9.33301 -62.333 28 -79s41.167 -25.334 67.5 -26.001s53.166 5.83301 80.499 19.5s49.833 32.834 67.5 57.501
s27.334 54.167 29.001 88.5s-10.166 71.833 -35.499 112.5zM269 597.003c-7.33301 0 -12.168 2 -14.501 6s-3.33301 8.33301 -3 13s2.16602 9 5.49902 13s7 6.33301 11 7c4.66699 0.666992 8.83398 -1 12.501 -5s5.83398 -8.5 6.50098 -13.5s-0.333008 -9.66699 -3 -14
s-7.66699 -6.5 -15 -6.5z" />
    <glyph glyph-name="Agrave" unicode="&#xc0;" horiz-adv-x="1325" 
d="M373 183c-5.33301 -1.33301 -9.16504 -0.998047 -11.498 1.00195s-2.83301 6.66699 -1.5 14c10.667 9.33301 24.667 15.5 42 18.5s37 3.5 59 1.5s46 -5.66699 72 -11s53 -12 81 -20c30 54 58.167 108 84.5 162l71.5 150.5l55.5 123l35.5 80.5l19 42.5l33 73
c12.667 27.667 26.5 56.334 41.5 86.001s29.667 56.834 44 81.501s27.833 44.5 40.5 59.5s23.334 21.5 32.001 19.5c10.667 -2.66699 19.834 -14 27.501 -34s14.167 -44.667 19.5 -74s9.83301 -61.5 13.5 -96.5s6.5 -68.333 8.5 -100s3.5 -59.5 4.5 -83.5
s1.5 -40.333 1.5 -49c0 -18.667 -0.333008 -45.5 -1 -80.5s-1.16699 -75.167 -1.5 -120.5s-0.5 -94.833 -0.5 -148.5s0.666992 -108.5 2 -164.5c26.667 10.667 48 26.334 64 47.001c6.66699 6 12 2 16 -12c-21.333 -26.667 -48 -45.334 -80 -56.001
c2 -73.333 6 -146 12 -218s14.667 -137.333 26 -196s26 -107.834 44 -147.501s40.333 -63.5 67 -71.5c8 -8 6.33301 -14.333 -5 -19c-29.333 8.66699 -54.5 32 -75.5 70s-38.5 86 -52.5 144s-25.333 123.667 -34 197s-15.334 150 -20.001 230
c-33.333 -6.66699 -69.833 -8.16699 -109.5 -4.5s-80.334 10 -122.001 19s-83.5 19.5 -125.5 31.5l-121 34c-30.667 -55.333 -62.667 -109 -96 -161s-67.666 -99 -102.999 -141s-71.166 -77 -107.499 -105s-72.5 -45.833 -108.5 -53.5s-71.5 -3.33398 -106.5 12.999
s-68.833 48.166 -101.5 95.499c-2 5.33301 -1.33301 8.83301 2 10.5s8 2.16699 14 1.5c29.333 -40.667 60.166 -67.5 92.499 -80.5s65.166 -15.333 98.499 -7s67 26 101 53s67.5 60 100.5 99s65.5 82.833 97.5 131.5s62.667 99 92 151
c-26.667 7.33301 -51.834 13.666 -75.501 18.999s-45.334 8.83301 -65.001 10.5s-37.167 1.5 -52.5 -0.5s-28 -7 -38 -15zM1066 1047c-6.66699 -1.33301 -15.333 -10 -26 -26s-22.5 -35.833 -35.5 -59.5s-26.333 -49.667 -40 -78l-38 -81l-31 -68
c-9 -19.667 -14.833 -32.834 -17.5 -39.501l-35.5 -83l-53.5 -123l-69 -148.5c-25.333 -53 -52.666 -106.5 -81.999 -160.5l122 -34c42 -12 83.333 -22.333 124 -31s80 -14.667 118 -18s72.667 -1.66602 104 5.00098c-4 70.667 -6.83301 142.334 -8.5 215.001s-3 143 -4 211
s-1.83301 132 -2.5 192s-1.83398 113.167 -3.50098 159.5s-4.16699 84.166 -7.5 113.499s-8 47.333 -14 54zM1014 1228c-9.33301 13.333 -6.33105 23.667 9.00195 31c4 0.666992 8.83301 -2.83301 14.5 -10.5s11.167 -16.667 16.5 -27s10 -20.333 14 -30
s6.66699 -16.5 8 -20.5c-4.66699 -5.33301 -8.33398 -7.83301 -11.001 -7.5s-5.66699 2.5 -9 6.5l-7 13.5c-3.33301 6.33301 -7 12.833 -11 19.5s-8.33301 12.5 -13 17.5s-8.33398 7.5 -11.001 7.5z" />
    <glyph glyph-name="Aacute" unicode="&#xc1;" horiz-adv-x="1325" 
d="M373 183c-5.33301 -1.33301 -9.16504 -0.998047 -11.498 1.00195s-2.83301 6.66699 -1.5 14c10.667 9.33301 24.667 15.5 42 18.5s37 3.5 59 1.5s46 -5.66699 72 -11s53 -12 81 -20c30 54 58.167 108 84.5 162l71.5 150.5l55.5 123l35.5 80.5l19 42.5l33 73
c12.667 27.667 26.5 56.334 41.5 86.001s29.667 56.834 44 81.501s27.833 44.5 40.5 59.5s23.334 21.5 32.001 19.5c10.667 -2.66699 19.834 -14 27.501 -34s14.167 -44.667 19.5 -74s9.83301 -61.5 13.5 -96.5s6.5 -68.333 8.5 -100s3.5 -59.5 4.5 -83.5
s1.5 -40.333 1.5 -49c0 -18.667 -0.333008 -45.5 -1 -80.5s-1.16699 -75.167 -1.5 -120.5s-0.5 -94.833 -0.5 -148.5s0.666992 -108.5 2 -164.5c26.667 10.667 48 26.334 64 47.001c6.66699 6 12 2 16 -12c-21.333 -26.667 -48 -45.334 -80 -56.001
c2 -73.333 6 -146 12 -218s14.667 -137.333 26 -196s26 -107.834 44 -147.501s40.333 -63.5 67 -71.5c8 -8 6.33301 -14.333 -5 -19c-29.333 8.66699 -54.5 32 -75.5 70s-38.5 86 -52.5 144s-25.333 123.667 -34 197s-15.334 150 -20.001 230
c-33.333 -6.66699 -69.833 -8.16699 -109.5 -4.5s-80.334 10 -122.001 19s-83.5 19.5 -125.5 31.5l-121 34c-30.667 -55.333 -62.667 -109 -96 -161s-67.666 -99 -102.999 -141s-71.166 -77 -107.499 -105s-72.5 -45.833 -108.5 -53.5s-71.5 -3.33398 -106.5 12.999
s-68.833 48.166 -101.5 95.499c-2 5.33301 -1.33301 8.83301 2 10.5s8 2.16699 14 1.5c29.333 -40.667 60.166 -67.5 92.499 -80.5s65.166 -15.333 98.499 -7s67 26 101 53s67.5 60 100.5 99s65.5 82.833 97.5 131.5s62.667 99 92 151
c-26.667 7.33301 -51.834 13.666 -75.501 18.999s-45.334 8.83301 -65.001 10.5s-37.167 1.5 -52.5 -0.5s-28 -7 -38 -15zM1066 1047c-6.66699 -1.33301 -15.333 -10 -26 -26s-22.5 -35.833 -35.5 -59.5s-26.333 -49.667 -40 -78l-38 -81l-31 -68
c-9 -19.667 -14.833 -32.834 -17.5 -39.501l-35.5 -83l-53.5 -123l-69 -148.5c-25.333 -53 -52.666 -106.5 -81.999 -160.5l122 -34c42 -12 83.333 -22.333 124 -31s80 -14.667 118 -18s72.667 -1.66602 104 5.00098c-4 70.667 -6.83301 142.334 -8.5 215.001s-3 143 -4 211
s-1.83301 132 -2.5 192s-1.83398 113.167 -3.50098 159.5s-4.16699 84.166 -7.5 113.499s-8 47.333 -14 54zM1081 1179c-6.66699 -4.66699 -11.167 -6.33203 -13.5 -4.99902s-4.16602 3 -5.49902 5c0 6 1.33301 13.833 4 23.5s6.5 19 11.5 28s11 16.667 18 23
s14.5 8.83301 22.5 7.5c6.66699 -6.66699 7 -13 1 -19c-1.33301 -3.33301 -4 -8 -8 -14l-12 -18.5l-11.5 -18c-3.66699 -5.66699 -5.83398 -9.83398 -6.50098 -12.501z" />
    <glyph glyph-name="Acircumflex" unicode="&#xc2;" horiz-adv-x="1325" 
d="M373 183c-5.33301 -1.33301 -9.16504 -0.998047 -11.498 1.00195s-2.83301 6.66699 -1.5 14c10.667 9.33301 24.667 15.5 42 18.5s37 3.5 59 1.5s46 -5.66699 72 -11s53 -12 81 -20c30 54 58.167 108 84.5 162l71.5 150.5l55.5 123l35.5 80.5l19 42.5l33 73
c12.667 27.667 26.5 56.334 41.5 86.001s29.667 56.834 44 81.501s27.833 44.5 40.5 59.5s23.334 21.5 32.001 19.5c10.667 -2.66699 19.834 -14 27.501 -34s14.167 -44.667 19.5 -74s9.83301 -61.5 13.5 -96.5s6.5 -68.333 8.5 -100s3.5 -59.5 4.5 -83.5
s1.5 -40.333 1.5 -49c0 -18.667 -0.333008 -45.5 -1 -80.5s-1.16699 -75.167 -1.5 -120.5s-0.5 -94.833 -0.5 -148.5s0.666992 -108.5 2 -164.5c26.667 10.667 48 26.334 64 47.001c6.66699 6 12 2 16 -12c-21.333 -26.667 -48 -45.334 -80 -56.001
c2 -73.333 6 -146 12 -218s14.667 -137.333 26 -196s26 -107.834 44 -147.501s40.333 -63.5 67 -71.5c8 -8 6.33301 -14.333 -5 -19c-29.333 8.66699 -54.5 32 -75.5 70s-38.5 86 -52.5 144s-25.333 123.667 -34 197s-15.334 150 -20.001 230
c-33.333 -6.66699 -69.833 -8.16699 -109.5 -4.5s-80.334 10 -122.001 19s-83.5 19.5 -125.5 31.5l-121 34c-30.667 -55.333 -62.667 -109 -96 -161s-67.666 -99 -102.999 -141s-71.166 -77 -107.499 -105s-72.5 -45.833 -108.5 -53.5s-71.5 -3.33398 -106.5 12.999
s-68.833 48.166 -101.5 95.499c-2 5.33301 -1.33301 8.83301 2 10.5s8 2.16699 14 1.5c29.333 -40.667 60.166 -67.5 92.499 -80.5s65.166 -15.333 98.499 -7s67 26 101 53s67.5 60 100.5 99s65.5 82.833 97.5 131.5s62.667 99 92 151
c-26.667 7.33301 -51.834 13.666 -75.501 18.999s-45.334 8.83301 -65.001 10.5s-37.167 1.5 -52.5 -0.5s-28 -7 -38 -15zM1066 1047c-6.66699 -1.33301 -15.333 -10 -26 -26s-22.5 -35.833 -35.5 -59.5s-26.333 -49.667 -40 -78l-38 -81l-31 -68
c-9 -19.667 -14.833 -32.834 -17.5 -39.501l-35.5 -83l-53.5 -123l-69 -148.5c-25.333 -53 -52.666 -106.5 -81.999 -160.5l122 -34c42 -12 83.333 -22.333 124 -31s80 -14.667 118 -18s72.667 -1.66602 104 5.00098c-4 70.667 -6.83301 142.334 -8.5 215.001s-3 143 -4 211
s-1.83301 132 -2.5 192s-1.83398 113.167 -3.50098 159.5s-4.16699 84.166 -7.5 113.499s-8 47.333 -14 54zM1043 1171c-4 -1.33301 -7.66797 -1.83594 -11.001 -1.50293s-5.66602 3.83301 -6.99902 10.5c20.667 42 39 62.333 55 61s33.667 -22.666 53 -63.999
c-2.66699 -3.33301 -6.83398 -6.16602 -12.501 -8.49902s-10.167 -1.83301 -13.5 1.5c-8.66699 15.333 -15.167 27.333 -19.5 36s-8.16602 13.334 -11.499 14.001s-7.33301 -2.83301 -12 -10.5s-11.667 -20.5 -21 -38.5z" />
    <glyph glyph-name="Atilde" unicode="&#xc3;" horiz-adv-x="1325" 
d="M373 183c-5.33301 -1.33301 -9.16504 -0.998047 -11.498 1.00195s-2.83301 6.66699 -1.5 14c10.667 9.33301 24.667 15.5 42 18.5s37 3.5 59 1.5s46 -5.66699 72 -11s53 -12 81 -20c30 54 58.167 108 84.5 162l71.5 150.5l55.5 123l35.5 80.5l19 42.5l33 73
c12.667 27.667 26.5 56.334 41.5 86.001s29.667 56.834 44 81.501s27.833 44.5 40.5 59.5s23.334 21.5 32.001 19.5c10.667 -2.66699 19.834 -14 27.501 -34s14.167 -44.667 19.5 -74s9.83301 -61.5 13.5 -96.5s6.5 -68.333 8.5 -100s3.5 -59.5 4.5 -83.5
s1.5 -40.333 1.5 -49c0 -18.667 -0.333008 -45.5 -1 -80.5s-1.16699 -75.167 -1.5 -120.5s-0.5 -94.833 -0.5 -148.5s0.666992 -108.5 2 -164.5c26.667 10.667 48 26.334 64 47.001c6.66699 6 12 2 16 -12c-21.333 -26.667 -48 -45.334 -80 -56.001
c2 -73.333 6 -146 12 -218s14.667 -137.333 26 -196s26 -107.834 44 -147.501s40.333 -63.5 67 -71.5c8 -8 6.33301 -14.333 -5 -19c-29.333 8.66699 -54.5 32 -75.5 70s-38.5 86 -52.5 144s-25.333 123.667 -34 197s-15.334 150 -20.001 230
c-33.333 -6.66699 -69.833 -8.16699 -109.5 -4.5s-80.334 10 -122.001 19s-83.5 19.5 -125.5 31.5l-121 34c-30.667 -55.333 -62.667 -109 -96 -161s-67.666 -99 -102.999 -141s-71.166 -77 -107.499 -105s-72.5 -45.833 -108.5 -53.5s-71.5 -3.33398 -106.5 12.999
s-68.833 48.166 -101.5 95.499c-2 5.33301 -1.33301 8.83301 2 10.5s8 2.16699 14 1.5c29.333 -40.667 60.166 -67.5 92.499 -80.5s65.166 -15.333 98.499 -7s67 26 101 53s67.5 60 100.5 99s65.5 82.833 97.5 131.5s62.667 99 92 151
c-26.667 7.33301 -51.834 13.666 -75.501 18.999s-45.334 8.83301 -65.001 10.5s-37.167 1.5 -52.5 -0.5s-28 -7 -38 -15zM1066 1047c-6.66699 -1.33301 -15.333 -10 -26 -26s-22.5 -35.833 -35.5 -59.5s-26.333 -49.667 -40 -78l-38 -81l-31 -68
c-9 -19.667 -14.833 -32.834 -17.5 -39.501l-35.5 -83l-53.5 -123l-69 -148.5c-25.333 -53 -52.666 -106.5 -81.999 -160.5l122 -34c42 -12 83.333 -22.333 124 -31s80 -14.667 118 -18s72.667 -1.66602 104 5.00098c-4 70.667 -6.83301 142.334 -8.5 215.001s-3 143 -4 211
s-1.83301 132 -2.5 192s-1.83398 113.167 -3.50098 159.5s-4.16699 84.166 -7.5 113.499s-8 47.333 -14 54zM1017 1164c-4.66699 -3.33301 -8.50195 -4.66797 -11.502 -4.00098s-4.83301 5.66699 -5.5 15c11.333 16 22.166 26.333 32.499 31s20.333 6 30 4
s18.834 -5.83301 27.501 -11.5s16.834 -10.667 24.501 -15s14.667 -6.5 21 -6.5s12.166 5 17.499 15c8.66699 7.33301 14.334 4.33301 17.001 -9c-11.333 -19.333 -24.166 -28.666 -38.499 -27.999s-29.833 5.66699 -46.5 15c-14.667 8 -27 13 -37 15s-20.333 -5 -31 -21z
" />
    <glyph glyph-name="Adieresis" unicode="&#xc4;" horiz-adv-x="1325" 
d="M373 183c-5.33301 -1.33301 -9.16504 -0.998047 -11.498 1.00195s-2.83301 6.66699 -1.5 14c10.667 9.33301 24.667 15.5 42 18.5s37 3.5 59 1.5s46 -5.66699 72 -11s53 -12 81 -20c30 54 58.167 108 84.5 162l71.5 150.5l55.5 123l35.5 80.5l19 42.5l33 73
c12.667 27.667 26.5 56.334 41.5 86.001s29.667 56.834 44 81.501s27.833 44.5 40.5 59.5s23.334 21.5 32.001 19.5c10.667 -2.66699 19.834 -14 27.501 -34s14.167 -44.667 19.5 -74s9.83301 -61.5 13.5 -96.5s6.5 -68.333 8.5 -100s3.5 -59.5 4.5 -83.5
s1.5 -40.333 1.5 -49c0 -18.667 -0.333008 -45.5 -1 -80.5s-1.16699 -75.167 -1.5 -120.5s-0.5 -94.833 -0.5 -148.5s0.666992 -108.5 2 -164.5c26.667 10.667 48 26.334 64 47.001c6.66699 6 12 2 16 -12c-21.333 -26.667 -48 -45.334 -80 -56.001
c2 -73.333 6 -146 12 -218s14.667 -137.333 26 -196s26 -107.834 44 -147.501s40.333 -63.5 67 -71.5c8 -8 6.33301 -14.333 -5 -19c-29.333 8.66699 -54.5 32 -75.5 70s-38.5 86 -52.5 144s-25.333 123.667 -34 197s-15.334 150 -20.001 230
c-33.333 -6.66699 -69.833 -8.16699 -109.5 -4.5s-80.334 10 -122.001 19s-83.5 19.5 -125.5 31.5l-121 34c-30.667 -55.333 -62.667 -109 -96 -161s-67.666 -99 -102.999 -141s-71.166 -77 -107.499 -105s-72.5 -45.833 -108.5 -53.5s-71.5 -3.33398 -106.5 12.999
s-68.833 48.166 -101.5 95.499c-2 5.33301 -1.33301 8.83301 2 10.5s8 2.16699 14 1.5c29.333 -40.667 60.166 -67.5 92.499 -80.5s65.166 -15.333 98.499 -7s67 26 101 53s67.5 60 100.5 99s65.5 82.833 97.5 131.5s62.667 99 92 151
c-26.667 7.33301 -51.834 13.666 -75.501 18.999s-45.334 8.83301 -65.001 10.5s-37.167 1.5 -52.5 -0.5s-28 -7 -38 -15zM1066 1047c-6.66699 -1.33301 -15.333 -10 -26 -26s-22.5 -35.833 -35.5 -59.5s-26.333 -49.667 -40 -78l-38 -81l-31 -68
c-9 -19.667 -14.833 -32.834 -17.5 -39.501l-35.5 -83l-53.5 -123l-69 -148.5c-25.333 -53 -52.666 -106.5 -81.999 -160.5l122 -34c42 -12 83.333 -22.333 124 -31s80 -14.667 118 -18s72.667 -1.66602 104 5.00098c-4 70.667 -6.83301 142.334 -8.5 215.001s-3 143 -4 211
s-1.83301 132 -2.5 192s-1.83398 113.167 -3.50098 159.5s-4.16699 84.166 -7.5 113.499s-8 47.333 -14 54zM1046 1193c5.33301 0 9.33203 -2 11.999 -6s3.83398 -8.33301 3.50098 -13s-2 -9 -5 -13s-6.83301 -6.33301 -11.5 -7c-5.33301 -0.666992 -9.5 1 -12.5 5
s-4.66699 8.5 -5 13.5s1 9.66699 4 14s7.83301 6.5 14.5 6.5zM1117 1193c5.33301 0 9.33203 -2 11.999 -6s3.83398 -8.33301 3.50098 -13s-2 -9 -5 -13s-6.83301 -6.33301 -11.5 -7c-5.33301 -0.666992 -9.5 1 -12.5 5s-4.66699 8.5 -5 13.5s1 9.66699 4 14
s7.83301 6.5 14.5 6.5z" />
    <glyph glyph-name="Aring" unicode="&#xc5;" horiz-adv-x="1325" 
d="M373 183c-5.33301 -1.33301 -9.16504 -0.998047 -11.498 1.00195s-2.83301 6.66699 -1.5 14c10.667 9.33301 24.667 15.5 42 18.5s37 3.5 59 1.5s46 -5.66699 72 -11s53 -12 81 -20c30 54 58.167 108 84.5 162l71.5 150.5l55.5 123l35.5 80.5l19 42.5l33 73
c12.667 27.667 26.5 56.334 41.5 86.001s29.667 56.834 44 81.501s27.833 44.5 40.5 59.5s23.334 21.5 32.001 19.5c10.667 -2.66699 19.834 -14 27.501 -34s14.167 -44.667 19.5 -74s9.83301 -61.5 13.5 -96.5s6.5 -68.333 8.5 -100s3.5 -59.5 4.5 -83.5
s1.5 -40.333 1.5 -49c0 -18.667 -0.333008 -45.5 -1 -80.5s-1.16699 -75.167 -1.5 -120.5s-0.5 -94.833 -0.5 -148.5s0.666992 -108.5 2 -164.5c26.667 10.667 48 26.334 64 47.001c6.66699 6 12 2 16 -12c-21.333 -26.667 -48 -45.334 -80 -56.001
c2 -73.333 6 -146 12 -218s14.667 -137.333 26 -196s26 -107.834 44 -147.501s40.333 -63.5 67 -71.5c8 -8 6.33301 -14.333 -5 -19c-29.333 8.66699 -54.5 32 -75.5 70s-38.5 86 -52.5 144s-25.333 123.667 -34 197s-15.334 150 -20.001 230
c-33.333 -6.66699 -69.833 -8.16699 -109.5 -4.5s-80.334 10 -122.001 19s-83.5 19.5 -125.5 31.5l-121 34c-30.667 -55.333 -62.667 -109 -96 -161s-67.666 -99 -102.999 -141s-71.166 -77 -107.499 -105s-72.5 -45.833 -108.5 -53.5s-71.5 -3.33398 -106.5 12.999
s-68.833 48.166 -101.5 95.499c-2 5.33301 -1.33301 8.83301 2 10.5s8 2.16699 14 1.5c29.333 -40.667 60.166 -67.5 92.499 -80.5s65.166 -15.333 98.499 -7s67 26 101 53s67.5 60 100.5 99s65.5 82.833 97.5 131.5s62.667 99 92 151
c-26.667 7.33301 -51.834 13.666 -75.501 18.999s-45.334 8.83301 -65.001 10.5s-37.167 1.5 -52.5 -0.5s-28 -7 -38 -15zM1066 1047c-6.66699 -1.33301 -15.333 -10 -26 -26s-22.5 -35.833 -35.5 -59.5s-26.333 -49.667 -40 -78l-38 -81l-31 -68
c-9 -19.667 -14.833 -32.834 -17.5 -39.501l-35.5 -83l-53.5 -123l-69 -148.5c-25.333 -53 -52.666 -106.5 -81.999 -160.5l122 -34c42 -12 83.333 -22.333 124 -31s80 -14.667 118 -18s72.667 -1.66602 104 5.00098c-4 70.667 -6.83301 142.334 -8.5 215.001s-3 143 -4 211
s-1.83301 132 -2.5 192s-1.83398 113.167 -3.50098 159.5s-4.16699 84.166 -7.5 113.499s-8 47.333 -14 54zM1051 1190c0 -10 3.16699 -17.5 9.5 -22.5s13.166 -7.5 20.499 -7.5s14.166 2.5 20.499 7.5s9.5 12.5 9.5 22.5s-3.16699 17.5 -9.5 22.5s-13.166 7.5 -20.499 7.5
s-14.166 -2.5 -20.499 -7.5s-9.5 -12.5 -9.5 -22.5zM1037 1189c0 14 4.5 24.667 13.5 32s19 11 30 11s21 -3.66699 30 -11s13.5 -18 13.5 -32s-4.5 -24.667 -13.5 -32s-19 -11 -30 -11s-21 3.5 -30 10.5s-13.5 17.833 -13.5 32.5z" />
    <glyph glyph-name="AE" unicode="&#xc6;" horiz-adv-x="1906" 
d="M1697 756c-9.33301 6 -11.665 11.9961 -6.99805 17.9961c26 9.33301 49 23 69 41s36.333 37.667 49 59s21.5 43 26.5 65s5.33301 42 1 60s-13.5 32.833 -27.5 44.5s-33.667 17.5 -59 17.5c-19.333 0 -42.333 -3.83301 -69 -11.5s-54.334 -18 -83.001 -31
s-57.167 -28.5 -85.5 -46.5s-53.666 -37.167 -75.999 -57.5s-40.5 -41.5 -54.5 -63.5s-21 -44 -21 -66c0 -41.333 9 -74.666 27 -99.999s41.333 -44.666 70 -57.999s60.834 -21.666 96.501 -24.999s70.834 -3.66602 105.501 -0.999023c34 8 70 14 108 18
c4 -0.666992 6.66699 -2.16699 8 -4.5s0 -7.16602 -4 -14.499c-25.333 -6 -52.333 -11 -81 -15c-82.667 -18 -154.5 -45.833 -215.5 -83.5s-112.167 -81.334 -153.5 -131.001s-73.333 -103 -96 -160s-37.167 -114 -43.5 -171s-5 -111.667 4 -164s24.5 -98.833 46.5 -139.5
s50 -73 84 -97s72.667 -36 116 -36c41.333 0 80 9.83301 116 29.5s69.333 45.667 100 78s59 69 85 110s49.667 82.833 71 125.5s40.666 84.5 57.999 125.5l45 109.5c8 8.66699 14.333 6.33398 19 -6.99902l-47.5 -113c-17.667 -42 -37.5 -85 -59.5 -129
s-46.5 -86.833 -73.5 -128.5s-56.5 -78.834 -88.5 -111.501s-66.667 -59 -104 -79s-77.666 -30 -120.999 -30c-59.333 0 -111 15.333 -155 46s-79.333 71 -106 121c5.33301 -38 11.833 -73.667 19.5 -107s16.5 -62.666 26.5 -87.999s21.333 -46.333 34 -63
s27 -27.334 43 -32.001c8 -8 6.33301 -14.333 -5 -19c-29.333 8.66699 -54.5 32 -75.5 70s-38.5 86 -52.5 144s-25.333 123.667 -34 197s-15.334 150 -20.001 230c-33.333 -6.66699 -69.833 -8.16699 -109.5 -4.5s-80.334 10 -122.001 19s-83.5 19.5 -125.5 31.5l-121 34
c-30.667 -55.333 -62.667 -109 -96 -161s-67.666 -99 -102.999 -141s-71.166 -77 -107.499 -105s-72.5 -45.833 -108.5 -53.5s-71.5 -3.33398 -106.5 12.999s-68.833 48.166 -101.5 95.499c-2 5.33301 -1.33301 8.83301 2 10.5s8 2.16699 14 1.5
c29.333 -40.667 60.166 -67.5 92.499 -80.5s65.166 -15.333 98.499 -7s67 26 101 53s67.5 60 100.5 99s65.5 82.833 97.5 131.5s62.667 99 92 151c-26.667 7.33301 -51.834 13.666 -75.501 18.999s-45.334 8.83301 -65.001 10.5s-37.167 1.5 -52.5 -0.5s-28 -7 -38 -15
c-5.33301 -1.33301 -9.16602 -1 -11.499 1s-2.83301 6.66699 -1.5 14c10.667 9.33301 24.667 15.5 42 18.5s37 3.5 59 1.5s46 -5.66699 72 -11s53 -12 81 -20c30 54 58.167 108 84.5 162l71.5 150.5l55.5 123l35.5 80.5l19 42.5l33 73
c12.667 27.667 26.5 56.334 41.5 86.001s29.667 56.834 44 81.501s27.833 44.5 40.5 59.5s23.334 21.5 32.001 19.5c10.667 -2.66699 19.834 -14 27.501 -34s14.167 -44.667 19.5 -74s9.83301 -61.5 13.5 -96.5s6.5 -68.333 8.5 -100s3.5 -59.5 4.5 -83.5
s1.5 -40.333 1.5 -49c0 -17.333 -0.166992 -41.833 -0.5 -73.5s-0.833008 -68.167 -1.5 -109.5s-1.16699 -86.5 -1.5 -135.5s0.166992 -99.5 1.5 -151.5c13.333 44 32.166 87.167 56.499 129.5s54.666 82 90.999 119s78.666 70.5 126.999 100.5s103.166 54.667 164.499 74
c-30.667 1.33301 -60.167 5.83301 -88.5 13.5s-53.666 19.334 -75.999 35.001s-40.5 36.167 -54.5 61.5s-22 56.666 -24 93.999c-2 32.667 4 62.667 18 90s32.667 51.833 56 73.5s50 40.834 80 57.501s60.5 30.5 91.5 41.5s60.833 19.167 89.5 24.5s53.334 8 74.001 8
c29.333 0 52.5 -6.5 69.5 -19.5s28.5 -29.833 34.5 -50.5s6.66699 -43.5 2 -68.5s-13.834 -49.5 -27.501 -73.5s-31.5 -46 -53.5 -66s-47.667 -35.333 -77 -46zM1066 1047c-6.66699 -1.33301 -15.333 -10 -26 -26s-22.5 -35.833 -35.5 -59.5s-26.333 -49.667 -40 -78
l-38 -81l-31 -68c-9 -19.667 -14.833 -32.834 -17.5 -39.501l-35.5 -83l-53.5 -123l-69 -148.5c-25.333 -53 -52.666 -106.5 -81.999 -160.5l122 -34c42 -12 83.333 -22.333 124 -31s80 -14.667 118 -18s72.667 -1.66602 104 5.00098
c-4 70.667 -6.83301 142.334 -8.5 215.001s-3 143 -4 211s-1.83301 132 -2.5 192s-1.83398 113.167 -3.50098 159.5s-4.16699 84.166 -7.5 113.499s-8 47.333 -14 54z" />
    <glyph glyph-name="Ccedilla" unicode="&#xc7;" horiz-adv-x="707" 
d="M540 480c-7.33301 2 -11.1699 4.49707 -11.5029 7.49707s0.166992 6.16699 1.5 9.5c18.667 10.667 37 28.667 55 54s34 54.5 48 87.5s25.5 67.833 34.5 104.5s14.167 72 15.5 106s-1.83398 64.667 -9.50098 92s-21.167 47.666 -40.5 60.999
c-7.33301 5.33301 -17.166 9.33301 -29.499 12s-23.166 4 -32.499 4c-38 0 -75.333 -11.667 -112 -35s-72 -53.666 -106 -90.999s-66 -79.5 -96 -126.5s-57.167 -94.167 -81.5 -141.5s-45.333 -92.5 -63 -135.5s-31.167 -79.5 -40.5 -109.5
c-17.333 -54 -31.333 -108.667 -42 -164s-16 -111.333 -16 -168c0 -47.333 5.66699 -92.666 17 -135.999s28.833 -82.166 52.5 -116.499s54 -62.833 91 -85.5s81.167 -36.334 132.5 -41.001c28.667 -2.66699 57.334 5.16602 86.001 23.499s56.5 42.833 83.5 73.5
s52.833 65.334 77.5 104.001s47 77.5 67 116.5s37.333 75.833 52 110.5s26 63 34 85c2 3.33301 4.33301 5.66602 7 6.99902s6.33398 -3.33398 11.001 -14.001c-8.66699 -23.333 -20.167 -52.166 -34.5 -86.499s-31 -70.666 -50 -108.999s-40.333 -76.666 -64 -114.999
s-48.834 -73 -75.501 -104s-54.5 -56.667 -83.5 -77s-58.833 -31.5 -89.5 -33.5v-5c-6 -6 -6 -16.667 0 -32c5.33301 -15.333 5.33301 -29.166 0 -41.499s-12.666 -21.5 -21.999 -27.5s-19.166 -7.83301 -29.499 -5.5s-17.833 10.5 -22.5 24.5c2 8.66699 8 11 18 7
c1.33301 -2.66699 3 -5.5 5 -8.5s4.66699 -4.16699 8 -3.5c7.33301 1.33301 11.333 5 12 11s0.5 13.333 -0.5 22s-1.33301 18.167 -1 28.5s3.83301 20.5 10.5 30.5h-1c-53.333 5.33301 -102.333 19 -147 41s-83.167 50.5 -115.5 85.5s-57.5 75.5 -75.5 121.5s-27 96 -27 150
c0 58.667 6.5 116.167 19.5 172.5s29.5 111.5 49.5 165.5c11.333 31.333 27.666 69.333 48.999 114s46.166 91.167 74.499 139.5s59.833 96.333 94.5 144s70.834 90.5 108.501 128.5s76.5 68.667 116.5 92s79.667 35 119 35c11.333 0 23.833 -1.66699 37.5 -5
s25.167 -8 34.5 -14c22 -14.667 37.5 -36.5 46.5 -65.5s13.167 -61.5 12.5 -97.5s-5.66699 -73.667 -15 -113s-21.5 -76.5 -36.5 -111.5s-32 -66 -51 -93s-38.833 -46.5 -59.5 -58.5z" />
    <glyph glyph-name="Egrave" unicode="&#xc8;" horiz-adv-x="786" 
d="M576 756c-9.33301 6 -11.668 11.998 -7.00098 17.998c26 9.33301 49 23 69 41s36.333 37.667 49 59s21.5 43 26.5 65s5.33301 42 1 60s-13.5 32.833 -27.5 44.5s-33.667 17.5 -59 17.5c-19.333 0 -42.333 -3.83301 -69 -11.5s-54.334 -18 -83.001 -31
s-57.167 -28.5 -85.5 -46.5s-53.666 -37.167 -75.999 -57.5s-40.5 -41.5 -54.5 -63.5s-21 -44 -21 -66c0 -41.333 9 -74.666 27 -99.999s41.333 -44.666 70 -57.999s60.834 -21.666 96.501 -24.999s70.834 -3.66602 105.501 -0.999023c34 8 70 14 108 18
c4 -0.666992 6.66699 -2.16699 8 -4.5s0 -7.16602 -4 -14.499c-25.333 -6 -52.333 -11 -81 -15c-82.667 -18 -154.5 -45.833 -215.5 -83.5s-112.167 -81.334 -153.5 -131.001s-73.333 -103 -96 -160s-37.167 -114 -43.5 -171s-5 -111.667 4 -164s24.5 -98.833 46.5 -139.5
s50 -73 84 -97s72.667 -36 116 -36c41.333 0 80 9.83301 116 29.5s69.333 45.667 100 78s59 69 85 110s49.667 82.833 71 125.5s40.666 84.5 57.999 125.5l45 109.5c8 8.66699 14.333 6.33398 19 -6.99902l-47.5 -113c-17.667 -42 -37.5 -85 -59.5 -129
s-46.5 -86.833 -73.5 -128.5s-56.5 -78.834 -88.5 -111.501s-66.667 -59 -104 -79s-77.666 -30 -120.999 -30c-51.333 0 -97 11.5 -137 34.5s-73.5 54 -100.5 93s-47.167 84.167 -60.5 135.5s-18.833 105.166 -16.5 161.499s13.166 113.166 32.499 170.499
s47.833 111.666 85.5 162.999s85.167 98 142.5 140s125.666 75.333 204.999 100c-30.667 1.33301 -60.167 5.83301 -88.5 13.5s-53.666 19.334 -75.999 35.001s-40.5 36.167 -54.5 61.5s-22 56.666 -24 93.999c-2 32.667 4 62.667 18 90s32.667 51.833 56 73.5
s50 40.834 80 57.501s60.5 30.5 91.5 41.5s60.833 19.167 89.5 24.5s53.334 8 74.001 8c29.333 0 52.5 -6.5 69.5 -19.5s28.5 -29.833 34.5 -50.5s6.66699 -43.5 2 -68.5s-13.834 -49.5 -27.501 -73.5s-31.667 -46 -54 -66s-47.833 -35.333 -76.5 -46zM566.998 1200
c-9.33301 13.333 -6.33105 23.667 9.00195 31c4 0.666992 8.83301 -2.83301 14.5 -10.5s11.167 -16.667 16.5 -27s10 -20.333 14 -30s6.66699 -16.5 8 -20.5c-4.66699 -5.33301 -8.33398 -7.83301 -11.001 -7.5s-5.66699 2.5 -9 6.5l-7 13.5
c-3.33301 6.33301 -7 12.833 -11 19.5s-8.33301 12.5 -13 17.5s-8.33398 7.5 -11.001 7.5z" />
    <glyph glyph-name="Eacute" unicode="&#xc9;" horiz-adv-x="786" 
d="M576 756c-9.33301 6 -11.668 11.998 -7.00098 17.998c26 9.33301 49 23 69 41s36.333 37.667 49 59s21.5 43 26.5 65s5.33301 42 1 60s-13.5 32.833 -27.5 44.5s-33.667 17.5 -59 17.5c-19.333 0 -42.333 -3.83301 -69 -11.5s-54.334 -18 -83.001 -31
s-57.167 -28.5 -85.5 -46.5s-53.666 -37.167 -75.999 -57.5s-40.5 -41.5 -54.5 -63.5s-21 -44 -21 -66c0 -41.333 9 -74.666 27 -99.999s41.333 -44.666 70 -57.999s60.834 -21.666 96.501 -24.999s70.834 -3.66602 105.501 -0.999023c34 8 70 14 108 18
c4 -0.666992 6.66699 -2.16699 8 -4.5s0 -7.16602 -4 -14.499c-25.333 -6 -52.333 -11 -81 -15c-82.667 -18 -154.5 -45.833 -215.5 -83.5s-112.167 -81.334 -153.5 -131.001s-73.333 -103 -96 -160s-37.167 -114 -43.5 -171s-5 -111.667 4 -164s24.5 -98.833 46.5 -139.5
s50 -73 84 -97s72.667 -36 116 -36c41.333 0 80 9.83301 116 29.5s69.333 45.667 100 78s59 69 85 110s49.667 82.833 71 125.5s40.666 84.5 57.999 125.5l45 109.5c8 8.66699 14.333 6.33398 19 -6.99902l-47.5 -113c-17.667 -42 -37.5 -85 -59.5 -129
s-46.5 -86.833 -73.5 -128.5s-56.5 -78.834 -88.5 -111.501s-66.667 -59 -104 -79s-77.666 -30 -120.999 -30c-51.333 0 -97 11.5 -137 34.5s-73.5 54 -100.5 93s-47.167 84.167 -60.5 135.5s-18.833 105.166 -16.5 161.499s13.166 113.166 32.499 170.499
s47.833 111.666 85.5 162.999s85.167 98 142.5 140s125.666 75.333 204.999 100c-30.667 1.33301 -60.167 5.83301 -88.5 13.5s-53.666 19.334 -75.999 35.001s-40.5 36.167 -54.5 61.5s-22 56.666 -24 93.999c-2 32.667 4 62.667 18 90s32.667 51.833 56 73.5
s50 40.834 80 57.501s60.5 30.5 91.5 41.5s60.833 19.167 89.5 24.5s53.334 8 74.001 8c29.333 0 52.5 -6.5 69.5 -19.5s28.5 -29.833 34.5 -50.5s6.66699 -43.5 2 -68.5s-13.834 -49.5 -27.501 -73.5s-31.667 -46 -54 -66s-47.833 -35.333 -76.5 -46zM589.998 1166
c-6.66699 -4.66699 -11.167 -6.33203 -13.5 -4.99902s-4.16602 3 -5.49902 5c0 6 1.33301 13.833 4 23.5s6.5 19 11.5 28s11 16.667 18 23s14.5 8.83301 22.5 7.5c6.66699 -6.66699 7 -13 1 -19c-1.33301 -3.33301 -4 -8 -8 -14l-12 -18.5l-11.5 -18
c-3.66699 -5.66699 -5.83398 -9.83398 -6.50098 -12.501z" />
    <glyph glyph-name="Ecircumflex" unicode="&#xca;" horiz-adv-x="786" 
d="M576 756c-9.33301 6 -11.668 11.998 -7.00098 17.998c26 9.33301 49 23 69 41s36.333 37.667 49 59s21.5 43 26.5 65s5.33301 42 1 60s-13.5 32.833 -27.5 44.5s-33.667 17.5 -59 17.5c-19.333 0 -42.333 -3.83301 -69 -11.5s-54.334 -18 -83.001 -31
s-57.167 -28.5 -85.5 -46.5s-53.666 -37.167 -75.999 -57.5s-40.5 -41.5 -54.5 -63.5s-21 -44 -21 -66c0 -41.333 9 -74.666 27 -99.999s41.333 -44.666 70 -57.999s60.834 -21.666 96.501 -24.999s70.834 -3.66602 105.501 -0.999023c34 8 70 14 108 18
c4 -0.666992 6.66699 -2.16699 8 -4.5s0 -7.16602 -4 -14.499c-25.333 -6 -52.333 -11 -81 -15c-82.667 -18 -154.5 -45.833 -215.5 -83.5s-112.167 -81.334 -153.5 -131.001s-73.333 -103 -96 -160s-37.167 -114 -43.5 -171s-5 -111.667 4 -164s24.5 -98.833 46.5 -139.5
s50 -73 84 -97s72.667 -36 116 -36c41.333 0 80 9.83301 116 29.5s69.333 45.667 100 78s59 69 85 110s49.667 82.833 71 125.5s40.666 84.5 57.999 125.5l45 109.5c8 8.66699 14.333 6.33398 19 -6.99902l-47.5 -113c-17.667 -42 -37.5 -85 -59.5 -129
s-46.5 -86.833 -73.5 -128.5s-56.5 -78.834 -88.5 -111.501s-66.667 -59 -104 -79s-77.666 -30 -120.999 -30c-51.333 0 -97 11.5 -137 34.5s-73.5 54 -100.5 93s-47.167 84.167 -60.5 135.5s-18.833 105.166 -16.5 161.499s13.166 113.166 32.499 170.499
s47.833 111.666 85.5 162.999s85.167 98 142.5 140s125.666 75.333 204.999 100c-30.667 1.33301 -60.167 5.83301 -88.5 13.5s-53.666 19.334 -75.999 35.001s-40.5 36.167 -54.5 61.5s-22 56.666 -24 93.999c-2 32.667 4 62.667 18 90s32.667 51.833 56 73.5
s50 40.834 80 57.501s60.5 30.5 91.5 41.5s60.833 19.167 89.5 24.5s53.334 8 74.001 8c29.333 0 52.5 -6.5 69.5 -19.5s28.5 -29.833 34.5 -50.5s6.66699 -43.5 2 -68.5s-13.834 -49.5 -27.501 -73.5s-31.667 -46 -54 -66s-47.833 -35.333 -76.5 -46zM576.998 1132
c-4 -1.33301 -7.66797 -1.83594 -11.001 -1.50293s-5.66602 3.83301 -6.99902 10.5c20.667 42 39 62.333 55 61s33.667 -22.666 53 -63.999c-2.66699 -3.33301 -6.83398 -6.16602 -12.501 -8.49902s-10.167 -1.83301 -13.5 1.5c-8.66699 15.333 -15.167 27.333 -19.5 36
s-8.16602 13.334 -11.499 14.001s-7.33301 -2.83301 -12 -10.5s-11.667 -20.5 -21 -38.5z" />
    <glyph glyph-name="Edieresis" unicode="&#xcb;" horiz-adv-x="786" 
d="M576 756c-9.33301 6 -11.668 11.998 -7.00098 17.998c26 9.33301 49 23 69 41s36.333 37.667 49 59s21.5 43 26.5 65s5.33301 42 1 60s-13.5 32.833 -27.5 44.5s-33.667 17.5 -59 17.5c-19.333 0 -42.333 -3.83301 -69 -11.5s-54.334 -18 -83.001 -31
s-57.167 -28.5 -85.5 -46.5s-53.666 -37.167 -75.999 -57.5s-40.5 -41.5 -54.5 -63.5s-21 -44 -21 -66c0 -41.333 9 -74.666 27 -99.999s41.333 -44.666 70 -57.999s60.834 -21.666 96.501 -24.999s70.834 -3.66602 105.501 -0.999023c34 8 70 14 108 18
c4 -0.666992 6.66699 -2.16699 8 -4.5s0 -7.16602 -4 -14.499c-25.333 -6 -52.333 -11 -81 -15c-82.667 -18 -154.5 -45.833 -215.5 -83.5s-112.167 -81.334 -153.5 -131.001s-73.333 -103 -96 -160s-37.167 -114 -43.5 -171s-5 -111.667 4 -164s24.5 -98.833 46.5 -139.5
s50 -73 84 -97s72.667 -36 116 -36c41.333 0 80 9.83301 116 29.5s69.333 45.667 100 78s59 69 85 110s49.667 82.833 71 125.5s40.666 84.5 57.999 125.5l45 109.5c8 8.66699 14.333 6.33398 19 -6.99902l-47.5 -113c-17.667 -42 -37.5 -85 -59.5 -129
s-46.5 -86.833 -73.5 -128.5s-56.5 -78.834 -88.5 -111.501s-66.667 -59 -104 -79s-77.666 -30 -120.999 -30c-51.333 0 -97 11.5 -137 34.5s-73.5 54 -100.5 93s-47.167 84.167 -60.5 135.5s-18.833 105.166 -16.5 161.499s13.166 113.166 32.499 170.499
s47.833 111.666 85.5 162.999s85.167 98 142.5 140s125.666 75.333 204.999 100c-30.667 1.33301 -60.167 5.83301 -88.5 13.5s-53.666 19.334 -75.999 35.001s-40.5 36.167 -54.5 61.5s-22 56.666 -24 93.999c-2 32.667 4 62.667 18 90s32.667 51.833 56 73.5
s50 40.834 80 57.501s60.5 30.5 91.5 41.5s60.833 19.167 89.5 24.5s53.334 8 74.001 8c29.333 0 52.5 -6.5 69.5 -19.5s28.5 -29.833 34.5 -50.5s6.66699 -43.5 2 -68.5s-13.834 -49.5 -27.501 -73.5s-31.667 -46 -54 -66s-47.833 -35.333 -76.5 -46zM585.998 1193
c5.33301 0 9.33203 -2 11.999 -6s3.83398 -8.33301 3.50098 -13s-2 -9 -5 -13s-6.83301 -6.33301 -11.5 -7c-5.33301 -0.666992 -9.5 1 -12.5 5s-4.66699 8.5 -5 13.5s1 9.66699 4 14s7.83301 6.5 14.5 6.5zM656.997 1193c5.33301 0 9.33203 -2 11.999 -6
s3.83398 -8.33301 3.50098 -13s-2 -9 -5 -13s-6.83301 -6.33301 -11.5 -7c-5.33301 -0.666992 -9.5 1 -12.5 5s-4.66699 8.5 -5 13.5s1 9.66699 4 14s7.83301 6.5 14.5 6.5z" />
    <glyph glyph-name="Igrave" unicode="&#xcc;" horiz-adv-x="413" 
d="M40 827c-12 -10 -18.668 -8.66309 -20.001 4.00391c4 6 14.5 13.167 31.5 21.5s37 17.666 60 27.999l73 32.5c25.667 11.333 49.5 23 71.5 35s40.5 24.167 55.5 36.5s23.167 24.5 24.5 36.5c1.33301 4 3.33301 6.5 6 7.5s7.33398 -1.5 14.001 -7.5
c3.33301 -32 6.16602 -74.833 8.49902 -128.5s3.5 -113.834 3.5 -180.501s-1.5 -137.667 -4.5 -213s-8.16699 -150.5 -15.5 -225.5s-16.833 -147.667 -28.5 -218s-26.334 -133.833 -44.001 -190.5s-38.5 -104.5 -62.5 -143.5s-51.667 -64.5 -83 -76.5
c-1.33301 -0.666992 -4.66602 -1.5 -9.99902 -2.5s-8.66602 -1.16699 -9.99902 -0.5c-15.333 2.66699 -27.333 8 -36 16s-15 17.667 -19 29s-6.5 23.666 -7.5 36.999s-1.5 26.666 -1.5 39.999c0 20.667 2.5 48.5 7.5 83.5s12 73.333 21 115s19.5 84.834 31.5 129.501
s24.833 86.667 38.5 126s28 74.333 43 105s29.833 53 44.5 67c4.66699 2.66699 7.83398 3.83398 9.50098 3.50098s2.83398 -1.5 3.50098 -3.5s0.833984 -4.33301 0.500977 -7s-0.5 -5.33398 -0.5 -8.00098c-10.667 -10 -22.5 -27.5 -35.5 -52.5s-26 -54.833 -39 -89.5
s-25.833 -72.5 -38.5 -113.5s-23.834 -82.333 -33.501 -124s-17.334 -82.167 -23.001 -121.5s-8.66699 -74.333 -9 -105s3 -55.834 10 -75.501s18.167 -30.5 33.5 -32.5c1.33301 0 3.83301 0.333008 7.5 1s6.16699 1.33398 7.5 2.00098
c27.333 8.66699 51.5 31.167 72.5 67.5s39 82 54 137s27.5 117 37.5 186s18.167 140.167 24.5 213.5s11 146.833 14 220.5s5.16699 142.5 6.5 206.5s2 121.167 2 171.5v116.5c-10 -10 -24 -20.5 -42 -31.5s-37.5 -21.833 -58.5 -32.5s-42.5 -21 -64.5 -31l-61 -27.5l-47 -21
c-12.667 -5.66699 -20.334 -9.83398 -23.001 -12.501zM266.999 1199c-9.33301 13.333 -6.33105 23.667 9.00195 31c4 0.666992 8.83301 -2.83301 14.5 -10.5s11.167 -16.667 16.5 -27s10 -20.333 14 -30s6.66699 -16.5 8 -20.5
c-4.66699 -5.33301 -8.33398 -7.83301 -11.001 -7.5s-5.66699 2.5 -9 6.5l-7 13.5c-3.33301 6.33301 -7 12.833 -11 19.5s-8.33301 12.5 -13 17.5s-8.33398 7.5 -11.001 7.5z" />
    <glyph glyph-name="Iacute" unicode="&#xcd;" horiz-adv-x="413" 
d="M40 827c-12 -10 -18.668 -8.66309 -20.001 4.00391c4 6 14.5 13.167 31.5 21.5s37 17.666 60 27.999l73 32.5c25.667 11.333 49.5 23 71.5 35s40.5 24.167 55.5 36.5s23.167 24.5 24.5 36.5c1.33301 4 3.33301 6.5 6 7.5s7.33398 -1.5 14.001 -7.5
c3.33301 -32 6.16602 -74.833 8.49902 -128.5s3.5 -113.834 3.5 -180.501s-1.5 -137.667 -4.5 -213s-8.16699 -150.5 -15.5 -225.5s-16.833 -147.667 -28.5 -218s-26.334 -133.833 -44.001 -190.5s-38.5 -104.5 -62.5 -143.5s-51.667 -64.5 -83 -76.5
c-1.33301 -0.666992 -4.66602 -1.5 -9.99902 -2.5s-8.66602 -1.16699 -9.99902 -0.5c-15.333 2.66699 -27.333 8 -36 16s-15 17.667 -19 29s-6.5 23.666 -7.5 36.999s-1.5 26.666 -1.5 39.999c0 20.667 2.5 48.5 7.5 83.5s12 73.333 21 115s19.5 84.834 31.5 129.501
s24.833 86.667 38.5 126s28 74.333 43 105s29.833 53 44.5 67c4.66699 2.66699 7.83398 3.83398 9.50098 3.50098s2.83398 -1.5 3.50098 -3.5s0.833984 -4.33301 0.500977 -7s-0.5 -5.33398 -0.5 -8.00098c-10.667 -10 -22.5 -27.5 -35.5 -52.5s-26 -54.833 -39 -89.5
s-25.833 -72.5 -38.5 -113.5s-23.834 -82.333 -33.501 -124s-17.334 -82.167 -23.001 -121.5s-8.66699 -74.333 -9 -105s3 -55.834 10 -75.501s18.167 -30.5 33.5 -32.5c1.33301 0 3.83301 0.333008 7.5 1s6.16699 1.33398 7.5 2.00098
c27.333 8.66699 51.5 31.167 72.5 67.5s39 82 54 137s27.5 117 37.5 186s18.167 140.167 24.5 213.5s11 146.833 14 220.5s5.16699 142.5 6.5 206.5s2 121.167 2 171.5v116.5c-10 -10 -24 -20.5 -42 -31.5s-37.5 -21.833 -58.5 -32.5s-42.5 -21 -64.5 -31l-61 -27.5l-47 -21
c-12.667 -5.66699 -20.334 -9.83398 -23.001 -12.501zM306.999 1147c-6.66699 -4.66699 -11.167 -6.33203 -13.5 -4.99902s-4.16602 3 -5.49902 5c0 6 1.33301 13.833 4 23.5s6.5 19 11.5 28s11 16.667 18 23s14.5 8.83301 22.5 7.5c6.66699 -6.66699 7 -13 1 -19
c-1.33301 -3.33301 -4 -8 -8 -14l-12 -18.5l-11.5 -18c-3.66699 -5.66699 -5.83398 -9.83398 -6.50098 -12.501z" />
    </font>
</defs>
</svg>
